<ttFont>
<head>
    <!-- Most of this table will be recalculated by the compiler -->
    <tableVersion value="1.0"/>
    <fontRevision value="1.0"/>
    <checkSumAdjustment value="0xe870cf71"/>
    <magicNumber value="0x5f0f3cf5"/>
    <flags value="00000000 00011011"/>
    <unitsPerEm value="1000"/>
    <created value="Sat Dec  6 13:43:36 2025"/>
    <modified value="Sat Dec  6 13:50:39 2025"/>
    <xMin value="-53"/>
    <yMin value="-361"/>
    <xMax value="803"/>
    <yMax value="709"/>
    <macStyle value="00000000 00000010"/>
    <lowestRecPPEM value="6"/>
    <fontDirectionHint value="2"/>
    <indexToLocFormat value="0"/>
    <glyphDataFormat value="0"/>
  </head>
    <TTGlyph name="A" xMin="24" yMin="0" xMax="537" yMax="663">
      <contour>
        <pt x="506" y="57" on="1"/>
        <pt x="515" y="57" on="0"/>
        <pt x="527" y="55" on="0"/>
        <pt x="534" y="47" on="0"/>
        <pt x="537" y="31" on="0"/>
        <pt x="537" y="17" on="1"/>
        <pt x="537" y="6" on="0"/>
        <pt x="528" y="1" on="0"/>
        <pt x="527" y="1" on="1"/>
        <pt x="524" y="1" on="0"/>
        <pt x="521" y="3" on="1"/>
        <pt x="508" y="14" on="0"/>
        <pt x="492" y="14" on="1"/>
        <pt x="487" y="14" on="0"/>
        <pt x="486" y="13" on="1"/>
        <pt x="478" y="11" on="0"/>
        <pt x="472" y="10" on="0"/>
        <pt x="465" y="5" on="1"/>
        <pt x="459" y="0" on="1"/>
        <pt x="448" y="3" on="0"/>
        <pt x="445" y="10" on="0"/>
        <pt x="443" y="24" on="1"/>
        <pt x="442" y="32" on="0"/>
        <pt x="432" y="57" on="0"/>
        <pt x="427" y="68" on="1"/>
        <pt x="358" y="233" on="1"/>
        <pt x="135" y="233" on="1"/>
        <pt x="95" y="50" on="1"/>
        <pt x="95" y="48" on="0"/>
        <pt x="91" y="34" on="0"/>
        <pt x="91" y="33" on="1"/>
        <pt x="93" y="16" on="1"/>
        <pt x="93" y="5" on="0"/>
        <pt x="82" y="0" on="0"/>
        <pt x="81" y="0" on="1"/>
        <pt x="79" y="2" on="0"/>
        <pt x="71" y="14" on="0"/>
        <pt x="59" y="14" on="1"/>
        <pt x="50" y="14" on="0"/>
        <pt x="44" y="5" on="1"/>
        <pt x="41" y="1" on="0"/>
        <pt x="39" y="1" on="1"/>
        <pt x="33" y="1" on="0"/>
        <pt x="27" y="11" on="0"/>
        <pt x="24" y="25" on="0"/>
        <pt x="24" y="37" on="0"/>
        <pt x="24" y="40" on="1"/>
        <pt x="24" y="56" on="0"/>
        <pt x="41" y="56" on="1"/>
        <pt x="45" y="59" on="0"/>
        <pt x="54" y="71" on="0"/>
        <pt x="57" y="86" on="1"/>
        <pt x="186" y="663" on="1"/>
        <pt x="249" y="663" on="1"/>
      </contour>
      <contour>
        <pt x="257" y="479" on="1"/>
        <pt x="242" y="516" on="0"/>
        <pt x="216" y="585" on="0"/>
        <pt x="209" y="614" on="1"/>
        <pt x="208" y="613" on="1"/>
        <pt x="207" y="590" on="0"/>
        <pt x="192" y="501" on="0"/>
        <pt x="172" y="402" on="0"/>
        <pt x="151" y="308" on="0"/>
        <pt x="145" y="280" on="1"/>
        <pt x="338" y="280" on="1"/>
      </contour>
    </TTGlyph>
    <TTGlyph name="AE" xMin="24" yMin="0" xMax="714" yMax="625">
      <contour>
        <pt x="375" y="56" on="1"/>
        <pt x="512" y="56" on="1"/>
        <pt x="532" y="56" on="0"/>
        <pt x="588" y="61" on="0"/>
        <pt x="614" y="63" on="1"/>
        <pt x="625" y="65" on="0"/>
        <pt x="634" y="66" on="0"/>
        <pt x="644" y="68" on="1"/>
        <pt x="644" y="74" on="1"/>
        <pt x="642" y="77" on="0"/>
        <pt x="648" y="88" on="0"/>
        <pt x="659" y="88" on="1"/>
        <pt x="667" y="88" on="0"/>
        <pt x="672" y="83" on="0"/>
        <pt x="677" y="75" on="1"/>
        <pt x="694" y="50" on="0"/>
        <pt x="714" y="19" on="0"/>
        <pt x="714" y="14" on="1"/>
        <pt x="714" y="3" on="0"/>
        <pt x="697" y="0" on="0"/>
        <pt x="686" y="0" on="1"/>
        <pt x="335" y="0" on="1"/>
        <pt x="326" y="0" on="0"/>
        <pt x="315" y="1" on="0"/>
        <pt x="308" y="9" on="0"/>
        <pt x="305" y="26" on="0"/>
        <pt x="305" y="42" on="1"/>
        <pt x="305" y="48" on="0"/>
        <pt x="308" y="52" on="1"/>
        <pt x="310" y="54" on="0"/>
        <pt x="310" y="69" on="0"/>
        <pt x="310" y="72" on="1"/>
        <pt x="289" y="276" on="1"/>
        <pt x="142" y="276" on="1"/>
        <pt x="95" y="53" on="1"/>
        <pt x="95" y="51" on="0"/>
        <pt x="91" y="35" on="0"/>
        <pt x="91" y="34" on="1"/>
        <pt x="93" y="16" on="1"/>
        <pt x="93" y="6" on="0"/>
        <pt x="82" y="0" on="0"/>
        <pt x="81" y="0" on="1"/>
        <pt x="79" y="2" on="0"/>
        <pt x="71" y="14" on="0"/>
        <pt x="59" y="14" on="1"/>
        <pt x="50" y="14" on="0"/>
        <pt x="44" y="5" on="1"/>
        <pt x="41" y="1" on="0"/>
        <pt x="39" y="1" on="1"/>
        <pt x="33" y="1" on="0"/>
        <pt x="27" y="11" on="0"/>
        <pt x="24" y="25" on="0"/>
        <pt x="24" y="37" on="0"/>
        <pt x="24" y="40" on="1"/>
        <pt x="24" y="49" on="0"/>
        <pt x="33" y="54" on="0"/>
        <pt x="38" y="56" on="1"/>
        <pt x="41" y="57" on="0"/>
        <pt x="51" y="66" on="0"/>
        <pt x="56" y="86" on="1"/>
        <pt x="170" y="625" on="1"/>
        <pt x="593" y="625" on="1"/>
        <pt x="604" y="625" on="0"/>
        <pt x="622" y="622" on="0"/>
        <pt x="622" y="611" on="1"/>
        <pt x="622" y="608" on="0"/>
        <pt x="614" y="581" on="0"/>
        <pt x="611" y="571" on="1"/>
        <pt x="605" y="551" on="0"/>
        <pt x="599" y="541" on="0"/>
        <pt x="589" y="541" on="1"/>
        <pt x="577" y="541" on="0"/>
        <pt x="572" y="554" on="0"/>
        <pt x="573" y="556" on="1"/>
        <pt x="573" y="558" on="1"/>
        <pt x="568" y="560" on="0"/>
        <pt x="560" y="560" on="0"/>
        <pt x="549" y="562" on="1"/>
        <pt x="539" y="562" on="1"/>
        <pt x="529" y="563" on="0"/>
        <pt x="503" y="566" on="0"/>
        <pt x="476" y="568" on="0"/>
        <pt x="451" y="569" on="0"/>
        <pt x="441" y="569" on="1"/>
        <pt x="324" y="569" on="1"/>
        <pt x="348" y="330" on="1"/>
        <pt x="408" y="330" on="1"/>
        <pt x="493" y="335" on="1"/>
        <pt x="496" y="347" on="0"/>
        <pt x="509" y="347" on="1"/>
        <pt x="520" y="347" on="0"/>
        <pt x="525" y="335" on="0"/>
        <pt x="527" y="316" on="1"/>
        <pt x="527" y="313" on="0"/>
        <pt x="529" y="299" on="0"/>
        <pt x="531" y="284" on="0"/>
        <pt x="532" y="272" on="0"/>
        <pt x="532" y="269" on="1"/>
        <pt x="532" y="265" on="0"/>
        <pt x="528" y="252" on="0"/>
        <pt x="516" y="252" on="1"/>
        <pt x="509" y="252" on="0"/>
        <pt x="503" y="257" on="0"/>
        <pt x="501" y="260" on="1"/>
        <pt x="499" y="262" on="0"/>
        <pt x="493" y="263" on="0"/>
        <pt x="480" y="265" on="1"/>
        <pt x="465" y="267" on="0"/>
        <pt x="448" y="268" on="0"/>
        <pt x="435" y="269" on="0"/>
        <pt x="422" y="269" on="0"/>
        <pt x="412" y="269" on="1"/>
        <pt x="354" y="269" on="1"/>
      </contour>
      <contour>
        <pt x="152" y="323" on="1"/>
        <pt x="285" y="323" on="1"/>
        <pt x="262" y="551" on="1"/>
        <pt x="260" y="562" on="0"/>
        <pt x="257" y="567" on="0"/>
        <pt x="250" y="568" on="1"/>
        <pt x="243" y="569" on="0"/>
        <pt x="228" y="569" on="0"/>
        <pt x="221" y="569" on="1"/>
        <pt x="204" y="569" on="1"/>
      </contour>
    </TTGlyph>
    <TTGlyph name="B" xMin="20" yMin="0" xMax="489" yMax="625">
      <contour>
        <pt x="237" y="625" on="1"/>
        <pt x="273" y="625" on="0"/>
        <pt x="345" y="593" on="0"/>
        <pt x="402" y="543" on="0"/>
        <pt x="437" y="485" on="0"/>
        <pt x="437" y="459" on="1"/>
        <pt x="437" y="438" on="0"/>
        <pt x="416" y="398" on="0"/>
        <pt x="382" y="363" on="0"/>
        <pt x="339" y="336" on="0"/>
        <pt x="318" y="328" on="1"/>
        <pt x="341" y="324" on="0"/>
        <pt x="400" y="293" on="0"/>
        <pt x="453" y="248" on="0"/>
        <pt x="489" y="191" on="0"/>
        <pt x="489" y="159" on="1"/>
        <pt x="489" y="135" on="0"/>
        <pt x="464" y="79" on="0"/>
        <pt x="419" y="32" on="0"/>
        <pt x="357" y="0" on="0"/>
        <pt x="321" y="0" on="1"/>
        <pt x="108" y="0" on="1"/>
        <pt x="90" y="0" on="0"/>
        <pt x="77" y="10" on="0"/>
        <pt x="77" y="39" on="1"/>
        <pt x="77" y="42" on="0"/>
        <pt x="78" y="50" on="0"/>
        <pt x="82" y="53" on="1"/>
        <pt x="86" y="56" on="0"/>
        <pt x="85" y="72" on="0"/>
        <pt x="85" y="73" on="1"/>
        <pt x="37" y="555" on="1"/>
        <pt x="35" y="561" on="0"/>
        <pt x="35" y="569" on="1"/>
        <pt x="28" y="573" on="0"/>
        <pt x="20" y="584" on="0"/>
        <pt x="20" y="608" on="1"/>
        <pt x="20" y="621" on="0"/>
        <pt x="34" y="625" on="0"/>
        <pt x="48" y="625" on="1"/>
      </contour>
      <contour>
        <pt x="130" y="345" on="1"/>
        <pt x="244" y="345" on="1"/>
        <pt x="270" y="345" on="0"/>
        <pt x="313" y="369" on="0"/>
        <pt x="343" y="403" on="0"/>
        <pt x="359" y="443" on="0"/>
        <pt x="359" y="459" on="1"/>
        <pt x="359" y="487" on="0"/>
        <pt x="331" y="527" on="0"/>
        <pt x="321" y="538" on="1"/>
        <pt x="294" y="568" on="0"/>
        <pt x="251" y="578" on="0"/>
        <pt x="238" y="578" on="1"/>
        <pt x="111" y="578" on="1"/>
        <pt x="109" y="572" on="0"/>
        <pt x="108" y="568" on="0"/>
        <pt x="109" y="567" on="1"/>
        <pt x="109" y="556" on="1"/>
      </contour>
      <contour>
        <pt x="292" y="47" on="1"/>
        <pt x="322" y="47" on="0"/>
        <pt x="368" y="72" on="0"/>
        <pt x="399" y="108" on="0"/>
        <pt x="415" y="148" on="0"/>
        <pt x="415" y="163" on="1"/>
        <pt x="415" y="165" on="0"/>
        <pt x="413" y="183" on="0"/>
        <pt x="404" y="210" on="0"/>
        <pt x="383" y="244" on="0"/>
        <pt x="365" y="263" on="1"/>
        <pt x="350" y="278" on="0"/>
        <pt x="326" y="296" on="0"/>
        <pt x="304" y="304" on="0"/>
        <pt x="282" y="306" on="0"/>
        <pt x="269" y="306" on="1"/>
        <pt x="134" y="306" on="1"/>
        <pt x="160" y="53" on="1"/>
        <pt x="161" y="52" on="0"/>
        <pt x="164" y="50" on="0"/>
        <pt x="165" y="47" on="1"/>
      </contour>
    </TTGlyph>
    <TTGlyph name="C" xMin="18" yMin="-11" xMax="528" yMax="636">
      <contour>
        <pt x="488" y="509" on="1"/>
        <pt x="444" y="509" on="1"/>
        <pt x="437" y="537" on="0"/>
        <pt x="395" y="569" on="0"/>
        <pt x="347" y="585" on="0"/>
        <pt x="302" y="589" on="0"/>
        <pt x="291" y="589" on="1"/>
        <pt x="252" y="589" on="0"/>
        <pt x="193" y="548" on="0"/>
        <pt x="158" y="500" on="1"/>
        <pt x="116" y="441" on="0"/>
        <pt x="90" y="363" on="0"/>
        <pt x="90" y="331" on="1"/>
        <pt x="90" y="284" on="0"/>
        <pt x="136" y="192" on="0"/>
        <pt x="187" y="136" on="1"/>
        <pt x="216" y="104" on="0"/>
        <pt x="260" y="64" on="0"/>
        <pt x="297" y="43" on="0"/>
        <pt x="332" y="36" on="0"/>
        <pt x="351" y="36" on="1"/>
        <pt x="405" y="36" on="0"/>
        <pt x="464" y="52" on="0"/>
        <pt x="491" y="74" on="0"/>
        <pt x="495" y="100" on="0"/>
        <pt x="495" y="110" on="1"/>
        <pt x="528" y="110" on="1"/>
        <pt x="528" y="98" on="0"/>
        <pt x="526" y="74" on="0"/>
        <pt x="514" y="49" on="0"/>
        <pt x="489" y="24" on="0"/>
        <pt x="465" y="13" on="1"/>
        <pt x="449" y="6" on="0"/>
        <pt x="412" y="-3" on="0"/>
        <pt x="375" y="-9" on="0"/>
        <pt x="341" y="-11" on="0"/>
        <pt x="329" y="-11" on="1"/>
        <pt x="297" y="-11" on="0"/>
        <pt x="242" y="8" on="0"/>
        <pt x="192" y="39" on="0"/>
        <pt x="147" y="80" on="0"/>
        <pt x="126" y="102" on="1"/>
        <pt x="113" y="116" on="0"/>
        <pt x="76" y="162" on="0"/>
        <pt x="42" y="224" on="0"/>
        <pt x="18" y="297" on="0"/>
        <pt x="18" y="338" on="1"/>
        <pt x="18" y="383" on="0"/>
        <pt x="57" y="488" on="0"/>
        <pt x="124" y="577" on="0"/>
        <pt x="213" y="636" on="0"/>
        <pt x="263" y="636" on="1"/>
        <pt x="277" y="636" on="0"/>
        <pt x="317" y="632" on="0"/>
        <pt x="360" y="623" on="0"/>
        <pt x="404" y="607" on="0"/>
        <pt x="422" y="594" on="1"/>
        <pt x="448" y="620" on="1"/>
        <pt x="451" y="624" on="0"/>
        <pt x="454" y="629" on="0"/>
        <pt x="462" y="636" on="1"/>
        <pt x="475" y="636" on="1"/>
      </contour>
    </TTGlyph>
    <TTGlyph name="D" xMin="21" yMin="0" xMax="521" yMax="625">
      <contour>
        <pt x="237" y="625" on="1"/>
        <pt x="257" y="625" on="0"/>
        <pt x="298" y="616" on="0"/>
        <pt x="345" y="590" on="0"/>
        <pt x="397" y="543" on="0"/>
        <pt x="428" y="505" on="1"/>
        <pt x="475" y="448" on="0"/>
        <pt x="521" y="334" on="0"/>
        <pt x="521" y="282" on="1"/>
        <pt x="521" y="272" on="0"/>
        <pt x="518" y="235" on="0"/>
        <pt x="504" y="185" on="0"/>
        <pt x="474" y="123" on="0"/>
        <pt x="448" y="88" on="1"/>
        <pt x="424" y="55" on="0"/>
        <pt x="379" y="20" on="0"/>
        <pt x="341" y="3" on="0"/>
        <pt x="310" y="0" on="0"/>
        <pt x="299" y="0" on="1"/>
        <pt x="109" y="0" on="1"/>
        <pt x="91" y="0" on="0"/>
        <pt x="78" y="10" on="0"/>
        <pt x="78" y="39" on="1"/>
        <pt x="78" y="42" on="0"/>
        <pt x="79" y="50" on="0"/>
        <pt x="83" y="53" on="1"/>
        <pt x="87" y="56" on="0"/>
        <pt x="86" y="72" on="0"/>
        <pt x="86" y="73" on="1"/>
        <pt x="38" y="555" on="1"/>
        <pt x="36" y="561" on="0"/>
        <pt x="36" y="569" on="1"/>
        <pt x="29" y="573" on="0"/>
        <pt x="21" y="584" on="0"/>
        <pt x="21" y="608" on="1"/>
        <pt x="21" y="621" on="0"/>
        <pt x="35" y="625" on="0"/>
        <pt x="49" y="625" on="1"/>
      </contour>
      <contour>
        <pt x="158" y="53" on="1"/>
        <pt x="159" y="52" on="0"/>
        <pt x="162" y="50" on="0"/>
        <pt x="163" y="47" on="1"/>
        <pt x="274" y="47" on="1"/>
        <pt x="289" y="47" on="0"/>
        <pt x="314" y="52" on="0"/>
        <pt x="341" y="68" on="0"/>
        <pt x="369" y="102" on="0"/>
        <pt x="387" y="130" on="1"/>
        <pt x="416" y="175" on="0"/>
        <pt x="445" y="247" on="0"/>
        <pt x="445" y="288" on="1"/>
        <pt x="445" y="346" on="0"/>
        <pt x="388" y="446" on="0"/>
        <pt x="346" y="498" on="1"/>
        <pt x="322" y="528" on="0"/>
        <pt x="285" y="561" on="0"/>
        <pt x="256" y="576" on="0"/>
        <pt x="232" y="578" on="0"/>
        <pt x="221" y="578" on="1"/>
        <pt x="109" y="578" on="1"/>
        <pt x="107" y="572" on="0"/>
        <pt x="106" y="568" on="0"/>
        <pt x="107" y="567" on="1"/>
        <pt x="107" y="556" on="1"/>
      </contour>
    </TTGlyph>
    <TTGlyph name="E" xMin="23" yMin="0" xMax="581" yMax="628">
      <contour>
        <pt x="156" y="56" on="1"/>
        <pt x="331" y="56" on="1"/>
        <pt x="335" y="56" on="0"/>
        <pt x="363" y="57" on="0"/>
        <pt x="387" y="60" on="1"/>
        <pt x="405" y="62" on="0"/>
        <pt x="427" y="65" on="0"/>
        <pt x="442" y="66" on="0"/>
        <pt x="451" y="66" on="0"/>
        <pt x="456" y="66" on="1"/>
        <pt x="475" y="66" on="0"/>
        <pt x="492" y="63" on="0"/>
        <pt x="496" y="63" on="1"/>
        <pt x="497" y="63" on="0"/>
        <pt x="510" y="65" on="0"/>
        <pt x="510" y="71" on="1"/>
        <pt x="510" y="76" on="0"/>
        <pt x="514" y="88" on="0"/>
        <pt x="526" y="88" on="1"/>
        <pt x="534" y="88" on="0"/>
        <pt x="539" y="83" on="0"/>
        <pt x="544" y="75" on="1"/>
        <pt x="561" y="50" on="0"/>
        <pt x="581" y="19" on="0"/>
        <pt x="581" y="14" on="1"/>
        <pt x="581" y="3" on="0"/>
        <pt x="564" y="0" on="0"/>
        <pt x="553" y="0" on="1"/>
        <pt x="111" y="0" on="1"/>
        <pt x="93" y="0" on="0"/>
        <pt x="80" y="10" on="0"/>
        <pt x="80" y="39" on="1"/>
        <pt x="80" y="42" on="0"/>
        <pt x="81" y="50" on="0"/>
        <pt x="85" y="53" on="1"/>
        <pt x="89" y="56" on="0"/>
        <pt x="88" y="72" on="0"/>
        <pt x="88" y="73" on="1"/>
        <pt x="38" y="572" on="1"/>
        <pt x="31" y="575" on="0"/>
        <pt x="23" y="588" on="0"/>
        <pt x="23" y="614" on="1"/>
        <pt x="23" y="625" on="0"/>
        <pt x="39" y="628" on="0"/>
        <pt x="50" y="628" on="1"/>
        <pt x="460" y="628" on="1"/>
        <pt x="471" y="628" on="0"/>
        <pt x="488" y="625" on="0"/>
        <pt x="488" y="614" on="1"/>
        <pt x="488" y="612" on="0"/>
        <pt x="485" y="597" on="0"/>
        <pt x="478" y="574" on="1"/>
        <pt x="472" y="554" on="0"/>
        <pt x="466" y="544" on="0"/>
        <pt x="456" y="544" on="1"/>
        <pt x="442" y="544" on="0"/>
        <pt x="439" y="557" on="1"/>
        <pt x="438" y="560" on="0"/>
        <pt x="433" y="566" on="0"/>
        <pt x="422" y="566" on="1"/>
        <pt x="417" y="566" on="0"/>
        <pt x="391" y="562" on="0"/>
        <pt x="379" y="562" on="1"/>
        <pt x="373" y="562" on="0"/>
        <pt x="364" y="562" on="0"/>
        <pt x="355" y="563" on="0"/>
        <pt x="342" y="565" on="0"/>
        <pt x="331" y="566" on="1"/>
        <pt x="297" y="571" on="0"/>
        <pt x="270" y="572" on="0"/>
        <pt x="262" y="572" on="1"/>
        <pt x="105" y="572" on="1"/>
        <pt x="126" y="357" on="1"/>
        <pt x="212" y="357" on="1"/>
        <pt x="225" y="357" on="0"/>
        <pt x="243" y="359" on="0"/>
        <pt x="259" y="360" on="0"/>
        <pt x="277" y="362" on="0"/>
        <pt x="290" y="362" on="1"/>
        <pt x="298" y="362" on="0"/>
        <pt x="316" y="362" on="0"/>
        <pt x="324" y="361" on="1"/>
        <pt x="326" y="374" on="0"/>
        <pt x="340" y="374" on="1"/>
        <pt x="351" y="374" on="0"/>
        <pt x="357" y="361" on="0"/>
        <pt x="359" y="341" on="1"/>
        <pt x="359" y="338" on="0"/>
        <pt x="361" y="324" on="0"/>
        <pt x="363" y="309" on="0"/>
        <pt x="364" y="296" on="0"/>
        <pt x="364" y="294" on="1"/>
        <pt x="364" y="279" on="0"/>
        <pt x="347" y="279" on="1"/>
        <pt x="334" y="279" on="0"/>
        <pt x="331" y="291" on="1"/>
        <pt x="329" y="292" on="1"/>
        <pt x="321" y="291" on="0"/>
        <pt x="302" y="291" on="0"/>
        <pt x="294" y="291" on="1"/>
        <pt x="282" y="291" on="0"/>
        <pt x="263" y="293" on="0"/>
        <pt x="246" y="294" on="0"/>
        <pt x="228" y="296" on="0"/>
        <pt x="215" y="296" on="1"/>
        <pt x="132" y="296" on="1"/>
      </contour>
    </TTGlyph>
    <TTGlyph name="F" xMin="23" yMin="0" xMax="477" yMax="628">
      <contour>
        <pt x="156" y="56" on="1"/>
        <pt x="160" y="55" on="0"/>
        <pt x="167" y="52" on="0"/>
        <pt x="171" y="45" on="0"/>
        <pt x="174" y="31" on="0"/>
        <pt x="174" y="18" on="1"/>
        <pt x="174" y="14" on="0"/>
        <pt x="171" y="1" on="0"/>
        <pt x="161" y="0" on="1"/>
        <pt x="151" y="10" on="0"/>
        <pt x="130" y="14" on="0"/>
        <pt x="128" y="14" on="1"/>
        <pt x="112" y="14" on="0"/>
        <pt x="100" y="4" on="0"/>
        <pt x="97" y="0" on="1"/>
        <pt x="89" y="2" on="0"/>
        <pt x="80" y="14" on="0"/>
        <pt x="80" y="39" on="1"/>
        <pt x="80" y="42" on="0"/>
        <pt x="81" y="50" on="0"/>
        <pt x="85" y="53" on="1"/>
        <pt x="89" y="56" on="0"/>
        <pt x="88" y="72" on="0"/>
        <pt x="88" y="73" on="1"/>
        <pt x="38" y="572" on="1"/>
        <pt x="31" y="575" on="0"/>
        <pt x="23" y="588" on="0"/>
        <pt x="23" y="614" on="1"/>
        <pt x="23" y="625" on="0"/>
        <pt x="39" y="628" on="0"/>
        <pt x="50" y="628" on="1"/>
        <pt x="449" y="628" on="1"/>
        <pt x="460" y="628" on="0"/>
        <pt x="477" y="625" on="0"/>
        <pt x="477" y="614" on="1"/>
        <pt x="477" y="612" on="0"/>
        <pt x="474" y="597" on="0"/>
        <pt x="467" y="574" on="1"/>
        <pt x="461" y="554" on="0"/>
        <pt x="455" y="544" on="0"/>
        <pt x="445" y="544" on="1"/>
        <pt x="431" y="544" on="0"/>
        <pt x="428" y="557" on="1"/>
        <pt x="427" y="561" on="0"/>
        <pt x="422" y="566" on="0"/>
        <pt x="411" y="566" on="1"/>
        <pt x="407" y="566" on="0"/>
        <pt x="402" y="565" on="0"/>
        <pt x="395" y="564" on="0"/>
        <pt x="382" y="563" on="0"/>
        <pt x="371" y="563" on="1"/>
        <pt x="362" y="563" on="0"/>
        <pt x="342" y="564" on="0"/>
        <pt x="316" y="567" on="1"/>
        <pt x="287" y="571" on="0"/>
        <pt x="266" y="572" on="0"/>
        <pt x="256" y="572" on="1"/>
        <pt x="105" y="572" on="1"/>
        <pt x="127" y="345" on="1"/>
        <pt x="211" y="345" on="1"/>
        <pt x="224" y="345" on="0"/>
        <pt x="242" y="347" on="0"/>
        <pt x="259" y="348" on="0"/>
        <pt x="276" y="350" on="0"/>
        <pt x="288" y="350" on="1"/>
        <pt x="296" y="350" on="0"/>
        <pt x="313" y="350" on="0"/>
        <pt x="321" y="349" on="1"/>
        <pt x="323" y="357" on="0"/>
        <pt x="333" y="362" on="0"/>
        <pt x="338" y="362" on="1"/>
        <pt x="349" y="362" on="0"/>
        <pt x="354" y="350" on="0"/>
        <pt x="356" y="330" on="1"/>
        <pt x="356" y="327" on="0"/>
        <pt x="358" y="313" on="0"/>
        <pt x="360" y="298" on="0"/>
        <pt x="361" y="285" on="0"/>
        <pt x="361" y="283" on="1"/>
        <pt x="361" y="267" on="0"/>
        <pt x="344" y="267" on="1"/>
        <pt x="331" y="267" on="0"/>
        <pt x="328" y="279" on="1"/>
        <pt x="326" y="280" on="0"/>
        <pt x="320" y="280" on="0"/>
        <pt x="318" y="280" on="1"/>
        <pt x="312" y="280" on="0"/>
        <pt x="299" y="279" on="0"/>
        <pt x="293" y="279" on="1"/>
        <pt x="281" y="279" on="0"/>
        <pt x="262" y="281" on="0"/>
        <pt x="245" y="282" on="0"/>
        <pt x="227" y="284" on="0"/>
        <pt x="214" y="284" on="1"/>
        <pt x="134" y="284" on="1"/>
      </contour>
    </TTGlyph>
    <TTGlyph name="G" xMin="18" yMin="-11" xMax="578" yMax="636">
      <contour>
        <pt x="539" y="0" on="1"/>
        <pt x="531" y="5" on="0"/>
        <pt x="506" y="20" on="0"/>
        <pt x="493" y="32" on="1"/>
        <pt x="478" y="16" on="0"/>
        <pt x="431" y="-2" on="0"/>
        <pt x="382" y="-10" on="0"/>
        <pt x="341" y="-11" on="0"/>
        <pt x="332" y="-11" on="1"/>
        <pt x="276" y="-11" on="0"/>
        <pt x="183" y="43" on="0"/>
        <pt x="126" y="102" on="1"/>
        <pt x="113" y="116" on="0"/>
        <pt x="76" y="162" on="0"/>
        <pt x="42" y="224" on="0"/>
        <pt x="18" y="297" on="0"/>
        <pt x="18" y="338" on="1"/>
        <pt x="18" y="383" on="0"/>
        <pt x="57" y="488" on="0"/>
        <pt x="124" y="577" on="0"/>
        <pt x="213" y="636" on="0"/>
        <pt x="263" y="636" on="1"/>
        <pt x="277" y="636" on="0"/>
        <pt x="317" y="632" on="0"/>
        <pt x="360" y="623" on="0"/>
        <pt x="404" y="607" on="0"/>
        <pt x="422" y="594" on="1"/>
        <pt x="448" y="620" on="1"/>
        <pt x="451" y="624" on="0"/>
        <pt x="454" y="629" on="0"/>
        <pt x="462" y="636" on="1"/>
        <pt x="475" y="636" on="1"/>
        <pt x="488" y="509" on="1"/>
        <pt x="444" y="509" on="1"/>
        <pt x="437" y="537" on="0"/>
        <pt x="395" y="569" on="0"/>
        <pt x="347" y="585" on="0"/>
        <pt x="302" y="589" on="0"/>
        <pt x="291" y="589" on="1"/>
        <pt x="252" y="589" on="0"/>
        <pt x="193" y="548" on="0"/>
        <pt x="158" y="500" on="1"/>
        <pt x="116" y="441" on="0"/>
        <pt x="90" y="363" on="0"/>
        <pt x="90" y="331" on="1"/>
        <pt x="90" y="284" on="0"/>
        <pt x="136" y="192" on="0"/>
        <pt x="187" y="136" on="1"/>
        <pt x="219" y="100" on="0"/>
        <pt x="266" y="60" on="0"/>
        <pt x="304" y="40" on="0"/>
        <pt x="338" y="36" on="0"/>
        <pt x="356" y="36" on="1"/>
        <pt x="404" y="36" on="0"/>
        <pt x="464" y="52" on="0"/>
        <pt x="464" y="79" on="1"/>
        <pt x="464" y="80" on="0"/>
        <pt x="462" y="98" on="0"/>
        <pt x="460" y="119" on="0"/>
        <pt x="458" y="138" on="0"/>
        <pt x="458" y="141" on="1"/>
        <pt x="456" y="146" on="0"/>
        <pt x="421" y="148" on="0"/>
        <pt x="406" y="148" on="1"/>
        <pt x="384" y="148" on="1"/>
        <pt x="367" y="148" on="0"/>
        <pt x="353" y="158" on="0"/>
        <pt x="353" y="188" on="1"/>
        <pt x="353" y="199" on="0"/>
        <pt x="364" y="203" on="0"/>
        <pt x="366" y="203" on="1"/>
        <pt x="369" y="203" on="0"/>
        <pt x="374" y="202" on="1"/>
        <pt x="419" y="193" on="0"/>
        <pt x="477" y="190" on="0"/>
        <pt x="482" y="190" on="1"/>
        <pt x="490" y="190" on="0"/>
        <pt x="530" y="193" on="0"/>
        <pt x="555" y="202" on="1"/>
        <pt x="557" y="203" on="0"/>
        <pt x="560" y="204" on="0"/>
        <pt x="562" y="204" on="1"/>
        <pt x="570" y="204" on="0"/>
        <pt x="578" y="186" on="0"/>
        <pt x="578" y="165" on="1"/>
        <pt x="578" y="154" on="0"/>
        <pt x="568" y="149" on="0"/>
        <pt x="559" y="148" on="1"/>
        <pt x="551" y="147" on="0"/>
        <pt x="532" y="148" on="0"/>
        <pt x="524" y="147" on="1"/>
      </contour>
    </TTGlyph>
    <TTGlyph name="Gamma" xMin="23" yMin="0" xMax="454" yMax="628">
      <contour>
        <pt x="156" y="56" on="1"/>
        <pt x="160" y="55" on="0"/>
        <pt x="167" y="52" on="0"/>
        <pt x="171" y="45" on="0"/>
        <pt x="174" y="31" on="0"/>
        <pt x="174" y="18" on="1"/>
        <pt x="174" y="14" on="0"/>
        <pt x="171" y="1" on="0"/>
        <pt x="161" y="0" on="1"/>
        <pt x="151" y="10" on="0"/>
        <pt x="130" y="14" on="0"/>
        <pt x="128" y="14" on="1"/>
        <pt x="112" y="14" on="0"/>
        <pt x="100" y="4" on="0"/>
        <pt x="97" y="0" on="1"/>
        <pt x="89" y="2" on="0"/>
        <pt x="80" y="14" on="0"/>
        <pt x="80" y="39" on="1"/>
        <pt x="80" y="42" on="0"/>
        <pt x="81" y="50" on="0"/>
        <pt x="85" y="53" on="1"/>
        <pt x="89" y="56" on="0"/>
        <pt x="88" y="72" on="0"/>
        <pt x="88" y="73" on="1"/>
        <pt x="38" y="572" on="1"/>
        <pt x="31" y="575" on="0"/>
        <pt x="23" y="588" on="0"/>
        <pt x="23" y="614" on="1"/>
        <pt x="23" y="625" on="0"/>
        <pt x="39" y="628" on="0"/>
        <pt x="50" y="628" on="1"/>
        <pt x="426" y="628" on="1"/>
        <pt x="437" y="628" on="0"/>
        <pt x="454" y="625" on="0"/>
        <pt x="454" y="614" on="1"/>
        <pt x="454" y="612" on="0"/>
        <pt x="451" y="597" on="0"/>
        <pt x="444" y="574" on="1"/>
        <pt x="438" y="554" on="0"/>
        <pt x="432" y="544" on="0"/>
        <pt x="422" y="544" on="1"/>
        <pt x="405" y="544" on="0"/>
        <pt x="405" y="562" on="1"/>
        <pt x="401" y="564" on="0"/>
        <pt x="391" y="565" on="0"/>
        <pt x="387" y="565" on="1"/>
        <pt x="379" y="565" on="0"/>
        <pt x="364" y="564" on="0"/>
        <pt x="356" y="564" on="1"/>
        <pt x="345" y="564" on="0"/>
        <pt x="323" y="565" on="0"/>
        <pt x="297" y="568" on="1"/>
        <pt x="274" y="571" on="0"/>
        <pt x="250" y="572" on="0"/>
        <pt x="245" y="572" on="1"/>
        <pt x="105" y="572" on="1"/>
      </contour>
    </TTGlyph>
    <TTGlyph name="H" xMin="23" yMin="0" xMax="437" yMax="625">
      <contour>
        <pt x="421" y="56" on="1"/>
        <pt x="428" y="53" on="0"/>
        <pt x="437" y="41" on="0"/>
        <pt x="437" y="15" on="1"/>
        <pt x="437" y="7" on="0"/>
        <pt x="428" y="1" on="0"/>
        <pt x="426" y="1" on="1"/>
        <pt x="424" y="1" on="0"/>
        <pt x="421" y="3" on="0"/>
        <pt x="419" y="4" on="1"/>
        <pt x="411" y="11" on="0"/>
        <pt x="396" y="14" on="0"/>
        <pt x="393" y="14" on="1"/>
        <pt x="377" y="14" on="0"/>
        <pt x="365" y="4" on="0"/>
        <pt x="362" y="0" on="1"/>
        <pt x="354" y="2" on="0"/>
        <pt x="345" y="14" on="0"/>
        <pt x="345" y="39" on="1"/>
        <pt x="345" y="42" on="0"/>
        <pt x="346" y="50" on="0"/>
        <pt x="350" y="53" on="1"/>
        <pt x="354" y="56" on="0"/>
        <pt x="353" y="69" on="0"/>
        <pt x="353" y="73" on="1"/>
        <pt x="331" y="295" on="1"/>
        <pt x="133" y="295" on="1"/>
        <pt x="156" y="56" on="1"/>
        <pt x="163" y="53" on="0"/>
        <pt x="172" y="41" on="0"/>
        <pt x="172" y="15" on="1"/>
        <pt x="172" y="7" on="0"/>
        <pt x="163" y="1" on="0"/>
        <pt x="161" y="1" on="1"/>
        <pt x="159" y="1" on="0"/>
        <pt x="156" y="3" on="0"/>
        <pt x="154" y="4" on="1"/>
        <pt x="146" y="11" on="0"/>
        <pt x="131" y="14" on="0"/>
        <pt x="128" y="14" on="1"/>
        <pt x="112" y="14" on="0"/>
        <pt x="100" y="4" on="0"/>
        <pt x="97" y="0" on="1"/>
        <pt x="89" y="2" on="0"/>
        <pt x="80" y="14" on="0"/>
        <pt x="80" y="39" on="1"/>
        <pt x="80" y="42" on="0"/>
        <pt x="81" y="50" on="0"/>
        <pt x="85" y="53" on="1"/>
        <pt x="89" y="56" on="0"/>
        <pt x="88" y="72" on="0"/>
        <pt x="88" y="73" on="1"/>
        <pt x="38" y="569" on="1"/>
        <pt x="31" y="573" on="0"/>
        <pt x="23" y="584" on="0"/>
        <pt x="23" y="608" on="1"/>
        <pt x="23" y="610" on="0"/>
        <pt x="26" y="623" on="0"/>
        <pt x="36" y="625" on="1"/>
        <pt x="44" y="616" on="0"/>
        <pt x="63" y="611" on="0"/>
        <pt x="67" y="611" on="1"/>
        <pt x="82" y="611" on="0"/>
        <pt x="92" y="620" on="1"/>
        <pt x="96" y="624" on="0"/>
        <pt x="99" y="624" on="1"/>
        <pt x="105" y="624" on="0"/>
        <pt x="112" y="614" on="0"/>
        <pt x="115" y="601" on="0"/>
        <pt x="115" y="588" on="0"/>
        <pt x="115" y="585" on="1"/>
        <pt x="115" y="576" on="0"/>
        <pt x="107" y="570" on="0"/>
        <pt x="105" y="569" on="1"/>
        <pt x="126" y="356" on="1"/>
        <pt x="324" y="356" on="1"/>
        <pt x="303" y="569" on="1"/>
        <pt x="296" y="573" on="0"/>
        <pt x="288" y="584" on="0"/>
        <pt x="288" y="608" on="1"/>
        <pt x="288" y="610" on="0"/>
        <pt x="291" y="623" on="0"/>
        <pt x="301" y="625" on="1"/>
        <pt x="309" y="616" on="0"/>
        <pt x="328" y="611" on="0"/>
        <pt x="332" y="611" on="1"/>
        <pt x="347" y="611" on="0"/>
        <pt x="357" y="620" on="1"/>
        <pt x="361" y="624" on="0"/>
        <pt x="364" y="624" on="1"/>
        <pt x="370" y="624" on="0"/>
        <pt x="377" y="614" on="0"/>
        <pt x="380" y="601" on="0"/>
        <pt x="380" y="588" on="0"/>
        <pt x="380" y="585" on="1"/>
        <pt x="380" y="576" on="0"/>
        <pt x="372" y="570" on="0"/>
        <pt x="370" y="569" on="1"/>
      </contour>
    </TTGlyph>
    <TTGlyph name="I" xMin="22" yMin="0" xMax="172" yMax="625">
      <contour>
        <pt x="156" y="56" on="1"/>
        <pt x="164" y="53" on="0"/>
        <pt x="172" y="42" on="0"/>
        <pt x="172" y="17" on="1"/>
        <pt x="172" y="14" on="0"/>
        <pt x="169" y="2" on="0"/>
        <pt x="159" y="0" on="1"/>
        <pt x="151" y="8" on="0"/>
        <pt x="133" y="14" on="0"/>
        <pt x="127" y="14" on="1"/>
        <pt x="112" y="14" on="0"/>
        <pt x="102" y="4" on="1"/>
        <pt x="98" y="1" on="0"/>
        <pt x="95" y="1" on="1"/>
        <pt x="89" y="1" on="0"/>
        <pt x="83" y="11" on="0"/>
        <pt x="80" y="24" on="0"/>
        <pt x="79" y="37" on="0"/>
        <pt x="79" y="40" on="1"/>
        <pt x="79" y="48" on="0"/>
        <pt x="86" y="54" on="1"/>
        <pt x="89" y="56" on="0"/>
        <pt x="88" y="71" on="0"/>
        <pt x="88" y="73" on="1"/>
        <pt x="38" y="569" on="1"/>
        <pt x="31" y="572" on="0"/>
        <pt x="22" y="584" on="0"/>
        <pt x="22" y="610" on="1"/>
        <pt x="22" y="617" on="0"/>
        <pt x="30" y="624" on="0"/>
        <pt x="34" y="624" on="1"/>
        <pt x="35" y="624" on="0"/>
        <pt x="38" y="622" on="0"/>
        <pt x="40" y="621" on="1"/>
        <pt x="48" y="615" on="0"/>
        <pt x="64" y="611" on="0"/>
        <pt x="67" y="611" on="1"/>
        <pt x="83" y="611" on="0"/>
        <pt x="95" y="621" on="0"/>
        <pt x="98" y="625" on="1"/>
        <pt x="102" y="624" on="0"/>
        <pt x="108" y="621" on="0"/>
        <pt x="113" y="613" on="0"/>
        <pt x="115" y="599" on="0"/>
        <pt x="115" y="586" on="1"/>
        <pt x="115" y="581" on="0"/>
        <pt x="111" y="571" on="0"/>
        <pt x="105" y="569" on="1"/>
      </contour>
    </TTGlyph>
    <TTGlyph name="J" xMin="27" yMin="-11" xMax="303" yMax="625">
      <contour>
        <pt x="301" y="151" on="1"/>
        <pt x="303" y="136" on="0"/>
        <pt x="303" y="128" on="0"/>
        <pt x="303" y="122" on="1"/>
        <pt x="303" y="100" on="0"/>
        <pt x="280" y="53" on="0"/>
        <pt x="243" y="14" on="0"/>
        <pt x="195" y="-11" on="0"/>
        <pt x="170" y="-11" on="1"/>
        <pt x="140" y="-11" on="0"/>
        <pt x="88" y="10" on="0"/>
        <pt x="49" y="45" on="0"/>
        <pt x="27" y="88" on="0"/>
        <pt x="27" y="109" on="1"/>
        <pt x="27" y="129" on="0"/>
        <pt x="51" y="149" on="0"/>
        <pt x="68" y="149" on="1"/>
        <pt x="91" y="149" on="0"/>
        <pt x="118" y="119" on="0"/>
        <pt x="118" y="99" on="1"/>
        <pt x="118" y="91" on="0"/>
        <pt x="109" y="68" on="0"/>
        <pt x="92" y="62" on="1"/>
        <pt x="102" y="49" on="0"/>
        <pt x="127" y="35" on="0"/>
        <pt x="149" y="29" on="0"/>
        <pt x="164" y="28" on="0"/>
        <pt x="165" y="28" on="1"/>
        <pt x="180" y="28" on="0"/>
        <pt x="205" y="47" on="0"/>
        <pt x="223" y="76" on="0"/>
        <pt x="233" y="109" on="0"/>
        <pt x="233" y="123" on="1"/>
        <pt x="233" y="128" on="0"/>
        <pt x="233" y="136" on="0"/>
        <pt x="231" y="151" on="1"/>
        <pt x="189" y="569" on="1"/>
        <pt x="185" y="570" on="0"/>
        <pt x="178" y="572" on="0"/>
        <pt x="174" y="580" on="0"/>
        <pt x="171" y="596" on="0"/>
        <pt x="171" y="610" on="1"/>
        <pt x="171" y="623" on="0"/>
        <pt x="184" y="625" on="1"/>
        <pt x="195" y="615" on="0"/>
        <pt x="217" y="611" on="0"/>
        <pt x="219" y="611" on="1"/>
        <pt x="234" y="611" on="0"/>
        <pt x="244" y="621" on="1"/>
        <pt x="247" y="624" on="0"/>
        <pt x="251" y="624" on="1"/>
        <pt x="257" y="624" on="0"/>
        <pt x="263" y="614" on="0"/>
        <pt x="266" y="600" on="0"/>
        <pt x="266" y="588" on="0"/>
        <pt x="266" y="585" on="1"/>
        <pt x="266" y="578" on="0"/>
        <pt x="262" y="573" on="1"/>
        <pt x="259" y="570" on="0"/>
        <pt x="259" y="567" on="1"/>
        <pt x="261" y="554" on="1"/>
      </contour>
    </TTGlyph>
    <TTGlyph name="K" xMin="23" yMin="0" xMax="548" yMax="625">
      <contour>
        <pt x="478" y="94" on="1"/>
        <pt x="487" y="80" on="0"/>
        <pt x="501" y="65" on="0"/>
        <pt x="511" y="58" on="0"/>
        <pt x="522" y="56" on="0"/>
        <pt x="528" y="56" on="1"/>
        <pt x="532" y="56" on="0"/>
        <pt x="539" y="54" on="0"/>
        <pt x="545" y="47" on="0"/>
        <pt x="548" y="31" on="0"/>
        <pt x="548" y="17" on="1"/>
        <pt x="548" y="12" on="0"/>
        <pt x="547" y="7" on="0"/>
        <pt x="543" y="3" on="1"/>
        <pt x="543" y="1" on="1"/>
        <pt x="542" y="0" on="1"/>
        <pt x="541" y="1" on="0"/>
        <pt x="537" y="0" on="0"/>
        <pt x="536" y="1" on="1"/>
        <pt x="519" y="11" on="0"/>
        <pt x="502" y="14" on="0"/>
        <pt x="497" y="14" on="1"/>
        <pt x="492" y="14" on="0"/>
        <pt x="475" y="11" on="0"/>
        <pt x="465" y="5" on="1"/>
        <pt x="461" y="2" on="0"/>
        <pt x="458" y="1" on="0"/>
        <pt x="456" y="1" on="1"/>
        <pt x="445" y="1" on="0"/>
        <pt x="442" y="17" on="0"/>
        <pt x="442" y="19" on="1"/>
        <pt x="228" y="328" on="1"/>
        <pt x="140" y="220" on="1"/>
        <pt x="156" y="56" on="1"/>
        <pt x="163" y="53" on="0"/>
        <pt x="172" y="41" on="0"/>
        <pt x="172" y="15" on="1"/>
        <pt x="172" y="7" on="0"/>
        <pt x="163" y="1" on="0"/>
        <pt x="161" y="1" on="1"/>
        <pt x="159" y="1" on="0"/>
        <pt x="156" y="3" on="0"/>
        <pt x="154" y="4" on="1"/>
        <pt x="146" y="11" on="0"/>
        <pt x="131" y="14" on="0"/>
        <pt x="128" y="14" on="1"/>
        <pt x="112" y="14" on="0"/>
        <pt x="100" y="4" on="0"/>
        <pt x="97" y="0" on="1"/>
        <pt x="89" y="2" on="0"/>
        <pt x="80" y="14" on="0"/>
        <pt x="80" y="39" on="1"/>
        <pt x="80" y="44" on="0"/>
        <pt x="84" y="54" on="0"/>
        <pt x="89" y="56" on="1"/>
        <pt x="38" y="569" on="1"/>
        <pt x="31" y="573" on="0"/>
        <pt x="23" y="584" on="0"/>
        <pt x="23" y="608" on="1"/>
        <pt x="23" y="610" on="0"/>
        <pt x="26" y="623" on="0"/>
        <pt x="36" y="625" on="1"/>
        <pt x="44" y="616" on="0"/>
        <pt x="63" y="611" on="0"/>
        <pt x="67" y="611" on="1"/>
        <pt x="82" y="611" on="0"/>
        <pt x="92" y="620" on="1"/>
        <pt x="96" y="624" on="0"/>
        <pt x="99" y="624" on="1"/>
        <pt x="105" y="624" on="0"/>
        <pt x="112" y="614" on="0"/>
        <pt x="115" y="601" on="0"/>
        <pt x="115" y="588" on="0"/>
        <pt x="115" y="585" on="1"/>
        <pt x="115" y="576" on="0"/>
        <pt x="107" y="570" on="0"/>
        <pt x="105" y="569" on="1"/>
        <pt x="135" y="269" on="1"/>
        <pt x="413" y="611" on="1"/>
        <pt x="413" y="613" on="0"/>
        <pt x="417" y="623" on="0"/>
        <pt x="425" y="625" on="1"/>
        <pt x="434" y="611" on="0"/>
        <pt x="448" y="611" on="1"/>
        <pt x="455" y="611" on="0"/>
        <pt x="461" y="620" on="0"/>
        <pt x="462" y="625" on="1"/>
        <pt x="471" y="623" on="0"/>
        <pt x="480" y="612" on="0"/>
        <pt x="480" y="586" on="1"/>
        <pt x="480" y="575" on="0"/>
        <pt x="470" y="570" on="0"/>
        <pt x="461" y="569" on="1"/>
        <pt x="445" y="567" on="0"/>
        <pt x="421" y="559" on="0"/>
        <pt x="407" y="547" on="1"/>
        <pt x="404" y="544" on="0"/>
        <pt x="368" y="501" on="0"/>
        <pt x="324" y="447" on="0"/>
        <pt x="283" y="397" on="0"/>
        <pt x="275" y="386" on="1"/>
      </contour>
    </TTGlyph>
    <TTGlyph name="L" xMin="23" yMin="0" xMax="514" yMax="625">
      <contour>
        <pt x="156" y="56" on="1"/>
        <pt x="297" y="56" on="1"/>
        <pt x="303" y="56" on="0"/>
        <pt x="326" y="57" on="0"/>
        <pt x="343" y="60" on="1"/>
        <pt x="374" y="65" on="0"/>
        <pt x="394" y="67" on="0"/>
        <pt x="404" y="67" on="1"/>
        <pt x="413" y="67" on="0"/>
        <pt x="422" y="66" on="0"/>
        <pt x="426" y="66" on="0"/>
        <pt x="430" y="65" on="0"/>
        <pt x="436" y="65" on="1"/>
        <pt x="442" y="65" on="0"/>
        <pt x="453" y="66" on="0"/>
        <pt x="455" y="68" on="1"/>
        <pt x="455" y="74" on="1"/>
        <pt x="453" y="77" on="0"/>
        <pt x="459" y="88" on="0"/>
        <pt x="470" y="88" on="1"/>
        <pt x="477" y="88" on="0"/>
        <pt x="483" y="84" on="0"/>
        <pt x="488" y="75" on="1"/>
        <pt x="490" y="71" on="0"/>
        <pt x="498" y="53" on="0"/>
        <pt x="507" y="34" on="0"/>
        <pt x="514" y="17" on="0"/>
        <pt x="514" y="14" on="1"/>
        <pt x="514" y="3" on="0"/>
        <pt x="497" y="0" on="0"/>
        <pt x="486" y="0" on="1"/>
        <pt x="111" y="0" on="1"/>
        <pt x="93" y="0" on="0"/>
        <pt x="80" y="10" on="0"/>
        <pt x="80" y="39" on="1"/>
        <pt x="80" y="42" on="0"/>
        <pt x="81" y="50" on="0"/>
        <pt x="85" y="53" on="1"/>
        <pt x="89" y="56" on="0"/>
        <pt x="88" y="72" on="0"/>
        <pt x="88" y="73" on="1"/>
        <pt x="40" y="555" on="1"/>
        <pt x="38" y="561" on="0"/>
        <pt x="38" y="569" on="1"/>
        <pt x="31" y="573" on="0"/>
        <pt x="23" y="584" on="0"/>
        <pt x="23" y="608" on="1"/>
        <pt x="23" y="610" on="0"/>
        <pt x="26" y="623" on="0"/>
        <pt x="36" y="625" on="1"/>
        <pt x="43" y="617" on="0"/>
        <pt x="61" y="611" on="0"/>
        <pt x="68" y="611" on="1"/>
        <pt x="72" y="611" on="0"/>
        <pt x="73" y="612" on="1"/>
        <pt x="81" y="614" on="0"/>
        <pt x="87" y="615" on="0"/>
        <pt x="94" y="620" on="1"/>
        <pt x="100" y="625" on="1"/>
        <pt x="108" y="623" on="0"/>
        <pt x="117" y="611" on="0"/>
        <pt x="117" y="583" on="1"/>
        <pt x="117" y="582" on="0"/>
        <pt x="115" y="574" on="0"/>
        <pt x="109" y="570" on="1"/>
        <pt x="106" y="569" on="0"/>
        <pt x="106" y="565" on="1"/>
      </contour>
    </TTGlyph>
    <TTGlyph name="Lambda" xMin="24" yMin="0" xMax="492" yMax="663">
      <contour>
        <pt x="458" y="70" on="1"/>
        <pt x="465" y="56" on="1"/>
        <pt x="479" y="56" on="0"/>
        <pt x="492" y="46" on="0"/>
        <pt x="492" y="17" on="1"/>
        <pt x="492" y="13" on="0"/>
        <pt x="491" y="6" on="0"/>
        <pt x="487" y="3" on="1"/>
        <pt x="486" y="1" on="1"/>
        <pt x="485" y="0" on="1"/>
        <pt x="484" y="1" on="0"/>
        <pt x="480" y="1" on="0"/>
        <pt x="479" y="2" on="1"/>
        <pt x="471" y="7" on="0"/>
        <pt x="459" y="14" on="0"/>
        <pt x="449" y="14" on="1"/>
        <pt x="447" y="14" on="0"/>
        <pt x="428" y="11" on="0"/>
        <pt x="420" y="0" on="1"/>
        <pt x="410" y="2" on="0"/>
        <pt x="404" y="9" on="0"/>
        <pt x="402" y="29" on="1"/>
        <pt x="401" y="34" on="0"/>
        <pt x="399" y="43" on="0"/>
        <pt x="392" y="61" on="1"/>
        <pt x="247" y="440" on="1"/>
        <pt x="218" y="515" on="0"/>
        <pt x="191" y="600" on="0"/>
        <pt x="188" y="613" on="1"/>
        <pt x="187" y="613" on="1"/>
        <pt x="187" y="607" on="0"/>
        <pt x="187" y="593" on="0"/>
        <pt x="184" y="568" on="0"/>
        <pt x="177" y="524" on="0"/>
        <pt x="171" y="488" on="1"/>
        <pt x="166" y="453" on="0"/>
        <pt x="155" y="384" on="0"/>
        <pt x="148" y="349" on="1"/>
        <pt x="92" y="55" on="1"/>
        <pt x="90" y="46" on="0"/>
        <pt x="89" y="40" on="0"/>
        <pt x="89" y="38" on="1"/>
        <pt x="91" y="14" on="1"/>
        <pt x="91" y="12" on="0"/>
        <pt x="87" y="2" on="0"/>
        <pt x="80" y="0" on="1"/>
        <pt x="73" y="14" on="0"/>
        <pt x="58" y="14" on="1"/>
        <pt x="50" y="14" on="0"/>
        <pt x="43" y="4" on="0"/>
        <pt x="42" y="0" on="1"/>
        <pt x="34" y="2" on="0"/>
        <pt x="24" y="14" on="0"/>
        <pt x="24" y="40" on="1"/>
        <pt x="24" y="54" on="0"/>
        <pt x="40" y="56" on="1"/>
        <pt x="46" y="62" on="0"/>
        <pt x="50" y="74" on="0"/>
        <pt x="52" y="85" on="1"/>
        <pt x="163" y="663" on="1"/>
        <pt x="226" y="663" on="1"/>
      </contour>
    </TTGlyph>
    <TTGlyph name="M" xMin="19" yMin="0" xMax="575" yMax="625">
      <contour>
        <pt x="325" y="0" on="1"/>
        <pt x="289" y="0" on="1"/>
        <pt x="65" y="571" on="1"/>
        <pt x="64" y="570" on="1"/>
        <pt x="113" y="80" on="1"/>
        <pt x="114" y="72" on="0"/>
        <pt x="115" y="64" on="0"/>
        <pt x="118" y="55" on="1"/>
        <pt x="121" y="52" on="0"/>
        <pt x="122" y="54" on="0"/>
        <pt x="125" y="49" on="1"/>
        <pt x="127" y="45" on="0"/>
        <pt x="131" y="20" on="0"/>
        <pt x="131" y="15" on="1"/>
        <pt x="131" y="3" on="0"/>
        <pt x="118" y="0" on="1"/>
        <pt x="116" y="10" on="0"/>
        <pt x="106" y="13" on="0"/>
        <pt x="105" y="13" on="1"/>
        <pt x="98" y="13" on="0"/>
        <pt x="94" y="5" on="0"/>
        <pt x="94" y="0" on="1"/>
        <pt x="86" y="2" on="0"/>
        <pt x="76" y="13" on="0"/>
        <pt x="76" y="39" on="1"/>
        <pt x="76" y="41" on="0"/>
        <pt x="78" y="52" on="0"/>
        <pt x="83" y="54" on="1"/>
        <pt x="84" y="57" on="0"/>
        <pt x="84" y="66" on="1"/>
        <pt x="36" y="555" on="1"/>
        <pt x="34" y="561" on="0"/>
        <pt x="34" y="569" on="1"/>
        <pt x="27" y="573" on="0"/>
        <pt x="19" y="584" on="0"/>
        <pt x="19" y="608" on="1"/>
        <pt x="19" y="621" on="0"/>
        <pt x="33" y="625" on="0"/>
        <pt x="47" y="625" on="1"/>
        <pt x="122" y="625" on="1"/>
        <pt x="315" y="133" on="1"/>
        <pt x="409" y="625" on="1"/>
        <pt x="487" y="625" on="1"/>
        <pt x="504" y="625" on="0"/>
        <pt x="518" y="615" on="0"/>
        <pt x="518" y="585" on="1"/>
        <pt x="518" y="576" on="0"/>
        <pt x="510" y="570" on="0"/>
        <pt x="508" y="569" on="1"/>
        <pt x="559" y="56" on="1"/>
        <pt x="566" y="53" on="0"/>
        <pt x="575" y="41" on="0"/>
        <pt x="575" y="15" on="1"/>
        <pt x="575" y="7" on="0"/>
        <pt x="566" y="1" on="0"/>
        <pt x="564" y="1" on="1"/>
        <pt x="561" y="1" on="0"/>
        <pt x="559" y="3" on="1"/>
        <pt x="554" y="6" on="0"/>
        <pt x="537" y="14" on="0"/>
        <pt x="526" y="14" on="1"/>
        <pt x="510" y="14" on="0"/>
        <pt x="496" y="4" on="0"/>
        <pt x="492" y="0" on="1"/>
        <pt x="484" y="2" on="0"/>
        <pt x="475" y="14" on="0"/>
        <pt x="475" y="39" on="1"/>
        <pt x="475" y="42" on="0"/>
        <pt x="476" y="50" on="0"/>
        <pt x="480" y="53" on="1"/>
        <pt x="484" y="56" on="0"/>
        <pt x="483" y="72" on="0"/>
        <pt x="483" y="73" on="1"/>
        <pt x="434" y="560" on="1"/>
        <pt x="433" y="560" on="1"/>
      </contour>
    </TTGlyph>
    <TTGlyph name="N" xMin="23" yMin="0" xMax="427" yMax="625">
      <contour>
        <pt x="427" y="0" on="1"/>
        <pt x="397" y="0" on="1"/>
        <pt x="70" y="561" on="1"/>
        <pt x="69" y="561" on="1"/>
        <pt x="117" y="80" on="1"/>
        <pt x="118" y="72" on="0"/>
        <pt x="119" y="64" on="0"/>
        <pt x="122" y="55" on="1"/>
        <pt x="125" y="52" on="0"/>
        <pt x="126" y="54" on="0"/>
        <pt x="129" y="49" on="1"/>
        <pt x="131" y="45" on="0"/>
        <pt x="135" y="20" on="0"/>
        <pt x="135" y="15" on="1"/>
        <pt x="135" y="3" on="0"/>
        <pt x="122" y="0" on="1"/>
        <pt x="120" y="10" on="0"/>
        <pt x="110" y="13" on="0"/>
        <pt x="109" y="13" on="1"/>
        <pt x="102" y="13" on="0"/>
        <pt x="98" y="5" on="0"/>
        <pt x="98" y="0" on="1"/>
        <pt x="90" y="2" on="0"/>
        <pt x="80" y="13" on="0"/>
        <pt x="80" y="39" on="1"/>
        <pt x="80" y="41" on="0"/>
        <pt x="82" y="52" on="0"/>
        <pt x="87" y="54" on="1"/>
        <pt x="88" y="57" on="0"/>
        <pt x="88" y="66" on="1"/>
        <pt x="40" y="555" on="1"/>
        <pt x="38" y="561" on="0"/>
        <pt x="38" y="569" on="1"/>
        <pt x="31" y="573" on="0"/>
        <pt x="23" y="584" on="0"/>
        <pt x="23" y="608" on="1"/>
        <pt x="23" y="621" on="0"/>
        <pt x="37" y="625" on="0"/>
        <pt x="51" y="625" on="1"/>
        <pt x="116" y="625" on="1"/>
        <pt x="379" y="175" on="1"/>
        <pt x="380" y="175" on="1"/>
        <pt x="343" y="542" on="1"/>
        <pt x="341" y="559" on="0"/>
        <pt x="336" y="570" on="0"/>
        <pt x="334" y="572" on="1"/>
        <pt x="331" y="575" on="0"/>
        <pt x="327" y="586" on="0"/>
        <pt x="325" y="597" on="0"/>
        <pt x="325" y="607" on="0"/>
        <pt x="325" y="608" on="1"/>
        <pt x="325" y="612" on="0"/>
        <pt x="329" y="623" on="0"/>
        <pt x="337" y="625" on="1"/>
        <pt x="337" y="624" on="0"/>
        <pt x="342" y="612" on="0"/>
        <pt x="351" y="612" on="1"/>
        <pt x="353" y="612" on="0"/>
        <pt x="362" y="615" on="0"/>
        <pt x="362" y="625" on="1"/>
        <pt x="370" y="623" on="0"/>
        <pt x="380" y="611" on="0"/>
        <pt x="380" y="585" on="1"/>
        <pt x="380" y="575" on="0"/>
        <pt x="372" y="571" on="1"/>
        <pt x="372" y="557" on="0"/>
        <pt x="372" y="549" on="0"/>
        <pt x="373" y="542" on="1"/>
      </contour>
    </TTGlyph>
    <TTGlyph name="O" xMin="17" yMin="-11" xMax="598" yMax="636">
      <contour>
        <pt x="598" y="291" on="1"/>
        <pt x="598" y="244" on="0"/>
        <pt x="555" y="138" on="0"/>
        <pt x="483" y="48" on="0"/>
        <pt x="390" y="-11" on="0"/>
        <pt x="340" y="-11" on="1"/>
        <pt x="307" y="-11" on="0"/>
        <pt x="233" y="19" on="0"/>
        <pt x="161" y="71" on="0"/>
        <pt x="96" y="140" on="0"/>
        <pt x="46" y="217" on="0"/>
        <pt x="17" y="300" on="0"/>
        <pt x="17" y="339" on="1"/>
        <pt x="17" y="385" on="0"/>
        <pt x="60" y="489" on="0"/>
        <pt x="132" y="578" on="0"/>
        <pt x="226" y="636" on="0"/>
        <pt x="276" y="636" on="1"/>
        <pt x="309" y="636" on="0"/>
        <pt x="382" y="607" on="0"/>
        <pt x="454" y="557" on="0"/>
        <pt x="519" y="489" on="0"/>
        <pt x="569" y="412" on="0"/>
        <pt x="598" y="330" on="0"/>
      </contour>
      <contour>
        <pt x="336" y="24" on="1"/>
        <pt x="378" y="24" on="0"/>
        <pt x="437" y="77" on="0"/>
        <pt x="466" y="122" on="1"/>
        <pt x="491" y="162" on="0"/>
        <pt x="525" y="252" on="0"/>
        <pt x="525" y="300" on="1"/>
        <pt x="525" y="347" on="0"/>
        <pt x="485" y="443" on="0"/>
        <pt x="437" y="499" on="1"/>
        <pt x="398" y="545" on="0"/>
        <pt x="322" y="600" on="0"/>
        <pt x="279" y="600" on="1"/>
        <pt x="242" y="600" on="0"/>
        <pt x="172" y="547" on="0"/>
        <pt x="120" y="469" on="0"/>
        <pt x="88" y="381" on="0"/>
        <pt x="88" y="346" on="1"/>
        <pt x="88" y="307" on="0"/>
        <pt x="113" y="235" on="0"/>
        <pt x="147" y="175" on="0"/>
        <pt x="183" y="129" on="0"/>
        <pt x="193" y="116" on="1"/>
        <pt x="206" y="101" on="0"/>
        <pt x="237" y="68" on="0"/>
        <pt x="273" y="41" on="0"/>
        <pt x="314" y="24" on="0"/>
      </contour>
    </TTGlyph>
    <TTGlyph name="OE" xMin="6" yMin="-11" xMax="803" yMax="636">
      <contour>
        <pt x="449" y="56" on="1"/>
        <pt x="593" y="56" on="1"/>
        <pt x="596" y="56" on="0"/>
        <pt x="606" y="56" on="0"/>
        <pt x="629" y="58" on="0"/>
        <pt x="668" y="61" on="0"/>
        <pt x="700" y="64" on="1"/>
        <pt x="721" y="66" on="0"/>
        <pt x="731" y="66" on="0"/>
        <pt x="733" y="67" on="1"/>
        <pt x="733" y="73" on="1"/>
        <pt x="731" y="76" on="0"/>
        <pt x="737" y="88" on="0"/>
        <pt x="748" y="88" on="1"/>
        <pt x="756" y="88" on="0"/>
        <pt x="761" y="83" on="0"/>
        <pt x="766" y="75" on="1"/>
        <pt x="783" y="50" on="0"/>
        <pt x="803" y="19" on="0"/>
        <pt x="803" y="14" on="1"/>
        <pt x="803" y="3" on="0"/>
        <pt x="786" y="0" on="0"/>
        <pt x="775" y="0" on="1"/>
        <pt x="428" y="0" on="1"/>
        <pt x="420" y="0" on="0"/>
        <pt x="392" y="-1" on="0"/>
        <pt x="363" y="-6" on="1"/>
        <pt x="357" y="-7" on="0"/>
        <pt x="322" y="-11" on="0"/>
        <pt x="308" y="-11" on="1"/>
        <pt x="254" y="-11" on="0"/>
        <pt x="159" y="52" on="0"/>
        <pt x="117" y="100" on="1"/>
        <pt x="72" y="150" on="0"/>
        <pt x="6" y="271" on="0"/>
        <pt x="6" y="341" on="1"/>
        <pt x="6" y="385" on="0"/>
        <pt x="44" y="488" on="0"/>
        <pt x="109" y="577" on="0"/>
        <pt x="195" y="636" on="0"/>
        <pt x="244" y="636" on="1"/>
        <pt x="253" y="636" on="0"/>
        <pt x="276" y="634" on="0"/>
        <pt x="298" y="631" on="0"/>
        <pt x="313" y="629" on="0"/>
        <pt x="314" y="629" on="1"/>
        <pt x="326" y="627" on="0"/>
        <pt x="352" y="625" on="0"/>
        <pt x="365" y="625" on="1"/>
        <pt x="682" y="625" on="1"/>
        <pt x="693" y="625" on="0"/>
        <pt x="711" y="622" on="0"/>
        <pt x="711" y="611" on="1"/>
        <pt x="711" y="608" on="0"/>
        <pt x="703" y="581" on="0"/>
        <pt x="700" y="571" on="1"/>
        <pt x="694" y="551" on="0"/>
        <pt x="688" y="541" on="0"/>
        <pt x="678" y="541" on="1"/>
        <pt x="666" y="541" on="0"/>
        <pt x="661" y="554" on="0"/>
        <pt x="662" y="556" on="1"/>
        <pt x="662" y="558" on="1"/>
        <pt x="656" y="561" on="0"/>
        <pt x="642" y="562" on="0"/>
        <pt x="633" y="562" on="1"/>
        <pt x="627" y="562" on="1"/>
        <pt x="621" y="562" on="0"/>
        <pt x="599" y="563" on="0"/>
        <pt x="576" y="566" on="1"/>
        <pt x="553" y="568" on="0"/>
        <pt x="525" y="569" on="0"/>
        <pt x="523" y="569" on="1"/>
        <pt x="398" y="569" on="1"/>
        <pt x="419" y="356" on="1"/>
        <pt x="493" y="356" on="1"/>
        <pt x="507" y="356" on="0"/>
        <pt x="527" y="358" on="0"/>
        <pt x="545" y="360" on="0"/>
        <pt x="565" y="361" on="0"/>
        <pt x="580" y="360" on="1"/>
        <pt x="586" y="360" on="1"/>
        <pt x="587" y="361" on="1"/>
        <pt x="595" y="370" on="0"/>
        <pt x="601" y="373" on="0"/>
        <pt x="607" y="373" on="1"/>
        <pt x="618" y="373" on="0"/>
        <pt x="623" y="360" on="0"/>
        <pt x="625" y="340" on="1"/>
        <pt x="625" y="337" on="0"/>
        <pt x="627" y="323" on="0"/>
        <pt x="629" y="308" on="0"/>
        <pt x="630" y="295" on="0"/>
        <pt x="630" y="293" on="1"/>
        <pt x="630" y="285" on="0"/>
        <pt x="620" y="278" on="0"/>
        <pt x="613" y="278" on="1"/>
        <pt x="606" y="278" on="0"/>
        <pt x="601" y="282" on="0"/>
        <pt x="598" y="286" on="1"/>
        <pt x="595" y="290" on="0"/>
        <pt x="588" y="291" on="0"/>
        <pt x="577" y="290" on="1"/>
        <pt x="566" y="289" on="0"/>
        <pt x="518" y="295" on="0"/>
        <pt x="497" y="295" on="1"/>
        <pt x="426" y="295" on="1"/>
      </contour>
      <contour>
        <pt x="305" y="28" on="1"/>
        <pt x="331" y="28" on="0"/>
        <pt x="361" y="42" on="0"/>
        <pt x="376" y="66" on="0"/>
        <pt x="380" y="99" on="0"/>
        <pt x="380" y="118" on="1"/>
        <pt x="380" y="124" on="0"/>
        <pt x="376" y="182" on="0"/>
        <pt x="369" y="265" on="0"/>
        <pt x="359" y="362" on="0"/>
        <pt x="349" y="450" on="0"/>
        <pt x="339" y="518" on="0"/>
        <pt x="335" y="532" on="1"/>
        <pt x="332" y="542" on="0"/>
        <pt x="323" y="565" on="0"/>
        <pt x="305" y="584" on="0"/>
        <pt x="274" y="597" on="0"/>
        <pt x="248" y="597" on="1"/>
        <pt x="211" y="597" on="0"/>
        <pt x="150" y="546" on="0"/>
        <pt x="105" y="470" on="0"/>
        <pt x="80" y="385" on="0"/>
        <pt x="80" y="350" on="1"/>
        <pt x="80" y="336" on="0"/>
        <pt x="85" y="293" on="0"/>
        <pt x="101" y="238" on="0"/>
        <pt x="132" y="173" on="0"/>
        <pt x="158" y="137" on="1"/>
        <pt x="197" y="82" on="0"/>
        <pt x="266" y="28" on="0"/>
      </contour>
    </TTGlyph>
    <TTGlyph name="Oslash" xMin="17" yMin="-85" xMax="553" yMax="709">
      <contour>
        <pt x="408" y="563" on="1"/>
        <pt x="429" y="541" on="0"/>
        <pt x="480" y="485" on="0"/>
        <pt x="524" y="417" on="0"/>
        <pt x="553" y="336" on="0"/>
        <pt x="553" y="289" on="1"/>
        <pt x="553" y="243" on="0"/>
        <pt x="515" y="138" on="0"/>
        <pt x="450" y="48" on="0"/>
        <pt x="364" y="-11" on="0"/>
        <pt x="317" y="-11" on="1"/>
        <pt x="296" y="-11" on="0"/>
        <pt x="258" y="0" on="0"/>
        <pt x="225" y="15" on="0"/>
        <pt x="201" y="32" on="0"/>
        <pt x="193" y="38" on="1"/>
        <pt x="151" y="-63" on="1"/>
        <pt x="146" y="-74" on="0"/>
        <pt x="140" y="-85" on="0"/>
        <pt x="133" y="-85" on="1"/>
        <pt x="132" y="-85" on="0"/>
        <pt x="112" y="-78" on="0"/>
        <pt x="112" y="-67" on="1"/>
        <pt x="112" y="-65" on="0"/>
        <pt x="113" y="-60" on="0"/>
        <pt x="118" y="-50" on="1"/>
        <pt x="163" y="64" on="1"/>
        <pt x="159" y="67" on="0"/>
        <pt x="137" y="89" on="0"/>
        <pt x="110" y="119" on="0"/>
        <pt x="81" y="157" on="0"/>
        <pt x="69" y="177" on="1"/>
        <pt x="64" y="185" on="0"/>
        <pt x="47" y="215" on="0"/>
        <pt x="30" y="258" on="0"/>
        <pt x="17" y="311" on="0"/>
        <pt x="17" y="341" on="1"/>
        <pt x="17" y="386" on="0"/>
        <pt x="56" y="490" on="0"/>
        <pt x="121" y="578" on="0"/>
        <pt x="206" y="636" on="0"/>
        <pt x="253" y="636" on="1"/>
        <pt x="279" y="636" on="0"/>
        <pt x="341" y="615" on="0"/>
        <pt x="378" y="588" on="1"/>
        <pt x="421" y="692" on="1"/>
        <pt x="425" y="701" on="0"/>
        <pt x="430" y="709" on="0"/>
        <pt x="437" y="709" on="1"/>
        <pt x="442" y="709" on="0"/>
        <pt x="459" y="701" on="0"/>
        <pt x="459" y="692" on="1"/>
        <pt x="459" y="690" on="0"/>
        <pt x="458" y="685" on="0"/>
        <pt x="454" y="677" on="1"/>
      </contour>
      <contour>
        <pt x="359" y="541" on="1"/>
        <pt x="342" y="559" on="0"/>
        <pt x="291" y="597" on="0"/>
        <pt x="257" y="597" on="1"/>
        <pt x="236" y="597" on="0"/>
        <pt x="202" y="581" on="0"/>
        <pt x="175" y="554" on="0"/>
        <pt x="152" y="521" on="0"/>
        <pt x="141" y="504" on="1"/>
        <pt x="135" y="493" on="0"/>
        <pt x="115" y="458" on="0"/>
        <pt x="97" y="415" on="0"/>
        <pt x="84" y="363" on="0"/>
        <pt x="84" y="336" on="1"/>
        <pt x="84" y="282" on="0"/>
        <pt x="140" y="170" on="0"/>
        <pt x="185" y="117" on="1"/>
      </contour>
      <contour>
        <pt x="212" y="85" on="1"/>
        <pt x="219" y="78" on="0"/>
        <pt x="239" y="58" on="0"/>
        <pt x="264" y="40" on="0"/>
        <pt x="295" y="28" on="0"/>
        <pt x="313" y="28" on="1"/>
        <pt x="333" y="28" on="0"/>
        <pt x="365" y="43" on="0"/>
        <pt x="392" y="68" on="0"/>
        <pt x="415" y="101" on="0"/>
        <pt x="426" y="119" on="1"/>
        <pt x="433" y="130" on="0"/>
        <pt x="454" y="166" on="0"/>
        <pt x="473" y="212" on="0"/>
        <pt x="486" y="265" on="0"/>
        <pt x="486" y="293" on="1"/>
        <pt x="486" y="353" on="0"/>
        <pt x="425" y="463" on="0"/>
        <pt x="385" y="510" on="1"/>
      </contour>
    </TTGlyph>
    <TTGlyph name="P" xMin="21" yMin="0" xMax="439" yMax="625">
      <contour>
        <pt x="154" y="56" on="1"/>
        <pt x="161" y="53" on="0"/>
        <pt x="170" y="41" on="0"/>
        <pt x="170" y="15" on="1"/>
        <pt x="170" y="7" on="0"/>
        <pt x="161" y="1" on="0"/>
        <pt x="159" y="1" on="1"/>
        <pt x="157" y="1" on="0"/>
        <pt x="154" y="3" on="0"/>
        <pt x="152" y="4" on="1"/>
        <pt x="144" y="11" on="0"/>
        <pt x="129" y="14" on="0"/>
        <pt x="126" y="14" on="1"/>
        <pt x="110" y="14" on="0"/>
        <pt x="98" y="4" on="0"/>
        <pt x="95" y="0" on="1"/>
        <pt x="87" y="2" on="0"/>
        <pt x="78" y="14" on="0"/>
        <pt x="78" y="39" on="1"/>
        <pt x="78" y="42" on="0"/>
        <pt x="79" y="50" on="0"/>
        <pt x="83" y="53" on="1"/>
        <pt x="87" y="56" on="0"/>
        <pt x="86" y="72" on="0"/>
        <pt x="86" y="73" on="1"/>
        <pt x="38" y="555" on="1"/>
        <pt x="36" y="561" on="0"/>
        <pt x="36" y="569" on="1"/>
        <pt x="29" y="573" on="0"/>
        <pt x="21" y="584" on="0"/>
        <pt x="21" y="608" on="1"/>
        <pt x="21" y="621" on="0"/>
        <pt x="35" y="625" on="0"/>
        <pt x="49" y="625" on="1"/>
        <pt x="225" y="625" on="1"/>
        <pt x="264" y="625" on="0"/>
        <pt x="340" y="588" on="0"/>
        <pt x="401" y="532" on="0"/>
        <pt x="439" y="465" on="0"/>
        <pt x="439" y="435" on="1"/>
        <pt x="439" y="410" on="0"/>
        <pt x="411" y="352" on="0"/>
        <pt x="363" y="303" on="0"/>
        <pt x="298" y="270" on="0"/>
        <pt x="261" y="270" on="1"/>
        <pt x="133" y="270" on="1"/>
      </contour>
      <contour>
        <pt x="132" y="313" on="1"/>
        <pt x="235" y="313" on="1"/>
        <pt x="246" y="313" on="0"/>
        <pt x="264" y="315" on="0"/>
        <pt x="283" y="324" on="0"/>
        <pt x="305" y="341" on="0"/>
        <pt x="320" y="357" on="1"/>
        <pt x="338" y="377" on="0"/>
        <pt x="367" y="416" on="0"/>
        <pt x="367" y="439" on="1"/>
        <pt x="367" y="464" on="0"/>
        <pt x="332" y="507" on="0"/>
        <pt x="308" y="529" on="1"/>
        <pt x="289" y="546" on="0"/>
        <pt x="263" y="565" on="0"/>
        <pt x="241" y="575" on="0"/>
        <pt x="221" y="578" on="0"/>
        <pt x="209" y="578" on="1"/>
        <pt x="109" y="578" on="1"/>
        <pt x="107" y="572" on="0"/>
        <pt x="106" y="568" on="0"/>
        <pt x="107" y="567" on="1"/>
        <pt x="107" y="556" on="1"/>
      </contour>
    </TTGlyph>
    <TTGlyph name="Phi" xMin="18" yMin="0" xMax="508" yMax="625">
      <contour>
        <pt x="328" y="56" on="1"/>
        <pt x="332" y="55" on="0"/>
        <pt x="339" y="52" on="0"/>
        <pt x="343" y="45" on="0"/>
        <pt x="346" y="31" on="0"/>
        <pt x="346" y="18" on="1"/>
        <pt x="346" y="14" on="0"/>
        <pt x="343" y="1" on="0"/>
        <pt x="333" y="0" on="1"/>
        <pt x="321" y="11" on="0"/>
        <pt x="298" y="14" on="0"/>
        <pt x="296" y="14" on="1"/>
        <pt x="289" y="14" on="0"/>
        <pt x="273" y="9" on="0"/>
        <pt x="265" y="4" on="1"/>
        <pt x="262" y="1" on="0"/>
        <pt x="259" y="1" on="1"/>
        <pt x="253" y="1" on="0"/>
        <pt x="247" y="10" on="0"/>
        <pt x="244" y="23" on="0"/>
        <pt x="243" y="36" on="0"/>
        <pt x="243" y="40" on="1"/>
        <pt x="243" y="48" on="0"/>
        <pt x="246" y="52" on="1"/>
        <pt x="251" y="54" on="0"/>
        <pt x="256" y="62" on="0"/>
        <pt x="254" y="74" on="1"/>
        <pt x="245" y="153" on="1"/>
        <pt x="212" y="158" on="0"/>
        <pt x="133" y="188" on="0"/>
        <pt x="64" y="233" on="0"/>
        <pt x="18" y="290" on="0"/>
        <pt x="18" y="321" on="1"/>
        <pt x="18" y="342" on="0"/>
        <pt x="46" y="388" on="0"/>
        <pt x="97" y="429" on="0"/>
        <pt x="168" y="463" on="0"/>
        <pt x="210" y="472" on="1"/>
        <pt x="213" y="473" on="0"/>
        <pt x="213" y="477" on="1"/>
        <pt x="213" y="479" on="0"/>
        <pt x="213" y="484" on="0"/>
        <pt x="212" y="490" on="1"/>
        <pt x="204" y="569" on="1"/>
        <pt x="196" y="571" on="0"/>
        <pt x="186" y="583" on="0"/>
        <pt x="186" y="609" on="1"/>
        <pt x="186" y="617" on="0"/>
        <pt x="195" y="624" on="0"/>
        <pt x="198" y="624" on="1"/>
        <pt x="199" y="624" on="0"/>
        <pt x="203" y="622" on="1"/>
        <pt x="214" y="614" on="0"/>
        <pt x="231" y="611" on="0"/>
        <pt x="236" y="611" on="1"/>
        <pt x="253" y="611" on="0"/>
        <pt x="267" y="620" on="0"/>
        <pt x="272" y="625" on="1"/>
        <pt x="280" y="623" on="0"/>
        <pt x="289" y="611" on="0"/>
        <pt x="289" y="583" on="1"/>
        <pt x="289" y="582" on="0"/>
        <pt x="287" y="574" on="0"/>
        <pt x="281" y="570" on="1"/>
        <pt x="278" y="569" on="0"/>
        <pt x="278" y="565" on="1"/>
        <pt x="287" y="472" on="1"/>
        <pt x="313" y="468" on="0"/>
        <pt x="389" y="438" on="0"/>
        <pt x="459" y="394" on="0"/>
        <pt x="508" y="337" on="0"/>
        <pt x="508" y="305" on="1"/>
        <pt x="508" y="279" on="0"/>
        <pt x="474" y="231" on="0"/>
        <pt x="422" y="191" on="0"/>
        <pt x="360" y="163" on="0"/>
        <pt x="332" y="156" on="1"/>
        <pt x="322" y="154" on="0"/>
        <pt x="318" y="148" on="0"/>
        <pt x="320" y="135" on="1"/>
      </contour>
      <contour>
        <pt x="314" y="196" on="1"/>
        <pt x="315" y="196" on="1"/>
        <pt x="325" y="200" on="0"/>
        <pt x="365" y="222" on="0"/>
        <pt x="404" y="253" on="0"/>
        <pt x="433" y="290" on="0"/>
        <pt x="433" y="308" on="1"/>
        <pt x="433" y="329" on="0"/>
        <pt x="396" y="369" on="0"/>
        <pt x="347" y="403" on="0"/>
        <pt x="300" y="426" on="0"/>
        <pt x="291" y="429" on="1"/>
      </contour>
      <contour>
        <pt x="217" y="431" on="1"/>
        <pt x="206" y="427" on="0"/>
        <pt x="165" y="405" on="0"/>
        <pt x="124" y="374" on="0"/>
        <pt x="94" y="336" on="0"/>
        <pt x="94" y="317" on="1"/>
        <pt x="94" y="296" on="0"/>
        <pt x="130" y="256" on="0"/>
        <pt x="179" y="222" on="0"/>
        <pt x="229" y="198" on="0"/>
        <pt x="242" y="194" on="1"/>
      </contour>
    </TTGlyph>
    <TTGlyph name="Pi" xMin="23" yMin="0" xMax="437" yMax="628">
      <contour>
        <pt x="421" y="56" on="1"/>
        <pt x="428" y="53" on="0"/>
        <pt x="437" y="41" on="0"/>
        <pt x="437" y="15" on="1"/>
        <pt x="437" y="7" on="0"/>
        <pt x="428" y="1" on="0"/>
        <pt x="426" y="1" on="1"/>
        <pt x="424" y="1" on="0"/>
        <pt x="421" y="3" on="0"/>
        <pt x="419" y="4" on="1"/>
        <pt x="411" y="11" on="0"/>
        <pt x="396" y="14" on="0"/>
        <pt x="393" y="14" on="1"/>
        <pt x="377" y="14" on="0"/>
        <pt x="365" y="4" on="0"/>
        <pt x="362" y="0" on="1"/>
        <pt x="354" y="2" on="0"/>
        <pt x="345" y="14" on="0"/>
        <pt x="345" y="39" on="1"/>
        <pt x="345" y="42" on="0"/>
        <pt x="346" y="50" on="0"/>
        <pt x="350" y="53" on="1"/>
        <pt x="354" y="56" on="0"/>
        <pt x="353" y="72" on="0"/>
        <pt x="353" y="73" on="1"/>
        <pt x="303" y="567" on="1"/>
        <pt x="105" y="567" on="1"/>
        <pt x="156" y="56" on="1"/>
        <pt x="163" y="53" on="0"/>
        <pt x="172" y="41" on="0"/>
        <pt x="172" y="15" on="1"/>
        <pt x="172" y="7" on="0"/>
        <pt x="163" y="1" on="0"/>
        <pt x="161" y="1" on="1"/>
        <pt x="159" y="1" on="0"/>
        <pt x="156" y="3" on="0"/>
        <pt x="154" y="4" on="1"/>
        <pt x="146" y="11" on="0"/>
        <pt x="131" y="14" on="0"/>
        <pt x="128" y="14" on="1"/>
        <pt x="112" y="14" on="0"/>
        <pt x="100" y="4" on="0"/>
        <pt x="97" y="0" on="1"/>
        <pt x="89" y="2" on="0"/>
        <pt x="80" y="14" on="0"/>
        <pt x="80" y="39" on="1"/>
        <pt x="80" y="42" on="0"/>
        <pt x="81" y="50" on="0"/>
        <pt x="85" y="53" on="1"/>
        <pt x="89" y="56" on="0"/>
        <pt x="88" y="72" on="0"/>
        <pt x="88" y="73" on="1"/>
        <pt x="38" y="572" on="1"/>
        <pt x="31" y="575" on="0"/>
        <pt x="23" y="588" on="0"/>
        <pt x="23" y="614" on="1"/>
        <pt x="23" y="625" on="0"/>
        <pt x="39" y="628" on="0"/>
        <pt x="50" y="628" on="1"/>
        <pt x="348" y="628" on="1"/>
        <pt x="357" y="628" on="0"/>
        <pt x="369" y="627" on="0"/>
        <pt x="376" y="619" on="0"/>
        <pt x="379" y="602" on="0"/>
        <pt x="379" y="586" on="1"/>
        <pt x="379" y="579" on="0"/>
        <pt x="373" y="574" on="1"/>
        <pt x="370" y="571" on="0"/>
        <pt x="371" y="566" on="1"/>
        <pt x="371" y="555" on="1"/>
      </contour>
    </TTGlyph>
    <TTGlyph name="Psi" xMin="1" yMin="0" xMax="538" yMax="625">
      <contour>
        <pt x="337" y="195" on="1"/>
        <pt x="378" y="211" on="0"/>
        <pt x="421" y="291" on="0"/>
        <pt x="421" y="346" on="1"/>
        <pt x="421" y="362" on="0"/>
        <pt x="417" y="400" on="0"/>
        <pt x="417" y="414" on="1"/>
        <pt x="417" y="442" on="0"/>
        <pt x="427" y="472" on="0"/>
        <pt x="444" y="486" on="0"/>
        <pt x="463" y="488" on="0"/>
        <pt x="472" y="488" on="1"/>
        <pt x="534" y="488" on="1"/>
        <pt x="534" y="485" on="1"/>
        <pt x="534" y="484" on="0"/>
        <pt x="535" y="474" on="0"/>
        <pt x="537" y="462" on="0"/>
        <pt x="538" y="451" on="0"/>
        <pt x="538" y="449" on="1"/>
        <pt x="521" y="448" on="0"/>
        <pt x="503" y="431" on="0"/>
        <pt x="494" y="410" on="0"/>
        <pt x="492" y="390" on="0"/>
        <pt x="492" y="386" on="1"/>
        <pt x="492" y="376" on="0"/>
        <pt x="494" y="361" on="0"/>
        <pt x="494" y="348" on="1"/>
        <pt x="494" y="279" on="0"/>
        <pt x="424" y="175" on="0"/>
        <pt x="349" y="155" on="1"/>
        <pt x="344" y="153" on="0"/>
        <pt x="340" y="148" on="0"/>
        <pt x="342" y="135" on="1"/>
        <pt x="350" y="56" on="1"/>
        <pt x="354" y="55" on="0"/>
        <pt x="361" y="52" on="0"/>
        <pt x="365" y="45" on="0"/>
        <pt x="368" y="31" on="0"/>
        <pt x="368" y="18" on="1"/>
        <pt x="368" y="14" on="0"/>
        <pt x="365" y="1" on="0"/>
        <pt x="355" y="0" on="1"/>
        <pt x="343" y="11" on="0"/>
        <pt x="320" y="14" on="0"/>
        <pt x="318" y="14" on="1"/>
        <pt x="311" y="14" on="0"/>
        <pt x="295" y="9" on="0"/>
        <pt x="287" y="4" on="1"/>
        <pt x="284" y="1" on="0"/>
        <pt x="281" y="1" on="1"/>
        <pt x="275" y="1" on="0"/>
        <pt x="269" y="10" on="0"/>
        <pt x="266" y="23" on="0"/>
        <pt x="265" y="36" on="0"/>
        <pt x="265" y="40" on="1"/>
        <pt x="265" y="48" on="0"/>
        <pt x="268" y="52" on="1"/>
        <pt x="274" y="54" on="0"/>
        <pt x="278" y="61" on="0"/>
        <pt x="276" y="74" on="1"/>
        <pt x="268" y="153" on="1"/>
        <pt x="238" y="158" on="0"/>
        <pt x="173" y="186" on="0"/>
        <pt x="117" y="238" on="0"/>
        <pt x="74" y="316" on="0"/>
        <pt x="66" y="372" on="1"/>
        <pt x="64" y="383" on="0"/>
        <pt x="58" y="409" on="0"/>
        <pt x="44" y="432" on="0"/>
        <pt x="22" y="448" on="0"/>
        <pt x="5" y="449" on="1"/>
        <pt x="1" y="488" on="1"/>
        <pt x="63" y="488" on="1"/>
        <pt x="74" y="488" on="0"/>
        <pt x="96" y="485" on="0"/>
        <pt x="116" y="465" on="0"/>
        <pt x="133" y="423" on="0"/>
        <pt x="137" y="384" on="1"/>
        <pt x="141" y="353" on="0"/>
        <pt x="158" y="293" on="0"/>
        <pt x="188" y="243" on="0"/>
        <pt x="232" y="205" on="0"/>
        <pt x="263" y="195" on="1"/>
        <pt x="226" y="569" on="1"/>
        <pt x="218" y="571" on="0"/>
        <pt x="208" y="583" on="0"/>
        <pt x="208" y="609" on="1"/>
        <pt x="208" y="617" on="0"/>
        <pt x="217" y="624" on="0"/>
        <pt x="220" y="624" on="1"/>
        <pt x="221" y="624" on="0"/>
        <pt x="225" y="622" on="1"/>
        <pt x="236" y="614" on="0"/>
        <pt x="253" y="611" on="0"/>
        <pt x="258" y="611" on="1"/>
        <pt x="275" y="611" on="0"/>
        <pt x="289" y="620" on="0"/>
        <pt x="294" y="625" on="1"/>
        <pt x="302" y="623" on="0"/>
        <pt x="311" y="611" on="0"/>
        <pt x="311" y="583" on="1"/>
        <pt x="311" y="582" on="0"/>
        <pt x="309" y="574" on="0"/>
        <pt x="303" y="570" on="1"/>
        <pt x="300" y="569" on="0"/>
        <pt x="300" y="565" on="1"/>
      </contour>
    </TTGlyph>
    <TTGlyph name="Q" xMin="17" yMin="-194" xMax="635" yMax="636">
      <contour>
        <pt x="634" y="-17" on="1"/>
        <pt x="635" y="-26" on="0"/>
        <pt x="635" y="-47" on="0"/>
        <pt x="635" y="-56" on="1"/>
        <pt x="635" y="-75" on="0"/>
        <pt x="630" y="-123" on="0"/>
        <pt x="614" y="-165" on="0"/>
        <pt x="581" y="-194" on="0"/>
        <pt x="553" y="-194" on="1"/>
        <pt x="520" y="-194" on="0"/>
        <pt x="478" y="-157" on="0"/>
        <pt x="465" y="-125" on="1"/>
        <pt x="458" y="-107" on="0"/>
        <pt x="450" y="-78" on="0"/>
        <pt x="442" y="-47" on="0"/>
        <pt x="434" y="-12" on="0"/>
        <pt x="426" y="11" on="1"/>
        <pt x="397" y="-4" on="0"/>
        <pt x="344" y="-12" on="0"/>
        <pt x="334" y="-12" on="1"/>
        <pt x="306" y="-12" on="0"/>
        <pt x="236" y="17" on="0"/>
        <pt x="166" y="67" on="0"/>
        <pt x="100" y="135" on="0"/>
        <pt x="48" y="213" on="0"/>
        <pt x="17" y="297" on="0"/>
        <pt x="17" y="339" on="1"/>
        <pt x="17" y="385" on="0"/>
        <pt x="60" y="489" on="0"/>
        <pt x="132" y="578" on="0"/>
        <pt x="226" y="636" on="0"/>
        <pt x="276" y="636" on="1"/>
        <pt x="309" y="636" on="0"/>
        <pt x="382" y="607" on="0"/>
        <pt x="454" y="557" on="0"/>
        <pt x="519" y="489" on="0"/>
        <pt x="569" y="412" on="0"/>
        <pt x="598" y="330" on="0"/>
        <pt x="598" y="291" on="1"/>
        <pt x="598" y="249" on="0"/>
        <pt x="568" y="166" on="0"/>
        <pt x="522" y="93" on="0"/>
        <pt x="464" y="35" on="0"/>
        <pt x="436" y="18" on="1"/>
        <pt x="448" y="-16" on="0"/>
        <pt x="469" y="-68" on="0"/>
        <pt x="495" y="-104" on="0"/>
        <pt x="528" y="-122" on="0"/>
        <pt x="552" y="-122" on="1"/>
        <pt x="572" y="-122" on="0"/>
        <pt x="602" y="-105" on="0"/>
        <pt x="622" y="-77" on="0"/>
        <pt x="633" y="-38" on="0"/>
      </contour>
      <contour>
        <pt x="338" y="25" on="1"/>
        <pt x="347" y="26" on="0"/>
        <pt x="387" y="34" on="0"/>
        <pt x="410" y="54" on="1"/>
        <pt x="398" y="77" on="0"/>
        <pt x="357" y="105" on="0"/>
        <pt x="331" y="105" on="1"/>
        <pt x="319" y="105" on="0"/>
        <pt x="305" y="96" on="0"/>
        <pt x="298" y="84" on="0"/>
        <pt x="296" y="72" on="0"/>
        <pt x="296" y="70" on="1"/>
        <pt x="296" y="69" on="0"/>
        <pt x="297" y="57" on="0"/>
        <pt x="304" y="43" on="0"/>
        <pt x="320" y="29" on="0"/>
        <pt x="334" y="27" on="1"/>
      </contour>
      <contour>
        <pt x="260" y="52" on="1"/>
        <pt x="259" y="54" on="0"/>
        <pt x="257" y="66" on="0"/>
        <pt x="257" y="74" on="1"/>
        <pt x="257" y="100" on="0"/>
        <pt x="292" y="144" on="0"/>
        <pt x="326" y="144" on="1"/>
        <pt x="347" y="144" on="0"/>
        <pt x="378" y="128" on="0"/>
        <pt x="400" y="104" on="0"/>
        <pt x="414" y="76" on="0"/>
        <pt x="420" y="64" on="1"/>
        <pt x="431" y="74" on="0"/>
        <pt x="465" y="119" on="0"/>
        <pt x="499" y="180" on="0"/>
        <pt x="523" y="254" on="0"/>
        <pt x="523" y="292" on="1"/>
        <pt x="523" y="343" on="0"/>
        <pt x="477" y="444" on="0"/>
        <pt x="434" y="496" on="1"/>
        <pt x="417" y="517" on="0"/>
        <pt x="381" y="554" on="0"/>
        <pt x="343" y="583" on="0"/>
        <pt x="302" y="600" on="0"/>
        <pt x="279" y="600" on="1"/>
        <pt x="242" y="600" on="0"/>
        <pt x="174" y="544" on="0"/>
        <pt x="122" y="463" on="0"/>
        <pt x="92" y="373" on="0"/>
        <pt x="92" y="338" on="1"/>
        <pt x="92" y="287" on="0"/>
        <pt x="135" y="192" on="0"/>
        <pt x="192" y="114" on="0"/>
        <pt x="247" y="61" on="0"/>
      </contour>
    </TTGlyph>
    <TTGlyph name="R" xMin="21" yMin="-11" xMax="563" yMax="625">
      <contour>
        <pt x="562" y="78" on="1"/>
        <pt x="563" y="75" on="0"/>
        <pt x="563" y="67" on="0"/>
        <pt x="563" y="65" on="1"/>
        <pt x="563" y="62" on="0"/>
        <pt x="561" y="38" on="0"/>
        <pt x="550" y="11" on="0"/>
        <pt x="526" y="-11" on="0"/>
        <pt x="503" y="-11" on="1"/>
        <pt x="485" y="-11" on="0"/>
        <pt x="424" y="2" on="0"/>
        <pt x="394" y="28" on="1"/>
        <pt x="371" y="48" on="0"/>
        <pt x="360" y="104" on="0"/>
        <pt x="355" y="149" on="1"/>
        <pt x="353" y="169" on="0"/>
        <pt x="350" y="197" on="0"/>
        <pt x="345" y="218" on="0"/>
        <pt x="336" y="235" on="0"/>
        <pt x="329" y="244" on="1"/>
        <pt x="315" y="262" on="0"/>
        <pt x="283" y="282" on="0"/>
        <pt x="255" y="291" on="0"/>
        <pt x="231" y="293" on="0"/>
        <pt x="225" y="293" on="1"/>
        <pt x="134" y="293" on="1"/>
        <pt x="157" y="56" on="1"/>
        <pt x="164" y="53" on="0"/>
        <pt x="173" y="41" on="0"/>
        <pt x="173" y="15" on="1"/>
        <pt x="173" y="7" on="0"/>
        <pt x="164" y="1" on="0"/>
        <pt x="162" y="1" on="1"/>
        <pt x="160" y="1" on="0"/>
        <pt x="156" y="3" on="1"/>
        <pt x="148" y="10" on="0"/>
        <pt x="132" y="14" on="0"/>
        <pt x="127" y="14" on="1"/>
        <pt x="111" y="14" on="0"/>
        <pt x="98" y="4" on="0"/>
        <pt x="95" y="0" on="1"/>
        <pt x="87" y="2" on="0"/>
        <pt x="78" y="14" on="0"/>
        <pt x="78" y="39" on="1"/>
        <pt x="78" y="42" on="0"/>
        <pt x="79" y="50" on="0"/>
        <pt x="83" y="53" on="1"/>
        <pt x="87" y="56" on="0"/>
        <pt x="86" y="72" on="0"/>
        <pt x="86" y="73" on="1"/>
        <pt x="38" y="555" on="1"/>
        <pt x="36" y="561" on="0"/>
        <pt x="36" y="569" on="1"/>
        <pt x="29" y="573" on="0"/>
        <pt x="21" y="584" on="0"/>
        <pt x="21" y="608" on="1"/>
        <pt x="21" y="621" on="0"/>
        <pt x="35" y="625" on="0"/>
        <pt x="49" y="625" on="1"/>
        <pt x="194" y="625" on="1"/>
        <pt x="233" y="625" on="0"/>
        <pt x="316" y="592" on="0"/>
        <pt x="383" y="540" on="0"/>
        <pt x="427" y="476" on="0"/>
        <pt x="427" y="446" on="1"/>
        <pt x="427" y="419" on="0"/>
        <pt x="396" y="372" on="0"/>
        <pt x="356" y="337" on="0"/>
        <pt x="321" y="315" on="0"/>
        <pt x="316" y="313" on="1"/>
        <pt x="349" y="297" on="0"/>
        <pt x="389" y="258" on="0"/>
        <pt x="411" y="219" on="0"/>
        <pt x="419" y="180" on="0"/>
        <pt x="422" y="164" on="1"/>
        <pt x="425" y="144" on="0"/>
        <pt x="433" y="99" on="0"/>
        <pt x="434" y="91" on="1"/>
        <pt x="440" y="66" on="0"/>
        <pt x="474" y="28" on="0"/>
        <pt x="501" y="28" on="1"/>
        <pt x="512" y="28" on="0"/>
        <pt x="523" y="37" on="0"/>
        <pt x="528" y="52" on="0"/>
        <pt x="529" y="70" on="0"/>
        <pt x="529" y="78" on="1"/>
      </contour>
      <contour>
        <pt x="210" y="332" on="1"/>
        <pt x="219" y="332" on="0"/>
        <pt x="238" y="333" on="0"/>
        <pt x="260" y="341" on="0"/>
        <pt x="287" y="358" on="0"/>
        <pt x="305" y="374" on="1"/>
        <pt x="326" y="393" on="0"/>
        <pt x="355" y="429" on="0"/>
        <pt x="355" y="450" on="1"/>
        <pt x="355" y="463" on="0"/>
        <pt x="343" y="485" on="0"/>
        <pt x="325" y="505" on="0"/>
        <pt x="303" y="523" on="0"/>
        <pt x="293" y="531" on="1"/>
        <pt x="272" y="547" on="0"/>
        <pt x="242" y="566" on="0"/>
        <pt x="218" y="575" on="0"/>
        <pt x="198" y="578" on="0"/>
        <pt x="186" y="578" on="1"/>
        <pt x="109" y="578" on="1"/>
        <pt x="107" y="572" on="0"/>
        <pt x="106" y="568" on="0"/>
        <pt x="107" y="567" on="1"/>
        <pt x="107" y="556" on="1"/>
        <pt x="130" y="332" on="1"/>
      </contour>
    </TTGlyph>
    <TTGlyph name="S" xMin="3" yMin="-11" xMax="390" yMax="636">
      <contour>
        <pt x="341" y="418" on="1"/>
        <pt x="308" y="418" on="1"/>
        <pt x="300" y="464" on="0"/>
        <pt x="266" y="525" on="0"/>
        <pt x="222" y="562" on="0"/>
        <pt x="174" y="577" on="0"/>
        <pt x="151" y="577" on="1"/>
        <pt x="133" y="577" on="0"/>
        <pt x="103" y="558" on="0"/>
        <pt x="81" y="530" on="0"/>
        <pt x="69" y="497" on="0"/>
        <pt x="69" y="483" on="1"/>
        <pt x="69" y="470" on="0"/>
        <pt x="78" y="439" on="0"/>
        <pt x="96" y="409" on="0"/>
        <pt x="123" y="385" on="0"/>
        <pt x="141" y="379" on="1"/>
        <pt x="143" y="379" on="0"/>
        <pt x="173" y="371" on="0"/>
        <pt x="214" y="360" on="1"/>
        <pt x="238" y="353" on="0"/>
        <pt x="276" y="341" on="0"/>
        <pt x="309" y="323" on="0"/>
        <pt x="338" y="295" on="0"/>
        <pt x="354" y="272" on="1"/>
        <pt x="366" y="253" on="0"/>
        <pt x="390" y="189" on="0"/>
        <pt x="390" y="158" on="1"/>
        <pt x="390" y="134" on="0"/>
        <pt x="368" y="75" on="0"/>
        <pt x="330" y="24" on="0"/>
        <pt x="278" y="-11" on="0"/>
        <pt x="248" y="-11" on="1"/>
        <pt x="195" y="-11" on="0"/>
        <pt x="114" y="30" on="0"/>
        <pt x="90" y="57" on="1"/>
        <pt x="65" y="-11" on="1"/>
        <pt x="51" y="-11" on="1"/>
        <pt x="29" y="207" on="1"/>
        <pt x="62" y="207" on="1"/>
        <pt x="67" y="159" on="0"/>
        <pt x="106" y="97" on="0"/>
        <pt x="158" y="60" on="0"/>
        <pt x="216" y="45" on="0"/>
        <pt x="241" y="45" on="1"/>
        <pt x="260" y="45" on="0"/>
        <pt x="291" y="67" on="0"/>
        <pt x="312" y="99" on="0"/>
        <pt x="323" y="136" on="0"/>
        <pt x="323" y="151" on="1"/>
        <pt x="323" y="203" on="0"/>
        <pt x="287" y="245" on="1"/>
        <pt x="280" y="253" on="0"/>
        <pt x="266" y="263" on="0"/>
        <pt x="245" y="272" on="0"/>
        <pt x="212" y="281" on="0"/>
        <pt x="186" y="288" on="1"/>
        <pt x="160" y="295" on="0"/>
        <pt x="122" y="307" on="0"/>
        <pt x="91" y="321" on="0"/>
        <pt x="65" y="341" on="0"/>
        <pt x="51" y="356" on="1"/>
        <pt x="34" y="376" on="0"/>
        <pt x="14" y="415" on="0"/>
        <pt x="5" y="448" on="0"/>
        <pt x="3" y="472" on="0"/>
        <pt x="3" y="478" on="1"/>
        <pt x="3" y="503" on="0"/>
        <pt x="26" y="559" on="0"/>
        <pt x="65" y="605" on="0"/>
        <pt x="117" y="636" on="0"/>
        <pt x="145" y="636" on="1"/>
        <pt x="177" y="636" on="0"/>
        <pt x="249" y="608" on="0"/>
        <pt x="281" y="569" on="1"/>
        <pt x="306" y="636" on="1"/>
        <pt x="319" y="636" on="1"/>
      </contour>
    </TTGlyph>
    <TTGlyph name="Sigma" xMin="-12" yMin="0" xMax="559" yMax="625">
      <contour>
        <pt x="135" y="57" on="1"/>
        <pt x="309" y="57" on="1"/>
        <pt x="315" y="57" on="0"/>
        <pt x="342" y="58" on="0"/>
        <pt x="367" y="62" on="1"/>
        <pt x="383" y="64" on="0"/>
        <pt x="417" y="68" on="0"/>
        <pt x="431" y="68" on="1"/>
        <pt x="435" y="68" on="0"/>
        <pt x="457" y="67" on="0"/>
        <pt x="469" y="64" on="1"/>
        <pt x="474" y="63" on="0"/>
        <pt x="480" y="62" on="0"/>
        <pt x="485" y="62" on="1"/>
        <pt x="494" y="62" on="0"/>
        <pt x="500" y="65" on="1"/>
        <pt x="500" y="71" on="1"/>
        <pt x="498" y="74" on="0"/>
        <pt x="506" y="85" on="0"/>
        <pt x="515" y="85" on="1"/>
        <pt x="523" y="85" on="0"/>
        <pt x="530" y="78" on="0"/>
        <pt x="533" y="71" on="1"/>
        <pt x="543" y="52" on="0"/>
        <pt x="553" y="30" on="0"/>
        <pt x="558" y="18" on="0"/>
        <pt x="559" y="15" on="0"/>
        <pt x="559" y="14" on="1"/>
        <pt x="559" y="3" on="0"/>
        <pt x="542" y="0" on="0"/>
        <pt x="531" y="0" on="1"/>
        <pt x="50" y="0" on="1"/>
        <pt x="213" y="291" on="1"/>
        <pt x="1" y="560" on="1"/>
        <pt x="-5" y="567" on="0"/>
        <pt x="-7" y="575" on="0"/>
        <pt x="-9" y="589" on="1"/>
        <pt x="-12" y="625" on="1"/>
        <pt x="471" y="625" on="1"/>
        <pt x="482" y="625" on="0"/>
        <pt x="500" y="622" on="0"/>
        <pt x="500" y="611" on="1"/>
        <pt x="500" y="608" on="0"/>
        <pt x="492" y="581" on="0"/>
        <pt x="489" y="571" on="1"/>
        <pt x="483" y="551" on="0"/>
        <pt x="477" y="541" on="0"/>
        <pt x="467" y="541" on="1"/>
        <pt x="455" y="541" on="0"/>
        <pt x="450" y="554" on="0"/>
        <pt x="451" y="556" on="1"/>
        <pt x="451" y="559" on="1"/>
        <pt x="445" y="564" on="0"/>
        <pt x="432" y="564" on="1"/>
        <pt x="430" y="564" on="0"/>
        <pt x="423" y="564" on="0"/>
        <pt x="415" y="562" on="1"/>
        <pt x="403" y="559" on="0"/>
        <pt x="389" y="558" on="0"/>
        <pt x="375" y="558" on="1"/>
        <pt x="365" y="558" on="0"/>
        <pt x="342" y="559" on="0"/>
        <pt x="322" y="562" on="1"/>
        <pt x="308" y="564" on="0"/>
        <pt x="268" y="569" on="0"/>
        <pt x="249" y="569" on="1"/>
        <pt x="75" y="569" on="1"/>
        <pt x="278" y="312" on="1"/>
      </contour>
    </TTGlyph>
    <TTGlyph name="T" xMin="-42" yMin="0" xMax="552" yMax="631">
      <contour>
        <pt x="344" y="56" on="1"/>
        <pt x="353" y="55" on="0"/>
        <pt x="364" y="45" on="0"/>
        <pt x="364" y="17" on="1"/>
        <pt x="364" y="14" on="0"/>
        <pt x="361" y="1" on="0"/>
        <pt x="351" y="0" on="1"/>
        <pt x="341" y="9" on="0"/>
        <pt x="320" y="14" on="0"/>
        <pt x="315" y="14" on="1"/>
        <pt x="298" y="14" on="0"/>
        <pt x="285" y="4" on="1"/>
        <pt x="282" y="1" on="0"/>
        <pt x="279" y="1" on="1"/>
        <pt x="273" y="1" on="0"/>
        <pt x="267" y="11" on="0"/>
        <pt x="264" y="24" on="0"/>
        <pt x="263" y="37" on="0"/>
        <pt x="263" y="40" on="1"/>
        <pt x="263" y="50" on="0"/>
        <pt x="271" y="55" on="1"/>
        <pt x="275" y="57" on="0"/>
        <pt x="278" y="62" on="0"/>
        <pt x="276" y="74" on="1"/>
        <pt x="225" y="575" on="1"/>
        <pt x="123" y="575" on="1"/>
        <pt x="122" y="575" on="0"/>
        <pt x="98" y="574" on="0"/>
        <pt x="65" y="572" on="0"/>
        <pt x="27" y="568" on="0"/>
        <pt x="11" y="565" on="1"/>
        <pt x="11" y="559" on="0"/>
        <pt x="7" y="547" on="0"/>
        <pt x="-5" y="547" on="1"/>
        <pt x="-13" y="547" on="0"/>
        <pt x="-20" y="556" on="0"/>
        <pt x="-29" y="579" on="1"/>
        <pt x="-33" y="589" on="0"/>
        <pt x="-42" y="614" on="0"/>
        <pt x="-42" y="617" on="1"/>
        <pt x="-42" y="628" on="0"/>
        <pt x="-26" y="631" on="0"/>
        <pt x="-14" y="631" on="1"/>
        <pt x="524" y="631" on="1"/>
        <pt x="537" y="631" on="0"/>
        <pt x="552" y="627" on="0"/>
        <pt x="552" y="616" on="1"/>
        <pt x="552" y="612" on="0"/>
        <pt x="547" y="583" on="0"/>
        <pt x="545" y="575" on="1"/>
        <pt x="541" y="558" on="0"/>
        <pt x="536" y="547" on="0"/>
        <pt x="525" y="547" on="1"/>
        <pt x="515" y="547" on="0"/>
        <pt x="509" y="558" on="0"/>
        <pt x="509" y="563" on="1"/>
        <pt x="500" y="566" on="0"/>
        <pt x="469" y="571" on="0"/>
        <pt x="435" y="574" on="0"/>
        <pt x="403" y="575" on="0"/>
        <pt x="393" y="575" on="1"/>
        <pt x="293" y="575" on="1"/>
      </contour>
    </TTGlyph>
    <TTGlyph name="Theta" xMin="17" yMin="-11" xMax="553" yMax="636">
      <contour>
        <pt x="553" y="289" on="1"/>
        <pt x="553" y="243" on="0"/>
        <pt x="515" y="138" on="0"/>
        <pt x="450" y="48" on="0"/>
        <pt x="364" y="-11" on="0"/>
        <pt x="317" y="-11" on="1"/>
        <pt x="286" y="-11" on="0"/>
        <pt x="217" y="19" on="0"/>
        <pt x="151" y="71" on="0"/>
        <pt x="90" y="140" on="0"/>
        <pt x="44" y="219" on="0"/>
        <pt x="17" y="302" on="0"/>
        <pt x="17" y="341" on="1"/>
        <pt x="17" y="386" on="0"/>
        <pt x="56" y="490" on="0"/>
        <pt x="121" y="578" on="0"/>
        <pt x="206" y="636" on="0"/>
        <pt x="253" y="636" on="1"/>
        <pt x="284" y="636" on="0"/>
        <pt x="339" y="614" on="0"/>
        <pt x="387" y="582" on="0"/>
        <pt x="426" y="545" on="0"/>
        <pt x="442" y="529" on="1"/>
        <pt x="445" y="525" on="0"/>
        <pt x="481" y="485" on="0"/>
        <pt x="521" y="421" on="0"/>
        <pt x="553" y="337" on="0"/>
      </contour>
      <contour>
        <pt x="313" y="27" on="1"/>
        <pt x="333" y="27" on="0"/>
        <pt x="365" y="43" on="0"/>
        <pt x="392" y="68" on="0"/>
        <pt x="413" y="101" on="0"/>
        <pt x="423" y="118" on="1"/>
        <pt x="428" y="127" on="0"/>
        <pt x="445" y="161" on="0"/>
        <pt x="462" y="206" on="0"/>
        <pt x="475" y="260" on="0"/>
        <pt x="475" y="290" on="1"/>
        <pt x="475" y="329" on="0"/>
        <pt x="444" y="426" on="0"/>
        <pt x="400" y="486" on="1"/>
        <pt x="364" y="537" on="0"/>
        <pt x="296" y="597" on="0"/>
        <pt x="257" y="597" on="1"/>
        <pt x="219" y="597" on="0"/>
        <pt x="169" y="545" on="0"/>
        <pt x="149" y="509" on="1"/>
        <pt x="143" y="499" on="0"/>
        <pt x="125" y="466" on="0"/>
        <pt x="108" y="422" on="0"/>
        <pt x="95" y="369" on="0"/>
        <pt x="95" y="340" on="1"/>
        <pt x="95" y="246" on="0"/>
        <pt x="169" y="142" on="1"/>
        <pt x="206" y="89" on="0"/>
        <pt x="274" y="27" on="0"/>
      </contour>
      <contour>
        <pt x="392" y="343" on="1"/>
        <pt x="392" y="350" on="1"/>
        <pt x="392" y="357" on="0"/>
        <pt x="391" y="358" on="1"/>
        <pt x="391" y="359" on="0"/>
        <pt x="395" y="374" on="0"/>
        <pt x="408" y="374" on="1"/>
        <pt x="418" y="374" on="0"/>
        <pt x="423" y="363" on="0"/>
        <pt x="424" y="360" on="1"/>
        <pt x="424" y="359" on="0"/>
        <pt x="427" y="329" on="0"/>
        <pt x="430" y="295" on="0"/>
        <pt x="433" y="266" on="0"/>
        <pt x="433" y="265" on="1"/>
        <pt x="433" y="260" on="0"/>
        <pt x="425" y="250" on="0"/>
        <pt x="417" y="250" on="1"/>
        <pt x="406" y="250" on="0"/>
        <pt x="399" y="266" on="0"/>
        <pt x="399" y="281" on="1"/>
        <pt x="178" y="281" on="1"/>
        <pt x="179" y="278" on="0"/>
        <pt x="179" y="268" on="0"/>
        <pt x="179" y="265" on="1"/>
        <pt x="179" y="260" on="0"/>
        <pt x="171" y="250" on="0"/>
        <pt x="163" y="250" on="1"/>
        <pt x="152" y="250" on="0"/>
        <pt x="146" y="265" on="0"/>
        <pt x="145" y="276" on="1"/>
        <pt x="138" y="346" on="1"/>
        <pt x="138" y="352" on="1"/>
        <pt x="138" y="353" on="0"/>
        <pt x="139" y="356" on="0"/>
        <pt x="138" y="357" on="1"/>
        <pt x="136" y="361" on="0"/>
        <pt x="143" y="374" on="0"/>
        <pt x="154" y="374" on="1"/>
        <pt x="165" y="374" on="0"/>
        <pt x="172" y="357" on="0"/>
        <pt x="172" y="343" on="1"/>
      </contour>
    </TTGlyph>
    <TTGlyph name="U" xMin="23" yMin="-11" xMax="429" yMax="625">
      <contour>
        <pt x="427" y="221" on="1"/>
        <pt x="429" y="206" on="0"/>
        <pt x="429" y="198" on="0"/>
        <pt x="429" y="190" on="1"/>
        <pt x="429" y="159" on="0"/>
        <pt x="405" y="89" on="0"/>
        <pt x="364" y="29" on="0"/>
        <pt x="309" y="-11" on="0"/>
        <pt x="278" y="-11" on="1"/>
        <pt x="247" y="-11" on="0"/>
        <pt x="177" y="31" on="0"/>
        <pt x="118" y="95" on="0"/>
        <pt x="77" y="172" on="0"/>
        <pt x="74" y="208" on="1"/>
        <pt x="38" y="569" on="1"/>
        <pt x="31" y="573" on="0"/>
        <pt x="23" y="584" on="0"/>
        <pt x="23" y="608" on="1"/>
        <pt x="23" y="610" on="0"/>
        <pt x="26" y="623" on="0"/>
        <pt x="36" y="625" on="1"/>
        <pt x="44" y="616" on="0"/>
        <pt x="63" y="611" on="0"/>
        <pt x="67" y="611" on="1"/>
        <pt x="82" y="611" on="0"/>
        <pt x="92" y="620" on="1"/>
        <pt x="96" y="624" on="0"/>
        <pt x="99" y="624" on="1"/>
        <pt x="105" y="624" on="0"/>
        <pt x="112" y="614" on="0"/>
        <pt x="115" y="601" on="0"/>
        <pt x="115" y="588" on="0"/>
        <pt x="115" y="585" on="1"/>
        <pt x="115" y="576" on="0"/>
        <pt x="107" y="570" on="0"/>
        <pt x="105" y="569" on="1"/>
        <pt x="141" y="211" on="1"/>
        <pt x="144" y="185" on="0"/>
        <pt x="168" y="135" on="0"/>
        <pt x="195" y="100" on="1"/>
        <pt x="214" y="75" on="0"/>
        <pt x="252" y="36" on="0"/>
        <pt x="275" y="36" on="1"/>
        <pt x="295" y="36" on="0"/>
        <pt x="335" y="72" on="0"/>
        <pt x="366" y="123" on="0"/>
        <pt x="385" y="178" on="0"/>
        <pt x="385" y="196" on="1"/>
        <pt x="351" y="542" on="1"/>
        <pt x="349" y="559" on="0"/>
        <pt x="344" y="570" on="0"/>
        <pt x="342" y="572" on="1"/>
        <pt x="339" y="575" on="0"/>
        <pt x="335" y="586" on="0"/>
        <pt x="333" y="597" on="0"/>
        <pt x="333" y="607" on="0"/>
        <pt x="333" y="608" on="1"/>
        <pt x="333" y="610" on="0"/>
        <pt x="336" y="623" on="0"/>
        <pt x="346" y="625" on="1"/>
        <pt x="348" y="620" on="0"/>
        <pt x="359" y="611" on="0"/>
        <pt x="366" y="611" on="1"/>
        <pt x="368" y="611" on="0"/>
        <pt x="381" y="615" on="0"/>
        <pt x="383" y="625" on="1"/>
        <pt x="391" y="624" on="0"/>
        <pt x="402" y="612" on="0"/>
        <pt x="402" y="585" on="1"/>
        <pt x="402" y="575" on="0"/>
        <pt x="394" y="571" on="1"/>
        <pt x="394" y="557" on="0"/>
        <pt x="394" y="549" on="0"/>
        <pt x="395" y="542" on="1"/>
      </contour>
    </TTGlyph>
    <TTGlyph name="Upsilon" xMin="-1" yMin="0" xMax="533" yMax="636">
      <contour>
        <pt x="247" y="359" on="1"/>
        <pt x="243" y="389" on="0"/>
        <pt x="228" y="467" on="0"/>
        <pt x="198" y="535" on="0"/>
        <pt x="148" y="582" on="0"/>
        <pt x="110" y="582" on="1"/>
        <pt x="85" y="582" on="0"/>
        <pt x="58" y="561" on="0"/>
        <pt x="46" y="533" on="0"/>
        <pt x="44" y="506" on="0"/>
        <pt x="44" y="500" on="1"/>
        <pt x="0" y="500" on="1"/>
        <pt x="-1" y="503" on="0"/>
        <pt x="-1" y="508" on="0"/>
        <pt x="-1" y="516" on="1"/>
        <pt x="-1" y="538" on="0"/>
        <pt x="12" y="581" on="0"/>
        <pt x="38" y="615" on="0"/>
        <pt x="78" y="636" on="0"/>
        <pt x="104" y="636" on="1"/>
        <pt x="145" y="636" on="0"/>
        <pt x="203" y="596" on="0"/>
        <pt x="242" y="537" on="0"/>
        <pt x="265" y="469" on="0"/>
        <pt x="272" y="441" on="1"/>
        <pt x="273" y="441" on="1"/>
        <pt x="274" y="463" on="0"/>
        <pt x="282" y="530" on="0"/>
        <pt x="308" y="592" on="0"/>
        <pt x="359" y="636" on="0"/>
        <pt x="402" y="636" on="1"/>
        <pt x="428" y="636" on="0"/>
        <pt x="473" y="614" on="0"/>
        <pt x="507" y="577" on="0"/>
        <pt x="530" y="528" on="0"/>
        <pt x="533" y="500" on="1"/>
        <pt x="489" y="500" on="1"/>
        <pt x="484" y="535" on="0"/>
        <pt x="439" y="582" on="0"/>
        <pt x="407" y="582" on="1"/>
        <pt x="373" y="582" on="0"/>
        <pt x="334" y="545" on="0"/>
        <pt x="316" y="494" on="0"/>
        <pt x="312" y="439" on="0"/>
        <pt x="312" y="421" on="1"/>
        <pt x="312" y="406" on="0"/>
        <pt x="313" y="379" on="0"/>
        <pt x="316" y="343" on="0"/>
        <pt x="321" y="291" on="0"/>
        <pt x="325" y="251" on="1"/>
        <pt x="330" y="202" on="0"/>
        <pt x="339" y="105" on="0"/>
        <pt x="344" y="56" on="1"/>
        <pt x="348" y="55" on="0"/>
        <pt x="355" y="52" on="0"/>
        <pt x="359" y="45" on="0"/>
        <pt x="362" y="31" on="0"/>
        <pt x="362" y="18" on="1"/>
        <pt x="362" y="14" on="0"/>
        <pt x="359" y="1" on="0"/>
        <pt x="349" y="0" on="1"/>
        <pt x="340" y="10" on="0"/>
        <pt x="319" y="14" on="0"/>
        <pt x="315" y="14" on="1"/>
        <pt x="309" y="14" on="0"/>
        <pt x="294" y="9" on="0"/>
        <pt x="287" y="4" on="1"/>
        <pt x="284" y="1" on="0"/>
        <pt x="281" y="1" on="1"/>
        <pt x="275" y="1" on="0"/>
        <pt x="269" y="10" on="0"/>
        <pt x="266" y="23" on="0"/>
        <pt x="265" y="36" on="0"/>
        <pt x="265" y="40" on="1"/>
        <pt x="265" y="48" on="0"/>
        <pt x="268" y="52" on="1"/>
        <pt x="274" y="54" on="0"/>
        <pt x="278" y="61" on="0"/>
        <pt x="276" y="74" on="1"/>
      </contour>
    </TTGlyph>
    <TTGlyph name="V" xMin="-44" yMin="-25" xMax="491" yMax="625">
      <contour>
        <pt x="318" y="-25" on="1"/>
        <pt x="254" y="-25" on="1"/>
        <pt x="-12" y="568" on="1"/>
        <pt x="-29" y="568" on="0"/>
        <pt x="-44" y="579" on="0"/>
        <pt x="-44" y="609" on="1"/>
        <pt x="-44" y="615" on="0"/>
        <pt x="-39" y="621" on="0"/>
        <pt x="-37" y="623" on="1"/>
        <pt x="-36" y="625" on="1"/>
        <pt x="-34" y="623" on="0"/>
        <pt x="-29" y="623" on="0"/>
        <pt x="-27" y="621" on="1"/>
        <pt x="-15" y="613" on="0"/>
        <pt x="-4" y="611" on="0"/>
        <pt x="1" y="611" on="1"/>
        <pt x="17" y="611" on="0"/>
        <pt x="30" y="621" on="1"/>
        <pt x="33" y="624" on="0"/>
        <pt x="36" y="624" on="1"/>
        <pt x="46" y="624" on="0"/>
        <pt x="50" y="610" on="0"/>
        <pt x="50" y="606" on="1"/>
        <pt x="51" y="597" on="0"/>
        <pt x="53" y="590" on="0"/>
        <pt x="56" y="582" on="1"/>
        <pt x="174" y="317" on="1"/>
        <pt x="192" y="277" on="0"/>
        <pt x="225" y="197" on="0"/>
        <pt x="242" y="156" on="1"/>
        <pt x="247" y="144" on="0"/>
        <pt x="263" y="105" on="0"/>
        <pt x="280" y="63" on="0"/>
        <pt x="293" y="24" on="0"/>
        <pt x="296" y="12" on="1"/>
        <pt x="297" y="12" on="1"/>
        <pt x="297" y="27" on="0"/>
        <pt x="306" y="82" on="0"/>
        <pt x="319" y="149" on="0"/>
        <pt x="335" y="221" on="0"/>
        <pt x="348" y="280" on="0"/>
        <pt x="358" y="322" on="0"/>
        <pt x="359" y="325" on="1"/>
        <pt x="421" y="580" on="1"/>
        <pt x="423" y="588" on="0"/>
        <pt x="425" y="600" on="0"/>
        <pt x="423" y="608" on="1"/>
        <pt x="423" y="611" on="0"/>
        <pt x="426" y="623" on="0"/>
        <pt x="435" y="625" on="1"/>
        <pt x="442" y="611" on="0"/>
        <pt x="457" y="611" on="1"/>
        <pt x="471" y="611" on="0"/>
        <pt x="474" y="625" on="1"/>
        <pt x="482" y="623" on="0"/>
        <pt x="491" y="611" on="0"/>
        <pt x="491" y="584" on="1"/>
        <pt x="491" y="575" on="0"/>
        <pt x="482" y="570" on="0"/>
        <pt x="477" y="569" on="1"/>
        <pt x="474" y="568" on="0"/>
        <pt x="462" y="559" on="0"/>
        <pt x="457" y="538" on="1"/>
      </contour>
    </TTGlyph>
    <TTGlyph name="W" xMin="-44" yMin="-25" xMax="713" yMax="625">
      <contour>
        <pt x="523" y="200" on="1"/>
        <pt x="531" y="179" on="0"/>
        <pt x="546" y="129" on="0"/>
        <pt x="554" y="106" on="1"/>
        <pt x="561" y="83" on="0"/>
        <pt x="576" y="30" on="0"/>
        <pt x="579" y="13" on="1"/>
        <pt x="579" y="24" on="1"/>
        <pt x="579" y="34" on="0"/>
        <pt x="581" y="65" on="0"/>
        <pt x="585" y="101" on="0"/>
        <pt x="590" y="139" on="0"/>
        <pt x="592" y="157" on="1"/>
        <pt x="597" y="200" on="0"/>
        <pt x="610" y="285" on="0"/>
        <pt x="617" y="327" on="1"/>
        <pt x="656" y="560" on="1"/>
        <pt x="658" y="572" on="0"/>
        <pt x="659" y="579" on="0"/>
        <pt x="659" y="583" on="1"/>
        <pt x="659" y="588" on="0"/>
        <pt x="657" y="602" on="0"/>
        <pt x="657" y="607" on="1"/>
        <pt x="657" y="610" on="0"/>
        <pt x="660" y="623" on="0"/>
        <pt x="669" y="625" on="1"/>
        <pt x="670" y="621" on="0"/>
        <pt x="678" y="611" on="0"/>
        <pt x="685" y="611" on="1"/>
        <pt x="692" y="611" on="0"/>
        <pt x="696" y="620" on="0"/>
        <pt x="696" y="625" on="1"/>
        <pt x="704" y="623" on="0"/>
        <pt x="713" y="611" on="0"/>
        <pt x="713" y="584" on="1"/>
        <pt x="713" y="576" on="0"/>
        <pt x="704" y="570" on="0"/>
        <pt x="698" y="569" on="1"/>
        <pt x="695" y="564" on="0"/>
        <pt x="689" y="555" on="0"/>
        <pt x="687" y="541" on="1"/>
        <pt x="589" y="-25" on="1"/>
        <pt x="538" y="-25" on="1"/>
        <pt x="334" y="521" on="1"/>
        <pt x="333" y="521" on="1"/>
        <pt x="330" y="469" on="0"/>
        <pt x="315" y="341" on="0"/>
        <pt x="294" y="200" on="0"/>
        <pt x="269" y="50" on="0"/>
        <pt x="256" y="-25" on="1"/>
        <pt x="205" y="-25" on="1"/>
        <pt x="-17" y="569" on="1"/>
        <pt x="-31" y="569" on="0"/>
        <pt x="-44" y="579" on="0"/>
        <pt x="-44" y="609" on="1"/>
        <pt x="-44" y="617" on="0"/>
        <pt x="-36" y="624" on="0"/>
        <pt x="-34" y="624" on="1"/>
        <pt x="-32" y="624" on="0"/>
        <pt x="-30" y="623" on="0"/>
        <pt x="-25" y="620" on="1"/>
        <pt x="-20" y="616" on="0"/>
        <pt x="-7" y="611" on="0"/>
        <pt x="0" y="611" on="1"/>
        <pt x="6" y="611" on="0"/>
        <pt x="21" y="616" on="0"/>
        <pt x="28" y="621" on="1"/>
        <pt x="31" y="624" on="0"/>
        <pt x="34" y="624" on="1"/>
        <pt x="44" y="624" on="0"/>
        <pt x="48" y="606" on="0"/>
        <pt x="49" y="595" on="1"/>
        <pt x="50" y="590" on="0"/>
        <pt x="52" y="582" on="0"/>
        <pt x="57" y="567" on="1"/>
        <pt x="186" y="208" on="1"/>
        <pt x="216" y="123" on="0"/>
        <pt x="244" y="24" on="0"/>
        <pt x="246" y="13" on="1"/>
        <pt x="246" y="26" on="1"/>
        <pt x="246" y="38" on="0"/>
        <pt x="249" y="72" on="0"/>
        <pt x="252" y="108" on="0"/>
        <pt x="256" y="141" on="0"/>
        <pt x="257" y="151" on="1"/>
        <pt x="260" y="175" on="0"/>
        <pt x="265" y="211" on="0"/>
        <pt x="270" y="245" on="0"/>
        <pt x="276" y="281" on="0"/>
        <pt x="280" y="305" on="1"/>
        <pt x="319" y="536" on="1"/>
        <pt x="320" y="539" on="0"/>
        <pt x="321" y="551" on="0"/>
        <pt x="322" y="554" on="1"/>
        <pt x="316" y="569" on="1"/>
        <pt x="302" y="569" on="0"/>
        <pt x="289" y="579" on="0"/>
        <pt x="289" y="609" on="1"/>
        <pt x="289" y="617" on="0"/>
        <pt x="297" y="624" on="0"/>
        <pt x="299" y="624" on="1"/>
        <pt x="301" y="624" on="0"/>
        <pt x="303" y="623" on="0"/>
        <pt x="308" y="620" on="1"/>
        <pt x="313" y="616" on="0"/>
        <pt x="326" y="611" on="0"/>
        <pt x="333" y="611" on="1"/>
        <pt x="339" y="611" on="0"/>
        <pt x="354" y="616" on="0"/>
        <pt x="361" y="621" on="1"/>
        <pt x="364" y="624" on="0"/>
        <pt x="367" y="624" on="1"/>
        <pt x="377" y="624" on="0"/>
        <pt x="381" y="607" on="0"/>
        <pt x="382" y="595" on="1"/>
        <pt x="383" y="590" on="0"/>
        <pt x="385" y="581" on="0"/>
        <pt x="390" y="567" on="1"/>
      </contour>
    </TTGlyph>
    <TTGlyph name="X" xMin="-33" yMin="0" xMax="548" yMax="625">
      <contour>
        <pt x="483" y="76" on="1"/>
        <pt x="494" y="62" on="0"/>
        <pt x="506" y="56" on="0"/>
        <pt x="522" y="56" on="1"/>
        <pt x="529" y="56" on="0"/>
        <pt x="539" y="55" on="0"/>
        <pt x="545" y="48" on="0"/>
        <pt x="548" y="32" on="0"/>
        <pt x="548" y="18" on="1"/>
        <pt x="548" y="13" on="0"/>
        <pt x="547" y="6" on="0"/>
        <pt x="543" y="3" on="1"/>
        <pt x="540" y="0" on="1"/>
        <pt x="538" y="2" on="0"/>
        <pt x="531" y="4" on="0"/>
        <pt x="529" y="5" on="1"/>
        <pt x="515" y="12" on="0"/>
        <pt x="500" y="14" on="0"/>
        <pt x="496" y="14" on="1"/>
        <pt x="477" y="14" on="0"/>
        <pt x="463" y="4" on="1"/>
        <pt x="459" y="2" on="0"/>
        <pt x="456" y="1" on="0"/>
        <pt x="455" y="1" on="1"/>
        <pt x="451" y="1" on="0"/>
        <pt x="444" y="5" on="0"/>
        <pt x="442" y="12" on="1"/>
        <pt x="441" y="14" on="0"/>
        <pt x="439" y="20" on="0"/>
        <pt x="432" y="28" on="1"/>
        <pt x="242" y="277" on="1"/>
        <pt x="101" y="26" on="1"/>
        <pt x="101" y="10" on="0"/>
        <pt x="97" y="3" on="0"/>
        <pt x="89" y="0" on="1"/>
        <pt x="81" y="9" on="0"/>
        <pt x="63" y="14" on="0"/>
        <pt x="58" y="14" on="1"/>
        <pt x="39" y="14" on="0"/>
        <pt x="30" y="0" on="1"/>
        <pt x="22" y="3" on="0"/>
        <pt x="13" y="15" on="0"/>
        <pt x="13" y="40" on="1"/>
        <pt x="13" y="51" on="0"/>
        <pt x="25" y="56" on="0"/>
        <pt x="30" y="56" on="1"/>
        <pt x="43" y="57" on="0"/>
        <pt x="72" y="69" on="0"/>
        <pt x="84" y="90" on="1"/>
        <pt x="211" y="316" on="1"/>
        <pt x="31" y="551" on="1"/>
        <pt x="22" y="563" on="0"/>
        <pt x="11" y="569" on="0"/>
        <pt x="-6" y="569" on="1"/>
        <pt x="-20" y="569" on="0"/>
        <pt x="-33" y="579" on="0"/>
        <pt x="-33" y="609" on="1"/>
        <pt x="-33" y="615" on="0"/>
        <pt x="-29" y="621" on="0"/>
        <pt x="-26" y="623" on="1"/>
        <pt x="-25" y="625" on="1"/>
        <pt x="-23" y="623" on="0"/>
        <pt x="-16" y="622" on="0"/>
        <pt x="-14" y="620" on="1"/>
        <pt x="0" y="613" on="0"/>
        <pt x="13" y="611" on="0"/>
        <pt x="19" y="611" on="1"/>
        <pt x="26" y="611" on="0"/>
        <pt x="44" y="615" on="0"/>
        <pt x="52" y="620" on="1"/>
        <pt x="56" y="623" on="0"/>
        <pt x="59" y="624" on="0"/>
        <pt x="61" y="624" on="1"/>
        <pt x="72" y="624" on="0"/>
        <pt x="74" y="611" on="1"/>
        <pt x="75" y="610" on="0"/>
        <pt x="77" y="606" on="0"/>
        <pt x="82" y="599" on="1"/>
        <pt x="248" y="382" on="1"/>
        <pt x="363" y="586" on="1"/>
        <pt x="368" y="594" on="0"/>
        <pt x="369" y="600" on="0"/>
        <pt x="369" y="608" on="1"/>
        <pt x="369" y="610" on="0"/>
        <pt x="373" y="623" on="0"/>
        <pt x="381" y="625" on="1"/>
        <pt x="393" y="611" on="0"/>
        <pt x="413" y="611" on="1"/>
        <pt x="432" y="611" on="0"/>
        <pt x="441" y="625" on="1"/>
        <pt x="445" y="624" on="0"/>
        <pt x="451" y="621" on="0"/>
        <pt x="456" y="613" on="0"/>
        <pt x="458" y="599" on="0"/>
        <pt x="458" y="586" on="1"/>
        <pt x="458" y="574" on="0"/>
        <pt x="447" y="570" on="0"/>
        <pt x="441" y="569" on="1"/>
        <pt x="415" y="567" on="0"/>
        <pt x="394" y="544" on="0"/>
        <pt x="387" y="533" on="1"/>
        <pt x="279" y="342" on="1"/>
      </contour>
    </TTGlyph>
    <TTGlyph name="Xi" xMin="-24" yMin="0" xMax="510" yMax="631">
      <contour>
        <pt x="44" y="576" on="1"/>
        <pt x="27" y="576" on="0"/>
        <pt x="20" y="574" on="0"/>
        <pt x="18" y="571" on="1"/>
        <pt x="12" y="564" on="0"/>
        <pt x="3" y="564" on="1"/>
        <pt x="-7" y="564" on="0"/>
        <pt x="-13" y="574" on="0"/>
        <pt x="-17" y="586" on="1"/>
        <pt x="-19" y="595" on="0"/>
        <pt x="-24" y="614" on="0"/>
        <pt x="-24" y="617" on="1"/>
        <pt x="-24" y="628" on="0"/>
        <pt x="-8" y="631" on="0"/>
        <pt x="4" y="631" on="1"/>
        <pt x="417" y="631" on="1"/>
        <pt x="432" y="631" on="0"/>
        <pt x="445" y="627" on="0"/>
        <pt x="445" y="613" on="1"/>
        <pt x="445" y="595" on="0"/>
        <pt x="442" y="575" on="0"/>
        <pt x="437" y="566" on="0"/>
        <pt x="430" y="564" on="0"/>
        <pt x="426" y="564" on="1"/>
        <pt x="413" y="564" on="0"/>
        <pt x="410" y="575" on="1"/>
        <pt x="404" y="576" on="0"/>
        <pt x="388" y="576" on="0"/>
        <pt x="382" y="576" on="1"/>
      </contour>
      <contour>
        <pt x="59" y="0" on="1"/>
        <pt x="43" y="0" on="0"/>
        <pt x="31" y="5" on="0"/>
        <pt x="31" y="19" on="1"/>
        <pt x="31" y="38" on="0"/>
        <pt x="34" y="58" on="0"/>
        <pt x="39" y="67" on="0"/>
        <pt x="46" y="69" on="0"/>
        <pt x="50" y="69" on="1"/>
        <pt x="58" y="69" on="0"/>
        <pt x="64" y="64" on="0"/>
        <pt x="66" y="60" on="1"/>
        <pt x="68" y="56" on="0"/>
        <pt x="83" y="55" on="0"/>
        <pt x="97" y="55" on="1"/>
        <pt x="439" y="55" on="1"/>
        <pt x="464" y="55" on="0"/>
        <pt x="467" y="59" on="1"/>
        <pt x="469" y="63" on="0"/>
        <pt x="475" y="69" on="0"/>
        <pt x="483" y="69" on="1"/>
        <pt x="493" y="69" on="0"/>
        <pt x="499" y="60" on="0"/>
        <pt x="502" y="47" on="1"/>
        <pt x="510" y="20" on="0"/>
        <pt x="510" y="14" on="1"/>
        <pt x="510" y="3" on="0"/>
        <pt x="493" y="0" on="0"/>
        <pt x="482" y="0" on="1"/>
      </contour>
      <contour>
        <pt x="116" y="301" on="1"/>
        <pt x="112" y="295" on="0"/>
        <pt x="103" y="295" on="1"/>
        <pt x="92" y="295" on="0"/>
        <pt x="82" y="316" on="0"/>
        <pt x="82" y="346" on="1"/>
        <pt x="82" y="362" on="0"/>
        <pt x="99" y="362" on="1"/>
        <pt x="108" y="362" on="0"/>
        <pt x="112" y="356" on="1"/>
        <pt x="362" y="356" on="1"/>
        <pt x="367" y="362" on="0"/>
        <pt x="376" y="362" on="1"/>
        <pt x="396" y="362" on="0"/>
        <pt x="396" y="312" on="1"/>
        <pt x="396" y="305" on="0"/>
        <pt x="389" y="295" on="0"/>
        <pt x="379" y="295" on="1"/>
        <pt x="371" y="295" on="0"/>
        <pt x="366" y="301" on="1"/>
      </contour>
    </TTGlyph>
    <TTGlyph name="Y" xMin="-53" yMin="0" xMax="500" yMax="625">
      <contour>
        <pt x="294" y="250" on="1"/>
        <pt x="313" y="56" on="1"/>
        <pt x="321" y="53" on="0"/>
        <pt x="328" y="41" on="0"/>
        <pt x="328" y="18" on="1"/>
        <pt x="328" y="14" on="0"/>
        <pt x="325" y="1" on="0"/>
        <pt x="317" y="1" on="1"/>
        <pt x="316" y="1" on="0"/>
        <pt x="312" y="3" on="1"/>
        <pt x="305" y="9" on="0"/>
        <pt x="289" y="14" on="0"/>
        <pt x="283" y="14" on="1"/>
        <pt x="267" y="14" on="0"/>
        <pt x="254" y="4" on="0"/>
        <pt x="251" y="0" on="1"/>
        <pt x="243" y="2" on="0"/>
        <pt x="234" y="14" on="0"/>
        <pt x="234" y="39" on="1"/>
        <pt x="234" y="42" on="0"/>
        <pt x="235" y="50" on="0"/>
        <pt x="239" y="53" on="1"/>
        <pt x="243" y="56" on="0"/>
        <pt x="242" y="69" on="0"/>
        <pt x="242" y="73" on="1"/>
        <pt x="224" y="250" on="1"/>
        <pt x="8" y="551" on="1"/>
        <pt x="-2" y="564" on="0"/>
        <pt x="-14" y="569" on="0"/>
        <pt x="-26" y="569" on="1"/>
        <pt x="-40" y="569" on="0"/>
        <pt x="-53" y="579" on="0"/>
        <pt x="-53" y="609" on="1"/>
        <pt x="-53" y="615" on="0"/>
        <pt x="-49" y="621" on="0"/>
        <pt x="-46" y="623" on="1"/>
        <pt x="-45" y="625" on="1"/>
        <pt x="-35" y="621" on="1"/>
        <pt x="-21" y="613" on="0"/>
        <pt x="-10" y="611" on="0"/>
        <pt x="-3" y="611" on="1"/>
        <pt x="2" y="611" on="0"/>
        <pt x="20" y="615" on="0"/>
        <pt x="29" y="622" on="1"/>
        <pt x="33" y="624" on="0"/>
        <pt x="36" y="624" on="1"/>
        <pt x="38" y="624" on="0"/>
        <pt x="49" y="619" on="0"/>
        <pt x="49" y="606" on="1"/>
        <pt x="84" y="557" on="0"/>
        <pt x="159" y="454" on="0"/>
        <pt x="222" y="359" on="0"/>
        <pt x="266" y="283" on="0"/>
        <pt x="272" y="261" on="1"/>
        <pt x="273" y="261" on="1"/>
        <pt x="274" y="276" on="0"/>
        <pt x="288" y="319" on="0"/>
        <pt x="308" y="365" on="0"/>
        <pt x="328" y="409" on="0"/>
        <pt x="335" y="424" on="1"/>
        <pt x="357" y="471" on="0"/>
        <pt x="402" y="562" on="0"/>
        <pt x="427" y="607" on="1"/>
        <pt x="427" y="611" on="1"/>
        <pt x="426" y="615" on="0"/>
        <pt x="433" y="624" on="0"/>
        <pt x="437" y="624" on="1"/>
        <pt x="440" y="624" on="0"/>
        <pt x="443" y="620" on="1"/>
        <pt x="446" y="617" on="0"/>
        <pt x="457" y="611" on="0"/>
        <pt x="463" y="611" on="1"/>
        <pt x="475" y="611" on="0"/>
        <pt x="482" y="623" on="0"/>
        <pt x="483" y="625" on="1"/>
        <pt x="491" y="623" on="0"/>
        <pt x="500" y="612" on="0"/>
        <pt x="500" y="587" on="1"/>
        <pt x="500" y="581" on="0"/>
        <pt x="496" y="571" on="0"/>
        <pt x="485" y="569" on="1"/>
        <pt x="466" y="567" on="0"/>
        <pt x="448" y="548" on="0"/>
        <pt x="442" y="536" on="1"/>
      </contour>
    </TTGlyph>
    <TTGlyph name="Z" xMin="-8" yMin="0" xMax="465" yMax="625">
      <contour>
        <pt x="130" y="53" on="1"/>
        <pt x="258" y="53" on="1"/>
        <pt x="265" y="53" on="0"/>
        <pt x="289" y="54" on="0"/>
        <pt x="313" y="57" on="1"/>
        <pt x="342" y="61" on="0"/>
        <pt x="364" y="62" on="0"/>
        <pt x="373" y="62" on="1"/>
        <pt x="385" y="62" on="1"/>
        <pt x="396" y="62" on="0"/>
        <pt x="408" y="63" on="0"/>
        <pt x="415" y="67" on="1"/>
        <pt x="415" y="72" on="1"/>
        <pt x="413" y="75" on="0"/>
        <pt x="420" y="86" on="0"/>
        <pt x="430" y="86" on="1"/>
        <pt x="439" y="86" on="0"/>
        <pt x="446" y="77" on="0"/>
        <pt x="454" y="54" on="1"/>
        <pt x="457" y="43" on="0"/>
        <pt x="465" y="17" on="0"/>
        <pt x="465" y="14" on="1"/>
        <pt x="465" y="3" on="0"/>
        <pt x="448" y="0" on="0"/>
        <pt x="437" y="0" on="1"/>
        <pt x="50" y="0" on="1"/>
        <pt x="49" y="5" on="0"/>
        <pt x="48" y="30" on="0"/>
        <pt x="47" y="36" on="1"/>
        <pt x="308" y="569" on="1"/>
        <pt x="192" y="569" on="1"/>
        <pt x="187" y="569" on="0"/>
        <pt x="178" y="569" on="0"/>
        <pt x="167" y="568" on="0"/>
        <pt x="151" y="566" on="0"/>
        <pt x="138" y="564" on="1"/>
        <pt x="116" y="561" on="0"/>
        <pt x="102" y="560" on="0"/>
        <pt x="90" y="560" on="1"/>
        <pt x="79" y="560" on="0"/>
        <pt x="69" y="561" on="0"/>
        <pt x="63" y="561" on="0"/>
        <pt x="60" y="562" on="0"/>
        <pt x="56" y="562" on="1"/>
        <pt x="45" y="562" on="0"/>
        <pt x="40" y="557" on="0"/>
        <pt x="39" y="553" on="1"/>
        <pt x="36" y="541" on="0"/>
        <pt x="23" y="541" on="1"/>
        <pt x="13" y="541" on="0"/>
        <pt x="7" y="551" on="0"/>
        <pt x="2" y="569" on="1"/>
        <pt x="-2" y="583" on="0"/>
        <pt x="-6" y="599" on="0"/>
        <pt x="-8" y="607" on="0"/>
        <pt x="-8" y="610" on="0"/>
        <pt x="-8" y="611" on="1"/>
        <pt x="-8" y="622" on="0"/>
        <pt x="9" y="625" on="0"/>
        <pt x="20" y="625" on="1"/>
        <pt x="388" y="625" on="1"/>
        <pt x="391" y="587" on="1"/>
      </contour>
    </TTGlyph>
    <TTGlyph name="a" xMin="32" yMin="-6" xMax="396" yMax="537">
      <contour>
        <pt x="270" y="24" on="1"/>
        <pt x="252" y="13" on="0"/>
        <pt x="209" y="1" on="0"/>
        <pt x="169" y="-5" on="0"/>
        <pt x="139" y="-6" on="0"/>
        <pt x="135" y="-6" on="1"/>
        <pt x="105" y="-6" on="0"/>
        <pt x="67" y="18" on="0"/>
        <pt x="45" y="49" on="0"/>
        <pt x="36" y="81" on="0"/>
        <pt x="36" y="89" on="1"/>
        <pt x="36" y="113" on="0"/>
        <pt x="78" y="150" on="0"/>
        <pt x="142" y="174" on="0"/>
        <pt x="219" y="186" on="0"/>
        <pt x="253" y="186" on="1"/>
        <pt x="248" y="238" on="0"/>
        <pt x="241" y="305" on="0"/>
        <pt x="231" y="353" on="0"/>
        <pt x="217" y="393" on="0"/>
        <pt x="205" y="418" on="1"/>
        <pt x="182" y="465" on="0"/>
        <pt x="150" y="498" on="0"/>
        <pt x="131" y="498" on="1"/>
        <pt x="106" y="498" on="0"/>
        <pt x="79" y="470" on="0"/>
        <pt x="66" y="432" on="0"/>
        <pt x="64" y="393" on="0"/>
        <pt x="64" y="382" on="1"/>
        <pt x="64" y="374" on="0"/>
        <pt x="65" y="334" on="0"/>
        <pt x="67" y="320" on="1"/>
        <pt x="68" y="315" on="0"/>
        <pt x="76" y="313" on="1"/>
        <pt x="95" y="308" on="0"/>
        <pt x="105" y="286" on="0"/>
        <pt x="105" y="277" on="1"/>
        <pt x="105" y="247" on="0"/>
        <pt x="74" y="247" on="1"/>
        <pt x="62" y="247" on="0"/>
        <pt x="47" y="257" on="0"/>
        <pt x="40" y="272" on="0"/>
        <pt x="37" y="288" on="0"/>
        <pt x="37" y="295" on="1"/>
        <pt x="35" y="315" on="0"/>
        <pt x="32" y="352" on="0"/>
        <pt x="32" y="374" on="1"/>
        <pt x="32" y="399" on="0"/>
        <pt x="38" y="456" on="0"/>
        <pt x="58" y="505" on="0"/>
        <pt x="96" y="537" on="0"/>
        <pt x="128" y="537" on="1"/>
        <pt x="152" y="537" on="0"/>
        <pt x="194" y="502" on="0"/>
        <pt x="227" y="456" on="0"/>
        <pt x="249" y="413" on="0"/>
        <pt x="253" y="405" on="1"/>
        <pt x="264" y="382" on="0"/>
        <pt x="276" y="348" on="0"/>
        <pt x="285" y="305" on="0"/>
        <pt x="292" y="243" on="0"/>
        <pt x="297" y="191" on="1"/>
        <pt x="300" y="163" on="0"/>
        <pt x="305" y="109" on="0"/>
        <pt x="308" y="81" on="1"/>
        <pt x="310" y="61" on="0"/>
        <pt x="319" y="37" on="0"/>
        <pt x="339" y="37" on="1"/>
        <pt x="349" y="37" on="0"/>
        <pt x="362" y="45" on="0"/>
        <pt x="362" y="56" on="1"/>
        <pt x="362" y="61" on="0"/>
        <pt x="359" y="83" on="0"/>
        <pt x="359" y="85" on="1"/>
        <pt x="359" y="100" on="0"/>
        <pt x="376" y="100" on="1"/>
        <pt x="384" y="100" on="0"/>
        <pt x="396" y="85" on="0"/>
        <pt x="396" y="52" on="1"/>
        <pt x="396" y="29" on="0"/>
        <pt x="357" y="-3" on="0"/>
        <pt x="327" y="-3" on="1"/>
        <pt x="310" y="-3" on="0"/>
        <pt x="281" y="12" on="0"/>
      </contour>
      <contour>
        <pt x="257" y="147" on="1"/>
        <pt x="234" y="147" on="0"/>
        <pt x="179" y="140" on="0"/>
        <pt x="131" y="126" on="0"/>
        <pt x="98" y="103" on="0"/>
        <pt x="98" y="87" on="1"/>
        <pt x="98" y="79" on="0"/>
        <pt x="107" y="60" on="0"/>
        <pt x="125" y="44" on="0"/>
        <pt x="153" y="33" on="0"/>
        <pt x="172" y="33" on="1"/>
        <pt x="209" y="33" on="0"/>
        <pt x="257" y="57" on="0"/>
        <pt x="257" y="69" on="1"/>
        <pt x="257" y="71" on="0"/>
        <pt x="255" y="86" on="0"/>
        <pt x="255" y="89" on="1"/>
        <pt x="255" y="97" on="0"/>
        <pt x="261" y="104" on="0"/>
        <pt x="262" y="104" on="1"/>
      </contour>
    </TTGlyph>
    <TTGlyph name="acute" xMin="105" yMin="556" xMax="257" yMax="611">
      <contour>
        <pt x="123" y="556" on="1"/>
        <pt x="119" y="556" on="0"/>
        <pt x="105" y="560" on="0"/>
        <pt x="105" y="574" on="1"/>
        <pt x="105" y="583" on="0"/>
        <pt x="116" y="588" on="0"/>
        <pt x="126" y="590" on="1"/>
        <pt x="221" y="609" on="1"/>
        <pt x="231" y="611" on="0"/>
        <pt x="235" y="611" on="1"/>
        <pt x="245" y="611" on="0"/>
        <pt x="257" y="597" on="0"/>
        <pt x="257" y="588" on="1"/>
        <pt x="257" y="574" on="0"/>
        <pt x="237" y="567" on="0"/>
        <pt x="228" y="566" on="1"/>
      </contour>
    </TTGlyph>
    <TTGlyph name="ae" xMin="33" yMin="-6" xMax="553" yMax="537">
      <contour>
        <pt x="322" y="167" on="1"/>
        <pt x="326" y="160" on="0"/>
        <pt x="350" y="115" on="0"/>
        <pt x="386" y="67" on="0"/>
        <pt x="430" y="30" on="0"/>
        <pt x="452" y="30" on="1"/>
        <pt x="471" y="30" on="0"/>
        <pt x="512" y="53" on="0"/>
        <pt x="520" y="82" on="1"/>
        <pt x="553" y="82" on="1"/>
        <pt x="548" y="60" on="0"/>
        <pt x="524" y="27" on="0"/>
        <pt x="492" y="5" on="0"/>
        <pt x="454" y="-6" on="0"/>
        <pt x="435" y="-6" on="1"/>
        <pt x="404" y="-6" on="0"/>
        <pt x="347" y="40" on="0"/>
        <pt x="307" y="99" on="1"/>
        <pt x="306" y="99" on="1"/>
        <pt x="307" y="94" on="0"/>
        <pt x="307" y="88" on="0"/>
        <pt x="307" y="83" on="1"/>
        <pt x="307" y="54" on="0"/>
        <pt x="270" y="19" on="0"/>
        <pt x="217" y="0" on="0"/>
        <pt x="158" y="-6" on="0"/>
        <pt x="137" y="-6" on="1"/>
        <pt x="105" y="-6" on="0"/>
        <pt x="65" y="18" on="0"/>
        <pt x="42" y="50" on="0"/>
        <pt x="33" y="82" on="0"/>
        <pt x="33" y="89" on="1"/>
        <pt x="33" y="104" on="0"/>
        <pt x="53" y="136" on="0"/>
        <pt x="104" y="163" on="0"/>
        <pt x="190" y="184" on="0"/>
        <pt x="255" y="187" on="1"/>
        <pt x="250" y="229" on="0"/>
        <pt x="244" y="293" on="0"/>
        <pt x="241" y="313" on="1"/>
        <pt x="238" y="331" on="0"/>
        <pt x="218" y="394" on="0"/>
        <pt x="189" y="454" on="0"/>
        <pt x="152" y="498" on="0"/>
        <pt x="132" y="498" on="1"/>
        <pt x="107" y="498" on="0"/>
        <pt x="79" y="471" on="0"/>
        <pt x="66" y="434" on="0"/>
        <pt x="64" y="394" on="0"/>
        <pt x="64" y="381" on="1"/>
        <pt x="64" y="374" on="0"/>
        <pt x="65" y="356" on="0"/>
        <pt x="66" y="338" on="0"/>
        <pt x="67" y="324" on="0"/>
        <pt x="67" y="320" on="1"/>
        <pt x="68" y="315" on="0"/>
        <pt x="76" y="313" on="1"/>
        <pt x="95" y="308" on="0"/>
        <pt x="105" y="286" on="0"/>
        <pt x="105" y="277" on="1"/>
        <pt x="105" y="247" on="0"/>
        <pt x="74" y="247" on="1"/>
        <pt x="59" y="247" on="0"/>
        <pt x="42" y="265" on="0"/>
        <pt x="34" y="297" on="0"/>
        <pt x="33" y="344" on="0"/>
        <pt x="33" y="372" on="1"/>
        <pt x="33" y="388" on="0"/>
        <pt x="36" y="443" on="0"/>
        <pt x="54" y="497" on="0"/>
        <pt x="92" y="537" on="0"/>
        <pt x="128" y="537" on="1"/>
        <pt x="133" y="537" on="0"/>
        <pt x="149" y="535" on="0"/>
        <pt x="170" y="525" on="0"/>
        <pt x="194" y="502" on="0"/>
        <pt x="208" y="482" on="1"/>
        <pt x="223" y="462" on="0"/>
        <pt x="251" y="414" on="0"/>
        <pt x="259" y="396" on="1"/>
        <pt x="283" y="474" on="0"/>
        <pt x="336" y="537" on="0"/>
        <pt x="368" y="537" on="1"/>
        <pt x="400" y="537" on="0"/>
        <pt x="458" y="478" on="0"/>
        <pt x="504" y="377" on="0"/>
        <pt x="537" y="242" on="0"/>
        <pt x="544" y="167" on="1"/>
      </contour>
      <contour>
        <pt x="467" y="206" on="1"/>
        <pt x="466" y="218" on="0"/>
        <pt x="458" y="271" on="0"/>
        <pt x="447" y="335" on="0"/>
        <pt x="430" y="405" on="0"/>
        <pt x="410" y="461" on="0"/>
        <pt x="385" y="498" on="0"/>
        <pt x="371" y="498" on="1"/>
        <pt x="353" y="498" on="0"/>
        <pt x="323" y="449" on="0"/>
        <pt x="301" y="382" on="0"/>
        <pt x="289" y="312" on="0"/>
        <pt x="289" y="291" on="1"/>
        <pt x="289" y="269" on="0"/>
        <pt x="298" y="223" on="0"/>
        <pt x="304" y="206" on="1"/>
      </contour>
      <contour>
        <pt x="259" y="148" on="1"/>
        <pt x="243" y="148" on="0"/>
        <pt x="187" y="142" on="0"/>
        <pt x="134" y="128" on="0"/>
        <pt x="95" y="105" on="0"/>
        <pt x="95" y="87" on="1"/>
        <pt x="95" y="79" on="0"/>
        <pt x="104" y="60" on="0"/>
        <pt x="122" y="44" on="0"/>
        <pt x="152" y="33" on="0"/>
        <pt x="173" y="33" on="1"/>
        <pt x="181" y="33" on="0"/>
        <pt x="212" y="36" on="0"/>
        <pt x="242" y="47" on="0"/>
        <pt x="265" y="69" on="0"/>
        <pt x="265" y="88" on="1"/>
        <pt x="265" y="91" on="0"/>
        <pt x="264" y="107" on="0"/>
        <pt x="262" y="126" on="0"/>
        <pt x="260" y="143" on="0"/>
      </contour>
    </TTGlyph>
    <TTGlyph name="ampersand" xMin="25" yMin="-11" xMax="575" yMax="622">
      <contour>
        <pt x="130" y="311" on="1"/>
        <pt x="135" y="316" on="0"/>
        <pt x="137" y="320" on="0"/>
        <pt x="137" y="321" on="1"/>
        <pt x="137" y="322" on="0"/>
        <pt x="136" y="324" on="0"/>
        <pt x="134" y="328" on="1"/>
        <pt x="117" y="367" on="0"/>
        <pt x="95" y="452" on="0"/>
        <pt x="95" y="496" on="1"/>
        <pt x="95" y="560" on="0"/>
        <pt x="145" y="622" on="0"/>
        <pt x="181" y="622" on="1"/>
        <pt x="207" y="622" on="0"/>
        <pt x="244" y="592" on="0"/>
        <pt x="267" y="548" on="0"/>
        <pt x="278" y="501" on="0"/>
        <pt x="278" y="483" on="1"/>
        <pt x="278" y="461" on="0"/>
        <pt x="261" y="416" on="0"/>
        <pt x="235" y="373" on="0"/>
        <pt x="203" y="333" on="0"/>
        <pt x="188" y="315" on="1"/>
        <pt x="203" y="284" on="0"/>
        <pt x="246" y="221" on="0"/>
        <pt x="289" y="166" on="0"/>
        <pt x="325" y="126" on="0"/>
        <pt x="332" y="119" on="1"/>
        <pt x="354" y="148" on="0"/>
        <pt x="391" y="224" on="0"/>
        <pt x="411" y="283" on="1"/>
        <pt x="415" y="293" on="0"/>
        <pt x="428" y="331" on="0"/>
        <pt x="443" y="376" on="0"/>
        <pt x="459" y="424" on="0"/>
        <pt x="472" y="465" on="0"/>
        <pt x="481" y="495" on="0"/>
        <pt x="482" y="498" on="1"/>
        <pt x="483" y="500" on="0"/>
        <pt x="482" y="506" on="0"/>
        <pt x="482" y="511" on="1"/>
        <pt x="482" y="513" on="0"/>
        <pt x="485" y="526" on="0"/>
        <pt x="494" y="528" on="1"/>
        <pt x="495" y="525" on="0"/>
        <pt x="503" y="514" on="0"/>
        <pt x="510" y="514" on="1"/>
        <pt x="516" y="514" on="0"/>
        <pt x="521" y="523" on="0"/>
        <pt x="521" y="528" on="1"/>
        <pt x="525" y="527" on="0"/>
        <pt x="531" y="524" on="0"/>
        <pt x="536" y="516" on="0"/>
        <pt x="538" y="502" on="0"/>
        <pt x="538" y="489" on="1"/>
        <pt x="538" y="486" on="0"/>
        <pt x="535" y="475" on="0"/>
        <pt x="527" y="473" on="1"/>
        <pt x="518" y="471" on="0"/>
        <pt x="507" y="466" on="0"/>
        <pt x="502" y="455" on="1"/>
        <pt x="500" y="450" on="0"/>
        <pt x="487" y="410" on="0"/>
        <pt x="480" y="388" on="1"/>
        <pt x="459" y="322" on="0"/>
        <pt x="426" y="231" on="0"/>
        <pt x="399" y="166" on="0"/>
        <pt x="373" y="117" on="0"/>
        <pt x="358" y="93" on="1"/>
        <pt x="398" y="59" on="0"/>
        <pt x="453" y="45" on="0"/>
        <pt x="469" y="45" on="1"/>
        <pt x="478" y="45" on="0"/>
        <pt x="502" y="47" on="0"/>
        <pt x="524" y="54" on="0"/>
        <pt x="541" y="68" on="0"/>
        <pt x="542" y="80" on="1"/>
        <pt x="543" y="87" on="0"/>
        <pt x="547" y="97" on="0"/>
        <pt x="558" y="97" on="1"/>
        <pt x="569" y="97" on="0"/>
        <pt x="575" y="86" on="0"/>
        <pt x="575" y="75" on="1"/>
        <pt x="575" y="56" on="0"/>
        <pt x="559" y="25" on="0"/>
        <pt x="530" y="2" on="0"/>
        <pt x="493" y="-11" on="0"/>
        <pt x="472" y="-11" on="1"/>
        <pt x="434" y="-11" on="0"/>
        <pt x="365" y="26" on="0"/>
        <pt x="330" y="58" on="1"/>
        <pt x="301" y="26" on="0"/>
        <pt x="229" y="-11" on="0"/>
        <pt x="186" y="-11" on="1"/>
        <pt x="152" y="-11" on="0"/>
        <pt x="93" y="16" on="0"/>
        <pt x="49" y="59" on="0"/>
        <pt x="25" y="115" on="0"/>
        <pt x="25" y="143" on="1"/>
        <pt x="25" y="154" on="0"/>
        <pt x="35" y="203" on="0"/>
        <pt x="57" y="228" on="1"/>
      </contour>
      <contour>
        <pt x="169" y="355" on="1"/>
        <pt x="206" y="400" on="0"/>
        <pt x="245" y="465" on="0"/>
        <pt x="245" y="489" on="1"/>
        <pt x="245" y="492" on="0"/>
        <pt x="241" y="523" on="0"/>
        <pt x="228" y="556" on="0"/>
        <pt x="205" y="583" on="0"/>
        <pt x="185" y="583" on="1"/>
        <pt x="157" y="583" on="0"/>
        <pt x="131" y="536" on="0"/>
        <pt x="131" y="507" on="1"/>
        <pt x="131" y="500" on="0"/>
        <pt x="135" y="467" on="0"/>
        <pt x="144" y="425" on="0"/>
        <pt x="158" y="378" on="0"/>
      </contour>
      <contour>
        <pt x="111" y="227" on="1"/>
        <pt x="99" y="213" on="0"/>
        <pt x="80" y="183" on="0"/>
        <pt x="80" y="157" on="1"/>
        <pt x="80" y="134" on="0"/>
        <pt x="100" y="93" on="0"/>
        <pt x="134" y="63" on="0"/>
        <pt x="179" y="45" on="0"/>
        <pt x="203" y="45" on="1"/>
        <pt x="217" y="45" on="0"/>
        <pt x="273" y="58" on="0"/>
        <pt x="302" y="86" on="1"/>
        <pt x="284" y="106" on="0"/>
        <pt x="244" y="154" on="0"/>
        <pt x="206" y="205" on="0"/>
        <pt x="171" y="256" on="0"/>
        <pt x="158" y="280" on="1"/>
      </contour>
    </TTGlyph>
    <TTGlyph name="asterisk" xMin="4" yMin="139" xMax="327" yMax="667">
      <contour>
        <pt x="209" y="176" on="1"/>
        <pt x="210" y="158" on="1"/>
        <pt x="210" y="151" on="0"/>
        <pt x="201" y="139" on="0"/>
        <pt x="191" y="139" on="1"/>
        <pt x="183" y="139" on="0"/>
        <pt x="174" y="147" on="0"/>
        <pt x="169" y="157" on="0"/>
        <pt x="167" y="168" on="0"/>
        <pt x="167" y="172" on="1"/>
        <pt x="150" y="358" on="1"/>
        <pt x="69" y="274" on="1"/>
        <pt x="59" y="264" on="0"/>
        <pt x="50" y="264" on="1"/>
        <pt x="42" y="264" on="0"/>
        <pt x="27" y="277" on="0"/>
        <pt x="27" y="287" on="1"/>
        <pt x="27" y="293" on="0"/>
        <pt x="32" y="300" on="0"/>
        <pt x="40" y="308" on="1"/>
        <pt x="136" y="403" on="1"/>
        <pt x="19" y="499" on="1"/>
        <pt x="4" y="511" on="0"/>
        <pt x="4" y="523" on="1"/>
        <pt x="4" y="528" on="0"/>
        <pt x="12" y="542" on="0"/>
        <pt x="23" y="542" on="1"/>
        <pt x="26" y="542" on="0"/>
        <pt x="36" y="538" on="0"/>
        <pt x="44" y="531" on="1"/>
        <pt x="141" y="448" on="1"/>
        <pt x="121" y="637" on="1"/>
        <pt x="121" y="639" on="0"/>
        <pt x="121" y="645" on="0"/>
        <pt x="120" y="647" on="1"/>
        <pt x="119" y="649" on="0"/>
        <pt x="126" y="667" on="0"/>
        <pt x="139" y="667" on="1"/>
        <pt x="155" y="667" on="0"/>
        <pt x="162" y="643" on="0"/>
        <pt x="163" y="635" on="1"/>
        <pt x="180" y="448" on="1"/>
        <pt x="260" y="530" on="1"/>
        <pt x="268" y="538" on="0"/>
        <pt x="277" y="542" on="0"/>
        <pt x="280" y="542" on="1"/>
        <pt x="287" y="542" on="0"/>
        <pt x="303" y="531" on="0"/>
        <pt x="303" y="519" on="1"/>
        <pt x="303" y="515" on="0"/>
        <pt x="300" y="507" on="0"/>
        <pt x="292" y="499" on="1"/>
        <pt x="194" y="403" on="1"/>
        <pt x="313" y="306" on="1"/>
        <pt x="324" y="298" on="0"/>
        <pt x="327" y="286" on="0"/>
        <pt x="327" y="284" on="1"/>
        <pt x="327" y="274" on="0"/>
        <pt x="314" y="264" on="0"/>
        <pt x="308" y="264" on="1"/>
        <pt x="306" y="264" on="0"/>
        <pt x="295" y="267" on="0"/>
        <pt x="286" y="275" on="1"/>
        <pt x="189" y="358" on="1"/>
      </contour>
    </TTGlyph>
    <TTGlyph name="at" xMin="18" yMin="-6" xMax="576" yMax="617">
      <contour>
        <pt x="456" y="196" on="1"/>
        <pt x="458" y="177" on="0"/>
        <pt x="471" y="150" on="0"/>
        <pt x="487" y="150" on="1"/>
        <pt x="501" y="150" on="0"/>
        <pt x="516" y="167" on="0"/>
        <pt x="523" y="191" on="0"/>
        <pt x="525" y="218" on="0"/>
        <pt x="525" y="228" on="1"/>
        <pt x="525" y="272" on="0"/>
        <pt x="515" y="338" on="0"/>
        <pt x="495" y="391" on="0"/>
        <pt x="468" y="435" on="0"/>
        <pt x="451" y="456" on="1"/>
        <pt x="442" y="468" on="0"/>
        <pt x="404" y="509" on="0"/>
        <pt x="353" y="549" on="0"/>
        <pt x="292" y="578" on="0"/>
        <pt x="259" y="578" on="1"/>
        <pt x="218" y="578" on="0"/>
        <pt x="142" y="528" on="0"/>
        <pt x="85" y="453" on="0"/>
        <pt x="51" y="365" on="0"/>
        <pt x="51" y="327" on="1"/>
        <pt x="51" y="280" on="0"/>
        <pt x="95" y="180" on="0"/>
        <pt x="150" y="123" on="1"/>
        <pt x="177" y="94" on="0"/>
        <pt x="224" y="59" on="0"/>
        <pt x="266" y="39" on="0"/>
        <pt x="303" y="33" on="0"/>
        <pt x="320" y="33" on="1"/>
        <pt x="353" y="33" on="0"/>
        <pt x="453" y="46" on="0"/>
        <pt x="511" y="67" on="1"/>
        <pt x="520" y="71" on="0"/>
        <pt x="529" y="72" on="0"/>
        <pt x="540" y="72" on="1"/>
        <pt x="576" y="72" on="1"/>
        <pt x="519" y="34" on="0"/>
        <pt x="391" y="-6" on="0"/>
        <pt x="322" y="-6" on="1"/>
        <pt x="307" y="-6" on="0"/>
        <pt x="269" y="-1" on="0"/>
        <pt x="221" y="20" on="0"/>
        <pt x="163" y="63" on="0"/>
        <pt x="128" y="100" on="1"/>
        <pt x="106" y="123" on="0"/>
        <pt x="66" y="176" on="0"/>
        <pt x="36" y="233" on="0"/>
        <pt x="18" y="296" on="0"/>
        <pt x="18" y="330" on="1"/>
        <pt x="18" y="374" on="0"/>
        <pt x="57" y="475" on="0"/>
        <pt x="123" y="560" on="0"/>
        <pt x="209" y="617" on="0"/>
        <pt x="255" y="617" on="1"/>
        <pt x="287" y="617" on="0"/>
        <pt x="346" y="593" on="0"/>
        <pt x="398" y="557" on="0"/>
        <pt x="443" y="515" on="0"/>
        <pt x="459" y="496" on="1"/>
        <pt x="488" y="462" on="0"/>
        <pt x="526" y="402" on="0"/>
        <pt x="548" y="342" on="0"/>
        <pt x="556" y="280" on="0"/>
        <pt x="556" y="244" on="1"/>
        <pt x="556" y="232" on="0"/>
        <pt x="553" y="187" on="0"/>
        <pt x="538" y="144" on="0"/>
        <pt x="507" y="111" on="0"/>
        <pt x="479" y="111" on="1"/>
        <pt x="453" y="111" on="0"/>
        <pt x="417" y="155" on="0"/>
        <pt x="413" y="193" on="1"/>
        <pt x="385" y="147" on="0"/>
        <pt x="332" y="111" on="0"/>
        <pt x="305" y="111" on="1"/>
        <pt x="278" y="111" on="0"/>
        <pt x="215" y="149" on="0"/>
        <pt x="162" y="210" on="0"/>
        <pt x="126" y="285" on="0"/>
        <pt x="126" y="321" on="1"/>
        <pt x="126" y="350" on="0"/>
        <pt x="150" y="413" on="0"/>
        <pt x="189" y="466" on="0"/>
        <pt x="240" y="500" on="0"/>
        <pt x="267" y="500" on="1"/>
        <pt x="291" y="500" on="0"/>
        <pt x="334" y="475" on="0"/>
        <pt x="369" y="444" on="0"/>
        <pt x="392" y="415" on="0"/>
        <pt x="395" y="411" on="1"/>
        <pt x="435" y="411" on="1"/>
      </contour>
      <contour>
        <pt x="302" y="150" on="1"/>
        <pt x="325" y="150" on="0"/>
        <pt x="363" y="180" on="0"/>
        <pt x="390" y="221" on="0"/>
        <pt x="405" y="261" on="0"/>
        <pt x="405" y="270" on="1"/>
        <pt x="405" y="273" on="0"/>
        <pt x="403" y="290" on="0"/>
        <pt x="401" y="310" on="0"/>
        <pt x="399" y="328" on="0"/>
        <pt x="399" y="331" on="1"/>
        <pt x="397" y="348" on="0"/>
        <pt x="372" y="392" on="0"/>
        <pt x="335" y="433" on="0"/>
        <pt x="292" y="461" on="0"/>
        <pt x="271" y="461" on="1"/>
        <pt x="250" y="461" on="0"/>
        <pt x="213" y="433" on="0"/>
        <pt x="186" y="391" on="0"/>
        <pt x="170" y="341" on="0"/>
        <pt x="170" y="319" on="1"/>
        <pt x="170" y="291" on="0"/>
        <pt x="196" y="231" on="0"/>
        <pt x="235" y="181" on="0"/>
        <pt x="281" y="150" on="0"/>
      </contour>
    </TTGlyph>
    <TTGlyph name="b" xMin="15" yMin="-6" xMax="376" yMax="639">
      <contour>
        <pt x="87" y="465" on="1"/>
        <pt x="101" y="493" on="0"/>
        <pt x="151" y="534" on="0"/>
        <pt x="193" y="534" on="1"/>
        <pt x="204" y="534" on="0"/>
        <pt x="228" y="529" on="0"/>
        <pt x="257" y="508" on="0"/>
        <pt x="293" y="467" on="0"/>
        <pt x="315" y="431" on="1"/>
        <pt x="350" y="374" on="0"/>
        <pt x="376" y="276" on="0"/>
        <pt x="376" y="233" on="1"/>
        <pt x="376" y="203" on="0"/>
        <pt x="359" y="121" on="0"/>
        <pt x="326" y="46" on="0"/>
        <pt x="277" y="-6" on="0"/>
        <pt x="246" y="-6" on="1"/>
        <pt x="217" y="-6" on="0"/>
        <pt x="150" y="25" on="0"/>
        <pt x="118" y="67" on="1"/>
        <pt x="118" y="30" on="1"/>
        <pt x="118" y="16" on="0"/>
        <pt x="114" y="0" on="0"/>
        <pt x="101" y="0" on="1"/>
        <pt x="90" y="0" on="0"/>
        <pt x="85" y="14" on="0"/>
        <pt x="83" y="26" on="1"/>
        <pt x="29" y="567" on="1"/>
        <pt x="29" y="568" on="0"/>
        <pt x="26" y="583" on="0"/>
        <pt x="26" y="585" on="1"/>
        <pt x="24" y="585" on="0"/>
        <pt x="23" y="586" on="1"/>
        <pt x="21" y="587" on="1"/>
        <pt x="19" y="594" on="0"/>
        <pt x="15" y="613" on="0"/>
        <pt x="15" y="623" on="1"/>
        <pt x="15" y="633" on="0"/>
        <pt x="27" y="639" on="0"/>
        <pt x="29" y="639" on="1"/>
        <pt x="32" y="639" on="0"/>
        <pt x="42" y="634" on="0"/>
        <pt x="57" y="618" on="1"/>
        <pt x="64" y="612" on="0"/>
        <pt x="68" y="611" on="1"/>
        <pt x="70" y="610" on="0"/>
        <pt x="72" y="605" on="0"/>
        <pt x="74" y="594" on="1"/>
      </contour>
      <contour>
        <pt x="116" y="139" on="1"/>
        <pt x="118" y="124" on="0"/>
        <pt x="133" y="87" on="0"/>
        <pt x="160" y="55" on="0"/>
        <pt x="197" y="33" on="0"/>
        <pt x="219" y="33" on="1"/>
        <pt x="242" y="33" on="0"/>
        <pt x="270" y="71" on="0"/>
        <pt x="290" y="118" on="1"/>
        <pt x="293" y="125" on="0"/>
        <pt x="303" y="151" on="0"/>
        <pt x="313" y="185" on="0"/>
        <pt x="320" y="224" on="0"/>
        <pt x="320" y="243" on="1"/>
        <pt x="320" y="281" on="0"/>
        <pt x="292" y="359" on="0"/>
        <pt x="274" y="393" on="1"/>
        <pt x="253" y="431" on="0"/>
        <pt x="224" y="473" on="0"/>
        <pt x="203" y="492" on="0"/>
        <pt x="188" y="495" on="0"/>
        <pt x="181" y="495" on="1"/>
        <pt x="154" y="495" on="0"/>
        <pt x="120" y="471" on="0"/>
        <pt x="100" y="438" on="0"/>
        <pt x="93" y="402" on="0"/>
        <pt x="94" y="390" on="1"/>
        <pt x="92" y="390" on="0"/>
        <pt x="91" y="389" on="1"/>
      </contour>
    </TTGlyph>
    <TTGlyph name="bracketleft" xMin="24" yMin="-361" xMax="248" yMax="667">
      <contour>
        <pt x="172" y="-311" on="1"/>
        <pt x="217" y="-311" on="1"/>
        <pt x="235" y="-311" on="0"/>
        <pt x="248" y="-320" on="0"/>
        <pt x="248" y="-346" on="1"/>
        <pt x="248" y="-357" on="0"/>
        <pt x="231" y="-361" on="0"/>
        <pt x="219" y="-361" on="1"/>
        <pt x="154" y="-361" on="1"/>
        <pt x="137" y="-361" on="0"/>
        <pt x="126" y="-355" on="0"/>
        <pt x="124" y="-336" on="1"/>
        <pt x="27" y="639" on="1"/>
        <pt x="27" y="650" on="1"/>
        <pt x="24" y="663" on="0"/>
        <pt x="43" y="667" on="0"/>
        <pt x="54" y="667" on="1"/>
        <pt x="119" y="667" on="1"/>
        <pt x="128" y="667" on="0"/>
        <pt x="139" y="666" on="0"/>
        <pt x="147" y="660" on="0"/>
        <pt x="150" y="646" on="0"/>
        <pt x="150" y="633" on="1"/>
        <pt x="150" y="621" on="0"/>
        <pt x="134" y="617" on="0"/>
        <pt x="121" y="617" on="1"/>
        <pt x="79" y="617" on="1"/>
      </contour>
    </TTGlyph>
    <TTGlyph name="bracketright" xMin="-42" yMin="-361" xMax="180" yMax="667">
      <contour>
        <pt x="178" y="-327" on="1"/>
        <pt x="178" y="-330" on="0"/>
        <pt x="180" y="-344" on="0"/>
        <pt x="180" y="-346" on="1"/>
        <pt x="180" y="-357" on="0"/>
        <pt x="163" y="-361" on="0"/>
        <pt x="151" y="-361" on="1"/>
        <pt x="86" y="-361" on="1"/>
        <pt x="69" y="-361" on="0"/>
        <pt x="56" y="-353" on="0"/>
        <pt x="56" y="-329" on="1"/>
        <pt x="56" y="-315" on="0"/>
        <pt x="69" y="-311" on="0"/>
        <pt x="84" y="-311" on="1"/>
        <pt x="126" y="-311" on="1"/>
        <pt x="33" y="617" on="1"/>
        <pt x="-12" y="617" on="1"/>
        <pt x="-29" y="617" on="0"/>
        <pt x="-42" y="625" on="0"/>
        <pt x="-42" y="650" on="1"/>
        <pt x="-42" y="663" on="0"/>
        <pt x="-28" y="667" on="0"/>
        <pt x="-14" y="667" on="1"/>
        <pt x="51" y="667" on="1"/>
        <pt x="69" y="667" on="0"/>
        <pt x="79" y="661" on="0"/>
        <pt x="81" y="642" on="1"/>
      </contour>
    </TTGlyph>
    <TTGlyph name="breve" xMin="16" yMin="546" xMax="276" yMax="611">
      <contour>
        <pt x="276" y="593" on="1"/>
        <pt x="276" y="575" on="0"/>
        <pt x="252" y="556" on="0"/>
        <pt x="215" y="547" on="0"/>
        <pt x="170" y="546" on="0"/>
        <pt x="149" y="546" on="1"/>
        <pt x="131" y="546" on="0"/>
        <pt x="84" y="548" on="0"/>
        <pt x="44" y="557" on="0"/>
        <pt x="16" y="577" on="0"/>
        <pt x="16" y="596" on="1"/>
        <pt x="16" y="607" on="0"/>
        <pt x="30" y="611" on="0"/>
        <pt x="35" y="611" on="1"/>
        <pt x="44" y="611" on="0"/>
        <pt x="51" y="607" on="0"/>
        <pt x="54" y="601" on="1"/>
        <pt x="57" y="596" on="0"/>
        <pt x="76" y="590" on="0"/>
        <pt x="103" y="587" on="0"/>
        <pt x="134" y="587" on="0"/>
        <pt x="148" y="587" on="1"/>
        <pt x="159" y="587" on="0"/>
        <pt x="188" y="587" on="0"/>
        <pt x="215" y="589" on="0"/>
        <pt x="235" y="594" on="0"/>
        <pt x="237" y="598" on="1"/>
        <pt x="240" y="606" on="0"/>
        <pt x="246" y="611" on="0"/>
        <pt x="257" y="611" on="1"/>
        <pt x="268" y="611" on="0"/>
        <pt x="276" y="603" on="0"/>
      </contour>
    </TTGlyph>
    <TTGlyph name="c" xMin="10" yMin="-6" xMax="331" yMax="537">
      <contour>
        <pt x="331" y="83" on="1"/>
        <pt x="321" y="39" on="0"/>
        <pt x="254" y="-6" on="0"/>
        <pt x="209" y="-6" on="1"/>
        <pt x="196" y="-6" on="0"/>
        <pt x="167" y="2" on="0"/>
        <pt x="135" y="24" on="0"/>
        <pt x="99" y="64" on="0"/>
        <pt x="77" y="97" on="1"/>
        <pt x="45" y="144" on="0"/>
        <pt x="10" y="242" on="0"/>
        <pt x="10" y="293" on="1"/>
        <pt x="10" y="325" on="0"/>
        <pt x="31" y="410" on="0"/>
        <pt x="68" y="485" on="0"/>
        <pt x="121" y="537" on="0"/>
        <pt x="153" y="537" on="1"/>
        <pt x="186" y="537" on="0"/>
        <pt x="233" y="504" on="0"/>
        <pt x="264" y="454" on="0"/>
        <pt x="284" y="393" on="0"/>
        <pt x="290" y="365" on="1"/>
        <pt x="293" y="350" on="0"/>
        <pt x="297" y="319" on="0"/>
        <pt x="301" y="292" on="0"/>
        <pt x="303" y="272" on="0"/>
        <pt x="303" y="270" on="1"/>
        <pt x="303" y="264" on="0"/>
        <pt x="292" y="241" on="0"/>
        <pt x="272" y="241" on="1"/>
        <pt x="254" y="241" on="0"/>
        <pt x="235" y="265" on="0"/>
        <pt x="235" y="278" on="1"/>
        <pt x="235" y="289" on="0"/>
        <pt x="242" y="301" on="0"/>
        <pt x="253" y="307" on="0"/>
        <pt x="263" y="309" on="0"/>
        <pt x="266" y="309" on="1"/>
        <pt x="262" y="347" on="0"/>
        <pt x="249" y="416" on="0"/>
        <pt x="224" y="469" on="0"/>
        <pt x="186" y="501" on="0"/>
        <pt x="158" y="501" on="1"/>
        <pt x="134" y="501" on="0"/>
        <pt x="107" y="459" on="0"/>
        <pt x="92" y="420" on="1"/>
        <pt x="78" y="380" on="0"/>
        <pt x="66" y="315" on="0"/>
        <pt x="66" y="291" on="1"/>
        <pt x="66" y="246" on="0"/>
        <pt x="94" y="167" on="0"/>
        <pt x="117" y="130" on="1"/>
        <pt x="135" y="100" on="0"/>
        <pt x="165" y="61" on="0"/>
        <pt x="191" y="39" on="0"/>
        <pt x="214" y="30" on="0"/>
        <pt x="226" y="30" on="1"/>
        <pt x="235" y="30" on="0"/>
        <pt x="256" y="34" on="0"/>
        <pt x="277" y="45" on="0"/>
        <pt x="294" y="66" on="0"/>
        <pt x="298" y="83" on="1"/>
      </contour>
    </TTGlyph>
    <TTGlyph name="caron" xMin="34" yMin="533" xMax="262" yMax="593">
      <contour>
        <pt x="233" y="591" on="1"/>
        <pt x="244" y="593" on="0"/>
        <pt x="262" y="588" on="0"/>
        <pt x="262" y="574" on="1"/>
        <pt x="262" y="566" on="0"/>
        <pt x="251" y="560" on="0"/>
        <pt x="240" y="557" on="1"/>
        <pt x="151" y="533" on="1"/>
        <pt x="55" y="557" on="1"/>
        <pt x="44" y="560" on="0"/>
        <pt x="34" y="567" on="0"/>
        <pt x="34" y="575" on="1"/>
        <pt x="34" y="587" on="0"/>
        <pt x="50" y="593" on="0"/>
        <pt x="63" y="591" on="1"/>
        <pt x="143" y="581" on="1"/>
      </contour>
    </TTGlyph>
    <TTGlyph name="cedilla" xMin="141" yMin="-259" xMax="310" yMax="17">
      <contour>
        <pt x="232" y="-46" on="1"/>
        <pt x="254" y="-54" on="0"/>
        <pt x="284" y="-82" on="0"/>
        <pt x="302" y="-114" on="0"/>
        <pt x="310" y="-146" on="0"/>
        <pt x="310" y="-158" on="1"/>
        <pt x="310" y="-184" on="0"/>
        <pt x="284" y="-222" on="0"/>
        <pt x="241" y="-247" on="0"/>
        <pt x="186" y="-259" on="0"/>
        <pt x="157" y="-259" on="1"/>
        <pt x="145" y="-259" on="0"/>
        <pt x="141" y="-242" on="0"/>
        <pt x="141" y="-238" on="1"/>
        <pt x="141" y="-227" on="0"/>
        <pt x="151" y="-220" on="0"/>
        <pt x="162" y="-220" on="1"/>
        <pt x="181" y="-220" on="0"/>
        <pt x="218" y="-212" on="0"/>
        <pt x="248" y="-197" on="0"/>
        <pt x="266" y="-173" on="0"/>
        <pt x="266" y="-157" on="1"/>
        <pt x="266" y="-128" on="0"/>
        <pt x="232" y="-84" on="0"/>
        <pt x="204" y="-80" on="1"/>
        <pt x="195" y="-78" on="0"/>
        <pt x="190" y="-67" on="0"/>
        <pt x="188" y="-49" on="1"/>
        <pt x="188" y="-46" on="0"/>
        <pt x="187" y="-31" on="0"/>
        <pt x="185" y="-15" on="0"/>
        <pt x="184" y="0" on="0"/>
        <pt x="184" y="2" on="1"/>
        <pt x="184" y="13" on="0"/>
        <pt x="199" y="17" on="0"/>
        <pt x="205" y="17" on="1"/>
        <pt x="221" y="17" on="0"/>
        <pt x="226" y="8" on="0"/>
        <pt x="228" y="-5" on="1"/>
        <pt x="230" y="-16" on="0"/>
        <pt x="231" y="-35" on="0"/>
      </contour>
    </TTGlyph>
    <TTGlyph name="circumflex" xMin="36" yMin="542" xMax="263" yMax="611">
      <contour>
        <pt x="246" y="576" on="1"/>
        <pt x="255" y="573" on="0"/>
        <pt x="263" y="567" on="0"/>
        <pt x="263" y="559" on="1"/>
        <pt x="263" y="558" on="0"/>
        <pt x="259" y="542" on="0"/>
        <pt x="248" y="542" on="1"/>
        <pt x="148" y="563" on="1"/>
        <pt x="64" y="544" on="1"/>
        <pt x="57" y="542" on="0"/>
        <pt x="53" y="542" on="0"/>
        <pt x="52" y="542" on="1"/>
        <pt x="41" y="542" on="0"/>
        <pt x="36" y="558" on="0"/>
        <pt x="36" y="560" on="1"/>
        <pt x="36" y="567" on="0"/>
        <pt x="44" y="572" on="0"/>
        <pt x="53" y="576" on="1"/>
        <pt x="145" y="611" on="1"/>
        <pt x="150" y="610" on="0"/>
        <pt x="154" y="609" on="0"/>
        <pt x="160" y="607" on="1"/>
      </contour>
    </TTGlyph>
    <TTGlyph name="colon" xMin="28" yMin="0" xMax="153" yMax="528">
      <contour>
        <pt x="107" y="456" on="1"/>
        <pt x="35" y="456" on="1"/>
        <pt x="28" y="528" on="1"/>
        <pt x="100" y="528" on="1"/>
      </contour>
      <contour>
        <pt x="153" y="0" on="1"/>
        <pt x="81" y="0" on="1"/>
        <pt x="74" y="72" on="1"/>
        <pt x="146" y="72" on="1"/>
      </contour>
    </TTGlyph>
    <TTGlyph name="comma" xMin="74" yMin="-194" xMax="153" yMax="72">
      <contour>
        <pt x="100" y="-171" on="1"/>
        <pt x="100" y="-157" on="0"/>
        <pt x="101" y="-110" on="0"/>
        <pt x="102" y="-61" on="0"/>
        <pt x="103" y="-14" on="0"/>
        <pt x="103" y="0" on="1"/>
        <pt x="81" y="0" on="1"/>
        <pt x="74" y="72" on="1"/>
        <pt x="146" y="72" on="1"/>
        <pt x="146" y="71" on="0"/>
        <pt x="147" y="59" on="0"/>
        <pt x="148" y="46" on="0"/>
        <pt x="149" y="35" on="0"/>
        <pt x="149" y="35" on="1"/>
        <pt x="151" y="27" on="0"/>
        <pt x="153" y="7" on="0"/>
        <pt x="153" y="0" on="1"/>
        <pt x="153" y="-6" on="0"/>
        <pt x="149" y="-60" on="0"/>
        <pt x="143" y="-125" on="0"/>
        <pt x="137" y="-183" on="0"/>
        <pt x="136" y="-194" on="1"/>
        <pt x="100" y="-194" on="1"/>
      </contour>
    </TTGlyph>
    <TTGlyph name="d" xMin="10" yMin="-6" xMax="360" yMax="639">
      <contour>
        <pt x="346" y="72" on="1"/>
        <pt x="346" y="71" on="0"/>
        <pt x="349" y="56" on="0"/>
        <pt x="349" y="54" on="1"/>
        <pt x="351" y="52" on="0"/>
        <pt x="354" y="53" on="0"/>
        <pt x="356" y="48" on="1"/>
        <pt x="357" y="44" on="0"/>
        <pt x="360" y="20" on="0"/>
        <pt x="360" y="16" on="1"/>
        <pt x="360" y="6" on="0"/>
        <pt x="349" y="0" on="0"/>
        <pt x="346" y="0" on="1"/>
        <pt x="342" y="0" on="0"/>
        <pt x="335" y="5" on="0"/>
        <pt x="333" y="7" on="1"/>
        <pt x="330" y="11" on="0"/>
        <pt x="317" y="24" on="0"/>
        <pt x="315" y="25" on="1"/>
        <pt x="313" y="27" on="0"/>
        <pt x="308" y="27" on="0"/>
        <pt x="306" y="28" on="1"/>
        <pt x="302" y="63" on="1"/>
        <pt x="287" y="41" on="0"/>
        <pt x="254" y="13" on="0"/>
        <pt x="223" y="-1" on="0"/>
        <pt x="195" y="-6" on="0"/>
        <pt x="184" y="-6" on="1"/>
        <pt x="171" y="-6" on="0"/>
        <pt x="145" y="2" on="0"/>
        <pt x="117" y="27" on="0"/>
        <pt x="84" y="71" on="0"/>
        <pt x="64" y="107" on="1"/>
        <pt x="41" y="148" on="0"/>
        <pt x="10" y="245" on="0"/>
        <pt x="10" y="293" on="1"/>
        <pt x="10" y="323" on="0"/>
        <pt x="29" y="406" on="0"/>
        <pt x="64" y="481" on="0"/>
        <pt x="116" y="534" on="0"/>
        <pt x="149" y="534" on="1"/>
        <pt x="185" y="534" on="0"/>
        <pt x="238" y="500" on="0"/>
        <pt x="258" y="475" on="1"/>
        <pt x="249" y="567" on="1"/>
        <pt x="249" y="568" on="0"/>
        <pt x="246" y="583" on="0"/>
        <pt x="246" y="585" on="1"/>
        <pt x="244" y="585" on="0"/>
        <pt x="243" y="586" on="1"/>
        <pt x="241" y="587" on="1"/>
        <pt x="239" y="594" on="0"/>
        <pt x="235" y="613" on="0"/>
        <pt x="235" y="623" on="1"/>
        <pt x="235" y="633" on="0"/>
        <pt x="247" y="639" on="0"/>
        <pt x="249" y="639" on="1"/>
        <pt x="252" y="639" on="0"/>
        <pt x="262" y="634" on="0"/>
        <pt x="277" y="618" on="1"/>
        <pt x="279" y="616" on="0"/>
        <pt x="282" y="614" on="0"/>
        <pt x="284" y="613" on="1"/>
        <pt x="286" y="611" on="0"/>
        <pt x="291" y="611" on="0"/>
        <pt x="292" y="611" on="1"/>
      </contour>
      <contour>
        <pt x="271" y="379" on="1"/>
        <pt x="270" y="386" on="0"/>
        <pt x="269" y="391" on="0"/>
        <pt x="266" y="395" on="1"/>
        <pt x="263" y="413" on="0"/>
        <pt x="247" y="449" on="0"/>
        <pt x="221" y="478" on="0"/>
        <pt x="188" y="495" on="0"/>
        <pt x="167" y="495" on="1"/>
        <pt x="146" y="495" on="0"/>
        <pt x="116" y="459" on="0"/>
        <pt x="98" y="414" on="1"/>
        <pt x="88" y="391" on="0"/>
        <pt x="76" y="355" on="0"/>
        <pt x="69" y="325" on="0"/>
        <pt x="67" y="299" on="0"/>
        <pt x="67" y="286" on="1"/>
        <pt x="67" y="253" on="0"/>
        <pt x="87" y="184" on="0"/>
        <pt x="115" y="132" on="1"/>
        <pt x="133" y="100" on="0"/>
        <pt x="159" y="61" on="0"/>
        <pt x="179" y="40" on="0"/>
        <pt x="196" y="33" on="0"/>
        <pt x="205" y="33" on="1"/>
        <pt x="229" y="33" on="0"/>
        <pt x="265" y="58" on="0"/>
        <pt x="287" y="93" on="0"/>
        <pt x="297" y="131" on="0"/>
        <pt x="295" y="145" on="1"/>
      </contour>
    </TTGlyph>
    <TTGlyph name="dieresis" xMin="28" yMin="595" xMax="262" yMax="612">
      <contour>
        <pt x="108" y="595" on="1"/>
        <pt x="30" y="595" on="1"/>
        <pt x="28" y="612" on="1"/>
        <pt x="106" y="612" on="1"/>
      </contour>
      <contour>
        <pt x="262" y="595" on="1"/>
        <pt x="184" y="595" on="1"/>
        <pt x="183" y="612" on="1"/>
        <pt x="261" y="612" on="1"/>
      </contour>
    </TTGlyph>
    <TTGlyph name="dotaccent" xMin="19" yMin="595" xMax="93" yMax="612">
      <contour>
        <pt x="93" y="595" on="1"/>
        <pt x="21" y="595" on="1"/>
        <pt x="19" y="612" on="1"/>
        <pt x="91" y="612" on="1"/>
      </contour>
    </TTGlyph>
    <TTGlyph name="dotlessi" xMin="20" yMin="0" xMax="132" yMax="528">
      <contour>
        <pt x="119" y="71" on="1"/>
        <pt x="120" y="60" on="0"/>
        <pt x="121" y="55" on="0"/>
        <pt x="123" y="53" on="1"/>
        <pt x="126" y="50" on="0"/>
        <pt x="130" y="38" on="0"/>
        <pt x="132" y="26" on="0"/>
        <pt x="132" y="16" on="0"/>
        <pt x="132" y="16" on="1"/>
        <pt x="132" y="5" on="0"/>
        <pt x="126" y="0" on="1"/>
        <pt x="119" y="0" on="1"/>
        <pt x="116" y="9" on="0"/>
        <pt x="103" y="14" on="0"/>
        <pt x="101" y="14" on="1"/>
        <pt x="89" y="14" on="0"/>
        <pt x="85" y="0" on="1"/>
        <pt x="77" y="2" on="0"/>
        <pt x="67" y="14" on="0"/>
        <pt x="67" y="42" on="1"/>
        <pt x="67" y="48" on="0"/>
        <pt x="70" y="52" on="1"/>
        <pt x="72" y="54" on="0"/>
        <pt x="72" y="69" on="0"/>
        <pt x="72" y="72" on="1"/>
        <pt x="33" y="456" on="1"/>
        <pt x="33" y="459" on="0"/>
        <pt x="32" y="460" on="1"/>
        <pt x="31" y="473" on="1"/>
        <pt x="24" y="481" on="0"/>
        <pt x="20" y="492" on="0"/>
        <pt x="20" y="511" on="1"/>
        <pt x="20" y="515" on="0"/>
        <pt x="24" y="528" on="0"/>
        <pt x="34" y="528" on="1"/>
        <pt x="37" y="528" on="0"/>
        <pt x="45" y="523" on="0"/>
        <pt x="58" y="510" on="1"/>
        <pt x="64" y="504" on="0"/>
        <pt x="69" y="502" on="0"/>
        <pt x="72" y="500" on="1"/>
        <pt x="74" y="499" on="0"/>
        <pt x="76" y="494" on="0"/>
        <pt x="78" y="483" on="1"/>
      </contour>
    </TTGlyph>
    <TTGlyph name="e" xMin="6" yMin="-6" xMax="331" yMax="537">
      <contour>
        <pt x="96" y="167" on="1"/>
        <pt x="104" y="152" on="0"/>
        <pt x="123" y="123" on="0"/>
        <pt x="139" y="99" on="0"/>
        <pt x="150" y="83" on="0"/>
        <pt x="150" y="83" on="1"/>
        <pt x="171" y="56" on="0"/>
        <pt x="207" y="30" on="0"/>
        <pt x="227" y="30" on="1"/>
        <pt x="230" y="30" on="0"/>
        <pt x="249" y="32" on="0"/>
        <pt x="271" y="42" on="0"/>
        <pt x="293" y="63" on="0"/>
        <pt x="298" y="82" on="1"/>
        <pt x="331" y="82" on="1"/>
        <pt x="325" y="57" on="0"/>
        <pt x="297" y="24" on="0"/>
        <pt x="262" y="3" on="0"/>
        <pt x="224" y="-6" on="0"/>
        <pt x="208" y="-6" on="1"/>
        <pt x="173" y="-6" on="0"/>
        <pt x="114" y="40" on="0"/>
        <pt x="81" y="87" on="1"/>
        <pt x="46" y="135" on="0"/>
        <pt x="6" y="238" on="0"/>
        <pt x="6" y="295" on="1"/>
        <pt x="6" y="327" on="0"/>
        <pt x="25" y="410" on="0"/>
        <pt x="60" y="485" on="0"/>
        <pt x="110" y="537" on="0"/>
        <pt x="141" y="537" on="1"/>
        <pt x="174" y="537" on="0"/>
        <pt x="233" y="479" on="0"/>
        <pt x="281" y="378" on="0"/>
        <pt x="315" y="244" on="0"/>
        <pt x="322" y="167" on="1"/>
      </contour>
      <contour>
        <pt x="245" y="206" on="1"/>
        <pt x="244" y="215" on="0"/>
        <pt x="237" y="266" on="0"/>
        <pt x="225" y="331" on="0"/>
        <pt x="208" y="401" on="0"/>
        <pt x="187" y="460" on="0"/>
        <pt x="160" y="498" on="0"/>
        <pt x="145" y="498" on="1"/>
        <pt x="127" y="498" on="0"/>
        <pt x="97" y="447" on="0"/>
        <pt x="74" y="378" on="0"/>
        <pt x="62" y="309" on="0"/>
        <pt x="62" y="290" on="1"/>
        <pt x="62" y="282" on="0"/>
        <pt x="67" y="235" on="0"/>
        <pt x="78" y="206" on="1"/>
      </contour>
    </TTGlyph>
    <TTGlyph name="eight" xMin="17" yMin="-11" xMax="357" yMax="594">
      <contour>
        <pt x="221" y="322" on="1"/>
        <pt x="246" y="306" on="0"/>
        <pt x="275" y="285" on="0"/>
        <pt x="293" y="271" on="0"/>
        <pt x="303" y="263" on="0"/>
        <pt x="307" y="258" on="1"/>
        <pt x="335" y="229" on="0"/>
        <pt x="357" y="166" on="0"/>
        <pt x="357" y="144" on="1"/>
        <pt x="357" y="117" on="0"/>
        <pt x="330" y="61" on="0"/>
        <pt x="286" y="17" on="0"/>
        <pt x="232" y="-11" on="0"/>
        <pt x="206" y="-11" on="1"/>
        <pt x="180" y="-11" on="0"/>
        <pt x="116" y="19" on="0"/>
        <pt x="61" y="67" on="0"/>
        <pt x="24" y="127" on="0"/>
        <pt x="24" y="158" on="1"/>
        <pt x="24" y="181" on="0"/>
        <pt x="41" y="226" on="0"/>
        <pt x="70" y="265" on="0"/>
        <pt x="106" y="298" on="0"/>
        <pt x="124" y="310" on="1"/>
        <pt x="108" y="321" on="0"/>
        <pt x="70" y="347" on="0"/>
        <pt x="38" y="383" on="0"/>
        <pt x="17" y="429" on="0"/>
        <pt x="17" y="459" on="1"/>
        <pt x="17" y="483" on="0"/>
        <pt x="41" y="532" on="0"/>
        <pt x="79" y="570" on="0"/>
        <pt x="124" y="594" on="0"/>
        <pt x="146" y="594" on="1"/>
        <pt x="170" y="594" on="0"/>
        <pt x="226" y="567" on="0"/>
        <pt x="273" y="524" on="0"/>
        <pt x="304" y="472" on="0"/>
        <pt x="304" y="447" on="1"/>
        <pt x="304" y="429" on="0"/>
        <pt x="290" y="394" on="0"/>
        <pt x="267" y="361" on="0"/>
        <pt x="237" y="333" on="0"/>
      </contour>
      <contour>
        <pt x="189" y="344" on="1"/>
        <pt x="228" y="367" on="0"/>
        <pt x="263" y="427" on="0"/>
        <pt x="263" y="448" on="1"/>
        <pt x="263" y="466" on="0"/>
        <pt x="239" y="497" on="0"/>
        <pt x="205" y="519" on="0"/>
        <pt x="167" y="532" on="0"/>
        <pt x="152" y="532" on="1"/>
        <pt x="138" y="532" on="0"/>
        <pt x="105" y="521" on="0"/>
        <pt x="76" y="503" on="0"/>
        <pt x="57" y="478" on="0"/>
        <pt x="57" y="463" on="1"/>
        <pt x="57" y="440" on="0"/>
        <pt x="88" y="412" on="0"/>
        <pt x="114" y="394" on="1"/>
      </contour>
      <contour>
        <pt x="157" y="287" on="1"/>
        <pt x="138" y="278" on="0"/>
        <pt x="103" y="249" on="0"/>
        <pt x="76" y="214" on="0"/>
        <pt x="60" y="175" on="0"/>
        <pt x="60" y="155" on="1"/>
        <pt x="60" y="133" on="0"/>
        <pt x="90" y="93" on="0"/>
        <pt x="134" y="65" on="0"/>
        <pt x="182" y="48" on="0"/>
        <pt x="201" y="48" on="1"/>
        <pt x="219" y="48" on="0"/>
        <pt x="262" y="62" on="0"/>
        <pt x="298" y="86" on="0"/>
        <pt x="322" y="118" on="0"/>
        <pt x="322" y="136" on="1"/>
        <pt x="322" y="165" on="0"/>
        <pt x="282" y="203" on="0"/>
        <pt x="253" y="222" on="1"/>
        <pt x="225" y="242" on="0"/>
        <pt x="174" y="276" on="0"/>
      </contour>
    </TTGlyph>
    <TTGlyph name="emdash" xMin="-21" yMin="307" xMax="778" yMax="346">
      <contour>
        <pt x="8" y="307" on="1"/>
        <pt x="-6" y="307" on="0"/>
        <pt x="-21" y="312" on="0"/>
        <pt x="-21" y="329" on="1"/>
        <pt x="-21" y="342" on="0"/>
        <pt x="-7" y="346" on="0"/>
        <pt x="7" y="346" on="1"/>
        <pt x="748" y="346" on="1"/>
        <pt x="764" y="346" on="0"/>
        <pt x="778" y="340" on="0"/>
        <pt x="778" y="323" on="1"/>
        <pt x="778" y="311" on="0"/>
        <pt x="762" y="307" on="0"/>
        <pt x="749" y="307" on="1"/>
      </contour>
    </TTGlyph>
    <TTGlyph name="endash" xMin="-27" yMin="307" xMax="373" yMax="346">
      <contour>
        <pt x="2" y="307" on="1"/>
        <pt x="-12" y="307" on="0"/>
        <pt x="-27" y="312" on="0"/>
        <pt x="-27" y="329" on="1"/>
        <pt x="-27" y="342" on="0"/>
        <pt x="-13" y="346" on="0"/>
        <pt x="1" y="346" on="1"/>
        <pt x="343" y="346" on="1"/>
        <pt x="359" y="346" on="0"/>
        <pt x="373" y="340" on="0"/>
        <pt x="373" y="323" on="1"/>
        <pt x="373" y="311" on="0"/>
        <pt x="357" y="307" on="0"/>
        <pt x="344" y="307" on="1"/>
      </contour>
    </TTGlyph>
    <TTGlyph name="equal" xMin="22" yMin="-4" xMax="581" yMax="310">
      <contour>
        <pt x="59" y="260" on="1"/>
        <pt x="54" y="260" on="0"/>
        <pt x="41" y="261" on="0"/>
        <pt x="30" y="265" on="0"/>
        <pt x="22" y="276" on="0"/>
        <pt x="22" y="285" on="1"/>
        <pt x="22" y="294" on="0"/>
        <pt x="30" y="305" on="0"/>
        <pt x="41" y="309" on="0"/>
        <pt x="54" y="310" on="0"/>
        <pt x="59" y="310" on="1"/>
        <pt x="516" y="310" on="1"/>
        <pt x="527" y="310" on="0"/>
        <pt x="554" y="304" on="0"/>
        <pt x="554" y="285" on="1"/>
        <pt x="554" y="266" on="0"/>
        <pt x="527" y="260" on="0"/>
        <pt x="516" y="260" on="1"/>
      </contour>
      <contour>
        <pt x="86" y="-4" on="1"/>
        <pt x="81" y="-4" on="0"/>
        <pt x="68" y="-3" on="0"/>
        <pt x="56" y="1" on="0"/>
        <pt x="48" y="12" on="0"/>
        <pt x="48" y="21" on="1"/>
        <pt x="48" y="30" on="0"/>
        <pt x="56" y="41" on="0"/>
        <pt x="68" y="45" on="0"/>
        <pt x="81" y="46" on="0"/>
        <pt x="86" y="46" on="1"/>
        <pt x="543" y="46" on="1"/>
        <pt x="548" y="46" on="0"/>
        <pt x="561" y="45" on="0"/>
        <pt x="573" y="41" on="0"/>
        <pt x="581" y="30" on="0"/>
        <pt x="581" y="21" on="1"/>
        <pt x="581" y="12" on="0"/>
        <pt x="573" y="1" on="0"/>
        <pt x="561" y="-3" on="0"/>
        <pt x="548" y="-4" on="0"/>
        <pt x="543" y="-4" on="1"/>
      </contour>
    </TTGlyph>
    <TTGlyph name="exclam" xMin="-2" yMin="0" xMax="131" yMax="611">
      <contour>
        <pt x="92" y="206" on="1"/>
        <pt x="93" y="193" on="0"/>
        <pt x="91" y="188" on="0"/>
        <pt x="86" y="187" on="1"/>
        <pt x="60" y="187" on="1"/>
        <pt x="-2" y="611" on="1"/>
        <pt x="70" y="611" on="1"/>
      </contour>
      <contour>
        <pt x="131" y="0" on="1"/>
        <pt x="59" y="0" on="1"/>
        <pt x="52" y="72" on="1"/>
        <pt x="124" y="72" on="1"/>
      </contour>
    </TTGlyph>
    <TTGlyph name="exclamdown" xMin="26" yMin="-278" xMax="159" yMax="333">
      <contour>
        <pt x="105" y="261" on="1"/>
        <pt x="33" y="261" on="1"/>
        <pt x="26" y="333" on="1"/>
        <pt x="98" y="333" on="1"/>
      </contour>
      <contour>
        <pt x="159" y="-278" on="1"/>
        <pt x="87" y="-278" on="1"/>
        <pt x="64" y="146" on="1"/>
        <pt x="97" y="146" on="1"/>
      </contour>
    </TTGlyph>
    <TTGlyph name="f" xMin="-30" yMin="0" xMax="215" yMax="617">
      <contour>
        <pt x="129" y="56" on="1"/>
        <pt x="136" y="52" on="0"/>
        <pt x="144" y="40" on="0"/>
        <pt x="144" y="16" on="1"/>
        <pt x="144" y="6" on="0"/>
        <pt x="134" y="0" on="0"/>
        <pt x="133" y="0" on="1"/>
        <pt x="132" y="1" on="0"/>
        <pt x="122" y="14" on="0"/>
        <pt x="110" y="14" on="1"/>
        <pt x="98" y="14" on="0"/>
        <pt x="94" y="0" on="1"/>
        <pt x="86" y="2" on="0"/>
        <pt x="76" y="14" on="0"/>
        <pt x="76" y="42" on="1"/>
        <pt x="76" y="48" on="0"/>
        <pt x="79" y="52" on="1"/>
        <pt x="81" y="54" on="0"/>
        <pt x="81" y="69" on="0"/>
        <pt x="81" y="72" on="1"/>
        <pt x="40" y="481" on="1"/>
        <pt x="0" y="481" on="1"/>
        <pt x="-17" y="481" on="0"/>
        <pt x="-30" y="488" on="0"/>
        <pt x="-30" y="510" on="1"/>
        <pt x="-30" y="524" on="0"/>
        <pt x="-17" y="528" on="0"/>
        <pt x="-2" y="528" on="1"/>
        <pt x="35" y="528" on="1"/>
        <pt x="34" y="533" on="0"/>
        <pt x="33" y="547" on="0"/>
        <pt x="33" y="551" on="1"/>
        <pt x="33" y="566" on="0"/>
        <pt x="65" y="590" on="0"/>
        <pt x="110" y="607" on="0"/>
        <pt x="158" y="617" on="0"/>
        <pt x="174" y="617" on="1"/>
        <pt x="188" y="617" on="0"/>
        <pt x="204" y="606" on="0"/>
        <pt x="212" y="592" on="0"/>
        <pt x="215" y="578" on="0"/>
        <pt x="215" y="574" on="1"/>
        <pt x="215" y="556" on="0"/>
        <pt x="194" y="546" on="0"/>
        <pt x="187" y="546" on="1"/>
        <pt x="181" y="546" on="0"/>
        <pt x="156" y="557" on="0"/>
        <pt x="153" y="578" on="1"/>
        <pt x="143" y="578" on="0"/>
        <pt x="118" y="574" on="0"/>
        <pt x="97" y="566" on="0"/>
        <pt x="83" y="556" on="0"/>
        <pt x="83" y="549" on="1"/>
        <pt x="83" y="547" on="0"/>
        <pt x="85" y="531" on="0"/>
        <pt x="85" y="528" on="1"/>
        <pt x="149" y="528" on="1"/>
        <pt x="166" y="528" on="0"/>
        <pt x="179" y="521" on="0"/>
        <pt x="179" y="499" on="1"/>
        <pt x="179" y="485" on="0"/>
        <pt x="166" y="481" on="0"/>
        <pt x="151" y="481" on="1"/>
        <pt x="87" y="481" on="1"/>
      </contour>
    </TTGlyph>
    <TTGlyph name="f_f" xMin="-24" yMin="0" xMax="454" yMax="617">
      <contour>
        <pt x="367" y="56" on="1"/>
        <pt x="374" y="52" on="0"/>
        <pt x="382" y="40" on="0"/>
        <pt x="382" y="16" on="1"/>
        <pt x="382" y="6" on="0"/>
        <pt x="372" y="0" on="0"/>
        <pt x="371" y="0" on="1"/>
        <pt x="370" y="1" on="0"/>
        <pt x="360" y="14" on="0"/>
        <pt x="348" y="14" on="1"/>
        <pt x="336" y="14" on="0"/>
        <pt x="332" y="0" on="1"/>
        <pt x="324" y="2" on="0"/>
        <pt x="314" y="14" on="0"/>
        <pt x="314" y="42" on="1"/>
        <pt x="314" y="48" on="0"/>
        <pt x="317" y="52" on="1"/>
        <pt x="319" y="54" on="0"/>
        <pt x="319" y="69" on="0"/>
        <pt x="319" y="72" on="1"/>
        <pt x="278" y="481" on="1"/>
        <pt x="93" y="481" on="1"/>
        <pt x="134" y="72" on="1"/>
        <pt x="136" y="61" on="0"/>
        <pt x="137" y="55" on="0"/>
        <pt x="139" y="53" on="1"/>
        <pt x="146" y="47" on="0"/>
        <pt x="148" y="22" on="0"/>
        <pt x="148" y="16" on="1"/>
        <pt x="148" y="8" on="0"/>
        <pt x="140" y="1" on="0"/>
        <pt x="138" y="1" on="1"/>
        <pt x="136" y="1" on="0"/>
        <pt x="134" y="2" on="0"/>
        <pt x="132" y="6" on="1"/>
        <pt x="130" y="8" on="0"/>
        <pt x="121" y="14" on="0"/>
        <pt x="116" y="14" on="1"/>
        <pt x="104" y="14" on="0"/>
        <pt x="100" y="0" on="1"/>
        <pt x="92" y="2" on="0"/>
        <pt x="82" y="14" on="0"/>
        <pt x="82" y="42" on="1"/>
        <pt x="82" y="48" on="0"/>
        <pt x="85" y="52" on="1"/>
        <pt x="87" y="54" on="0"/>
        <pt x="87" y="69" on="0"/>
        <pt x="87" y="72" on="1"/>
        <pt x="46" y="481" on="1"/>
        <pt x="6" y="481" on="1"/>
        <pt x="-11" y="481" on="0"/>
        <pt x="-24" y="488" on="0"/>
        <pt x="-24" y="510" on="1"/>
        <pt x="-24" y="524" on="0"/>
        <pt x="-11" y="528" on="0"/>
        <pt x="4" y="528" on="1"/>
        <pt x="41" y="528" on="1"/>
        <pt x="41" y="532" on="0"/>
        <pt x="39" y="548" on="0"/>
        <pt x="39" y="550" on="1"/>
        <pt x="39" y="565" on="0"/>
        <pt x="89" y="590" on="0"/>
        <pt x="159" y="608" on="0"/>
        <pt x="232" y="617" on="0"/>
        <pt x="255" y="617" on="1"/>
        <pt x="263" y="617" on="0"/>
        <pt x="299" y="611" on="0"/>
        <pt x="312" y="592" on="1"/>
        <pt x="332" y="603" on="0"/>
        <pt x="388" y="617" on="0"/>
        <pt x="413" y="617" on="1"/>
        <pt x="426" y="617" on="0"/>
        <pt x="442" y="607" on="0"/>
        <pt x="451" y="593" on="0"/>
        <pt x="454" y="578" on="0"/>
        <pt x="454" y="574" on="1"/>
        <pt x="454" y="556" on="0"/>
        <pt x="433" y="546" on="0"/>
        <pt x="426" y="546" on="1"/>
        <pt x="420" y="546" on="0"/>
        <pt x="395" y="557" on="0"/>
        <pt x="392" y="578" on="1"/>
        <pt x="382" y="578" on="0"/>
        <pt x="358" y="574" on="0"/>
        <pt x="336" y="567" on="0"/>
        <pt x="321" y="556" on="0"/>
        <pt x="321" y="549" on="1"/>
        <pt x="321" y="547" on="0"/>
        <pt x="323" y="531" on="0"/>
        <pt x="323" y="528" on="1"/>
        <pt x="388" y="528" on="1"/>
        <pt x="405" y="528" on="0"/>
        <pt x="418" y="521" on="0"/>
        <pt x="418" y="499" on="1"/>
        <pt x="418" y="485" on="0"/>
        <pt x="405" y="481" on="0"/>
        <pt x="390" y="481" on="1"/>
        <pt x="325" y="481" on="1"/>
      </contour>
      <contour>
        <pt x="273" y="528" on="1"/>
        <pt x="273" y="541" on="0"/>
        <pt x="269" y="549" on="0"/>
        <pt x="266" y="552" on="1"/>
        <pt x="264" y="554" on="0"/>
        <pt x="257" y="566" on="0"/>
        <pt x="256" y="578" on="1"/>
        <pt x="213" y="578" on="1"/>
        <pt x="203" y="578" on="0"/>
        <pt x="162" y="575" on="0"/>
        <pt x="120" y="568" on="0"/>
        <pt x="89" y="556" on="0"/>
        <pt x="89" y="548" on="1"/>
        <pt x="89" y="546" on="0"/>
        <pt x="91" y="531" on="0"/>
        <pt x="91" y="528" on="1"/>
      </contour>
    </TTGlyph>
    <TTGlyph name="f_f_i" xMin="-24" yMin="0" xMax="613" yMax="617">
      <contour>
        <pt x="599" y="72" on="1"/>
        <pt x="601" y="61" on="0"/>
        <pt x="602" y="55" on="0"/>
        <pt x="604" y="53" on="1"/>
        <pt x="611" y="47" on="0"/>
        <pt x="613" y="22" on="0"/>
        <pt x="613" y="16" on="1"/>
        <pt x="613" y="8" on="0"/>
        <pt x="605" y="1" on="0"/>
        <pt x="603" y="1" on="1"/>
        <pt x="601" y="1" on="0"/>
        <pt x="599" y="2" on="0"/>
        <pt x="597" y="6" on="1"/>
        <pt x="595" y="8" on="0"/>
        <pt x="586" y="14" on="0"/>
        <pt x="581" y="14" on="1"/>
        <pt x="569" y="14" on="0"/>
        <pt x="565" y="0" on="1"/>
        <pt x="557" y="2" on="0"/>
        <pt x="547" y="14" on="0"/>
        <pt x="547" y="42" on="1"/>
        <pt x="547" y="48" on="0"/>
        <pt x="550" y="52" on="1"/>
        <pt x="552" y="54" on="0"/>
        <pt x="552" y="69" on="0"/>
        <pt x="552" y="72" on="1"/>
        <pt x="513" y="455" on="1"/>
        <pt x="512" y="460" on="0"/>
        <pt x="512" y="467" on="0"/>
        <pt x="511" y="472" on="1"/>
        <pt x="506" y="476" on="0"/>
        <pt x="503" y="481" on="1"/>
        <pt x="326" y="481" on="1"/>
        <pt x="367" y="72" on="1"/>
        <pt x="369" y="61" on="0"/>
        <pt x="370" y="55" on="0"/>
        <pt x="372" y="53" on="1"/>
        <pt x="379" y="47" on="0"/>
        <pt x="381" y="22" on="0"/>
        <pt x="381" y="16" on="1"/>
        <pt x="381" y="8" on="0"/>
        <pt x="373" y="1" on="0"/>
        <pt x="371" y="1" on="1"/>
        <pt x="369" y="1" on="0"/>
        <pt x="367" y="2" on="0"/>
        <pt x="365" y="6" on="1"/>
        <pt x="363" y="8" on="0"/>
        <pt x="354" y="14" on="0"/>
        <pt x="349" y="14" on="1"/>
        <pt x="337" y="14" on="0"/>
        <pt x="333" y="0" on="1"/>
        <pt x="325" y="2" on="0"/>
        <pt x="315" y="14" on="0"/>
        <pt x="315" y="42" on="1"/>
        <pt x="315" y="48" on="0"/>
        <pt x="318" y="52" on="1"/>
        <pt x="320" y="54" on="0"/>
        <pt x="320" y="69" on="0"/>
        <pt x="320" y="72" on="1"/>
        <pt x="279" y="481" on="1"/>
        <pt x="93" y="481" on="1"/>
        <pt x="134" y="72" on="1"/>
        <pt x="136" y="61" on="0"/>
        <pt x="137" y="55" on="0"/>
        <pt x="139" y="53" on="1"/>
        <pt x="146" y="47" on="0"/>
        <pt x="148" y="22" on="0"/>
        <pt x="148" y="16" on="1"/>
        <pt x="148" y="8" on="0"/>
        <pt x="140" y="1" on="0"/>
        <pt x="138" y="1" on="1"/>
        <pt x="136" y="1" on="0"/>
        <pt x="134" y="2" on="0"/>
        <pt x="132" y="6" on="1"/>
        <pt x="130" y="8" on="0"/>
        <pt x="121" y="14" on="0"/>
        <pt x="116" y="14" on="1"/>
        <pt x="104" y="14" on="0"/>
        <pt x="100" y="0" on="1"/>
        <pt x="92" y="2" on="0"/>
        <pt x="82" y="14" on="0"/>
        <pt x="82" y="42" on="1"/>
        <pt x="82" y="48" on="0"/>
        <pt x="85" y="52" on="1"/>
        <pt x="87" y="54" on="0"/>
        <pt x="87" y="69" on="0"/>
        <pt x="87" y="72" on="1"/>
        <pt x="46" y="481" on="1"/>
        <pt x="6" y="481" on="1"/>
        <pt x="-11" y="481" on="0"/>
        <pt x="-24" y="488" on="0"/>
        <pt x="-24" y="510" on="1"/>
        <pt x="-24" y="524" on="0"/>
        <pt x="-11" y="528" on="0"/>
        <pt x="4" y="528" on="1"/>
        <pt x="41" y="528" on="1"/>
        <pt x="41" y="532" on="0"/>
        <pt x="39" y="548" on="0"/>
        <pt x="39" y="550" on="1"/>
        <pt x="39" y="565" on="0"/>
        <pt x="90" y="590" on="0"/>
        <pt x="160" y="608" on="0"/>
        <pt x="234" y="617" on="0"/>
        <pt x="256" y="617" on="1"/>
        <pt x="261" y="617" on="0"/>
        <pt x="275" y="616" on="0"/>
        <pt x="292" y="610" on="0"/>
        <pt x="308" y="598" on="0"/>
        <pt x="315" y="586" on="1"/>
        <pt x="371" y="604" on="0"/>
        <pt x="456" y="617" on="0"/>
        <pt x="486" y="617" on="1"/>
        <pt x="507" y="617" on="0"/>
        <pt x="532" y="603" on="0"/>
        <pt x="546" y="585" on="0"/>
        <pt x="550" y="567" on="0"/>
        <pt x="550" y="563" on="1"/>
        <pt x="550" y="548" on="0"/>
        <pt x="531" y="534" on="0"/>
        <pt x="520" y="534" on="1"/>
        <pt x="505" y="534" on="0"/>
        <pt x="485" y="554" on="0"/>
        <pt x="485" y="577" on="1"/>
        <pt x="478" y="578" on="0"/>
        <pt x="469" y="578" on="0"/>
        <pt x="453" y="578" on="1"/>
        <pt x="437" y="578" on="0"/>
        <pt x="392" y="575" on="0"/>
        <pt x="351" y="567" on="0"/>
        <pt x="322" y="556" on="0"/>
        <pt x="322" y="548" on="1"/>
        <pt x="322" y="546" on="0"/>
        <pt x="324" y="531" on="0"/>
        <pt x="324" y="528" on="1"/>
        <pt x="517" y="528" on="1"/>
        <pt x="531" y="528" on="0"/>
        <pt x="547" y="521" on="0"/>
        <pt x="547" y="501" on="1"/>
        <pt x="553" y="499" on="0"/>
        <pt x="556" y="494" on="0"/>
        <pt x="558" y="483" on="1"/>
      </contour>
      <contour>
        <pt x="274" y="528" on="1"/>
        <pt x="273" y="537" on="1"/>
        <pt x="272" y="540" on="0"/>
        <pt x="269" y="541" on="1"/>
        <pt x="261" y="549" on="0"/>
        <pt x="255" y="566" on="0"/>
        <pt x="256" y="572" on="1"/>
        <pt x="256" y="577" on="1"/>
        <pt x="248" y="578" on="0"/>
        <pt x="234" y="578" on="0"/>
        <pt x="223" y="578" on="1"/>
        <pt x="207" y="578" on="0"/>
        <pt x="161" y="575" on="0"/>
        <pt x="119" y="567" on="0"/>
        <pt x="89" y="556" on="0"/>
        <pt x="89" y="548" on="1"/>
        <pt x="89" y="546" on="0"/>
        <pt x="91" y="531" on="0"/>
        <pt x="91" y="528" on="1"/>
      </contour>
    </TTGlyph>
    <TTGlyph name="f_f_l" xMin="-24" yMin="0" xMax="613" yMax="617">
      <contour>
        <pt x="599" y="72" on="1"/>
        <pt x="601" y="61" on="0"/>
        <pt x="602" y="55" on="0"/>
        <pt x="604" y="53" on="1"/>
        <pt x="611" y="47" on="0"/>
        <pt x="613" y="22" on="0"/>
        <pt x="613" y="16" on="1"/>
        <pt x="613" y="8" on="0"/>
        <pt x="605" y="1" on="0"/>
        <pt x="603" y="1" on="1"/>
        <pt x="601" y="1" on="0"/>
        <pt x="599" y="2" on="0"/>
        <pt x="597" y="6" on="1"/>
        <pt x="595" y="8" on="0"/>
        <pt x="586" y="14" on="0"/>
        <pt x="581" y="14" on="1"/>
        <pt x="569" y="14" on="0"/>
        <pt x="565" y="0" on="1"/>
        <pt x="557" y="2" on="0"/>
        <pt x="547" y="14" on="0"/>
        <pt x="547" y="42" on="1"/>
        <pt x="547" y="48" on="0"/>
        <pt x="550" y="52" on="1"/>
        <pt x="552" y="54" on="0"/>
        <pt x="552" y="69" on="0"/>
        <pt x="552" y="72" on="1"/>
        <pt x="511" y="481" on="1"/>
        <pt x="326" y="481" on="1"/>
        <pt x="367" y="72" on="1"/>
        <pt x="369" y="61" on="0"/>
        <pt x="370" y="55" on="0"/>
        <pt x="372" y="53" on="1"/>
        <pt x="379" y="47" on="0"/>
        <pt x="381" y="22" on="0"/>
        <pt x="381" y="16" on="1"/>
        <pt x="381" y="8" on="0"/>
        <pt x="373" y="1" on="0"/>
        <pt x="371" y="1" on="1"/>
        <pt x="369" y="1" on="0"/>
        <pt x="367" y="2" on="0"/>
        <pt x="365" y="6" on="1"/>
        <pt x="363" y="8" on="0"/>
        <pt x="354" y="14" on="0"/>
        <pt x="349" y="14" on="1"/>
        <pt x="337" y="14" on="0"/>
        <pt x="333" y="0" on="1"/>
        <pt x="325" y="2" on="0"/>
        <pt x="315" y="14" on="0"/>
        <pt x="315" y="42" on="1"/>
        <pt x="315" y="48" on="0"/>
        <pt x="318" y="52" on="1"/>
        <pt x="320" y="54" on="0"/>
        <pt x="320" y="69" on="0"/>
        <pt x="320" y="72" on="1"/>
        <pt x="279" y="481" on="1"/>
        <pt x="93" y="481" on="1"/>
        <pt x="134" y="72" on="1"/>
        <pt x="136" y="61" on="0"/>
        <pt x="137" y="55" on="0"/>
        <pt x="139" y="53" on="1"/>
        <pt x="146" y="47" on="0"/>
        <pt x="148" y="22" on="0"/>
        <pt x="148" y="16" on="1"/>
        <pt x="148" y="8" on="0"/>
        <pt x="140" y="1" on="0"/>
        <pt x="138" y="1" on="1"/>
        <pt x="136" y="1" on="0"/>
        <pt x="134" y="2" on="0"/>
        <pt x="132" y="6" on="1"/>
        <pt x="130" y="8" on="0"/>
        <pt x="121" y="14" on="0"/>
        <pt x="116" y="14" on="1"/>
        <pt x="104" y="14" on="0"/>
        <pt x="100" y="0" on="1"/>
        <pt x="92" y="2" on="0"/>
        <pt x="82" y="14" on="0"/>
        <pt x="82" y="42" on="1"/>
        <pt x="82" y="48" on="0"/>
        <pt x="85" y="52" on="1"/>
        <pt x="87" y="54" on="0"/>
        <pt x="87" y="69" on="0"/>
        <pt x="87" y="72" on="1"/>
        <pt x="46" y="481" on="1"/>
        <pt x="6" y="481" on="1"/>
        <pt x="-11" y="481" on="0"/>
        <pt x="-24" y="488" on="0"/>
        <pt x="-24" y="510" on="1"/>
        <pt x="-24" y="524" on="0"/>
        <pt x="-11" y="528" on="0"/>
        <pt x="4" y="528" on="1"/>
        <pt x="41" y="528" on="1"/>
        <pt x="41" y="532" on="0"/>
        <pt x="39" y="548" on="0"/>
        <pt x="39" y="550" on="1"/>
        <pt x="39" y="565" on="0"/>
        <pt x="90" y="590" on="0"/>
        <pt x="160" y="608" on="0"/>
        <pt x="234" y="617" on="0"/>
        <pt x="256" y="617" on="1"/>
        <pt x="260" y="617" on="0"/>
        <pt x="275" y="616" on="0"/>
        <pt x="293" y="610" on="0"/>
        <pt x="311" y="598" on="0"/>
        <pt x="317" y="586" on="1"/>
        <pt x="327" y="589" on="0"/>
        <pt x="361" y="599" on="0"/>
        <pt x="406" y="610" on="0"/>
        <pt x="459" y="617" on="0"/>
        <pt x="488" y="617" on="1"/>
        <pt x="495" y="617" on="0"/>
        <pt x="516" y="615" on="0"/>
        <pt x="526" y="610" on="1"/>
        <pt x="531" y="611" on="0"/>
        <pt x="537" y="611" on="0"/>
        <pt x="545" y="611" on="1"/>
        <pt x="545" y="610" on="0"/>
        <pt x="546" y="593" on="0"/>
        <pt x="548" y="588" on="1"/>
        <pt x="551" y="582" on="0"/>
        <pt x="550" y="554" on="0"/>
        <pt x="551" y="547" on="1"/>
      </contour>
      <contour>
        <pt x="274" y="528" on="1"/>
        <pt x="274" y="541" on="0"/>
        <pt x="270" y="549" on="0"/>
        <pt x="267" y="552" on="1"/>
        <pt x="265" y="554" on="0"/>
        <pt x="258" y="566" on="0"/>
        <pt x="257" y="578" on="1"/>
        <pt x="214" y="578" on="1"/>
        <pt x="205" y="578" on="0"/>
        <pt x="164" y="575" on="0"/>
        <pt x="121" y="568" on="0"/>
        <pt x="89" y="556" on="0"/>
        <pt x="89" y="548" on="1"/>
        <pt x="89" y="546" on="0"/>
        <pt x="91" y="531" on="0"/>
        <pt x="91" y="528" on="1"/>
      </contour>
      <contour>
        <pt x="447" y="578" on="1"/>
        <pt x="437" y="578" on="0"/>
        <pt x="395" y="575" on="0"/>
        <pt x="353" y="568" on="0"/>
        <pt x="322" y="556" on="0"/>
        <pt x="322" y="548" on="1"/>
        <pt x="322" y="546" on="0"/>
        <pt x="324" y="531" on="0"/>
        <pt x="324" y="528" on="1"/>
        <pt x="506" y="528" on="1"/>
        <pt x="505" y="532" on="0"/>
        <pt x="504" y="547" on="0"/>
        <pt x="504" y="552" on="1"/>
        <pt x="496" y="557" on="0"/>
        <pt x="491" y="573" on="0"/>
        <pt x="490" y="578" on="1"/>
      </contour>
    </TTGlyph>
    <TTGlyph name="fi" xMin="-24" yMin="0" xMax="379" yMax="617">
      <contour>
        <pt x="365" y="72" on="1"/>
        <pt x="367" y="61" on="0"/>
        <pt x="368" y="55" on="0"/>
        <pt x="370" y="53" on="1"/>
        <pt x="377" y="47" on="0"/>
        <pt x="379" y="22" on="0"/>
        <pt x="379" y="16" on="1"/>
        <pt x="379" y="8" on="0"/>
        <pt x="371" y="1" on="0"/>
        <pt x="369" y="1" on="1"/>
        <pt x="367" y="1" on="0"/>
        <pt x="365" y="2" on="0"/>
        <pt x="363" y="6" on="1"/>
        <pt x="361" y="8" on="0"/>
        <pt x="352" y="14" on="0"/>
        <pt x="347" y="14" on="1"/>
        <pt x="335" y="14" on="0"/>
        <pt x="331" y="0" on="1"/>
        <pt x="323" y="2" on="0"/>
        <pt x="313" y="14" on="0"/>
        <pt x="313" y="42" on="1"/>
        <pt x="313" y="48" on="0"/>
        <pt x="316" y="52" on="1"/>
        <pt x="318" y="54" on="0"/>
        <pt x="318" y="69" on="0"/>
        <pt x="318" y="72" on="1"/>
        <pt x="279" y="455" on="1"/>
        <pt x="278" y="460" on="0"/>
        <pt x="278" y="467" on="0"/>
        <pt x="277" y="472" on="1"/>
        <pt x="272" y="476" on="0"/>
        <pt x="269" y="481" on="1"/>
        <pt x="93" y="481" on="1"/>
        <pt x="134" y="72" on="1"/>
        <pt x="136" y="61" on="0"/>
        <pt x="137" y="55" on="0"/>
        <pt x="139" y="53" on="1"/>
        <pt x="146" y="47" on="0"/>
        <pt x="148" y="22" on="0"/>
        <pt x="148" y="16" on="1"/>
        <pt x="148" y="8" on="0"/>
        <pt x="140" y="1" on="0"/>
        <pt x="138" y="1" on="1"/>
        <pt x="136" y="1" on="0"/>
        <pt x="134" y="2" on="0"/>
        <pt x="132" y="6" on="1"/>
        <pt x="130" y="8" on="0"/>
        <pt x="121" y="14" on="0"/>
        <pt x="116" y="14" on="1"/>
        <pt x="104" y="14" on="0"/>
        <pt x="100" y="0" on="1"/>
        <pt x="92" y="2" on="0"/>
        <pt x="82" y="14" on="0"/>
        <pt x="82" y="42" on="1"/>
        <pt x="82" y="48" on="0"/>
        <pt x="85" y="52" on="1"/>
        <pt x="87" y="54" on="0"/>
        <pt x="87" y="69" on="0"/>
        <pt x="87" y="72" on="1"/>
        <pt x="46" y="481" on="1"/>
        <pt x="6" y="481" on="1"/>
        <pt x="-11" y="481" on="0"/>
        <pt x="-24" y="488" on="0"/>
        <pt x="-24" y="510" on="1"/>
        <pt x="-24" y="524" on="0"/>
        <pt x="-11" y="528" on="0"/>
        <pt x="4" y="528" on="1"/>
        <pt x="41" y="528" on="1"/>
        <pt x="41" y="532" on="0"/>
        <pt x="39" y="548" on="0"/>
        <pt x="39" y="550" on="1"/>
        <pt x="39" y="565" on="0"/>
        <pt x="89" y="590" on="0"/>
        <pt x="158" y="608" on="0"/>
        <pt x="230" y="617" on="0"/>
        <pt x="252" y="617" on="1"/>
        <pt x="273" y="617" on="0"/>
        <pt x="299" y="603" on="0"/>
        <pt x="312" y="584" on="0"/>
        <pt x="316" y="566" on="0"/>
        <pt x="316" y="563" on="1"/>
        <pt x="316" y="548" on="0"/>
        <pt x="297" y="534" on="0"/>
        <pt x="286" y="534" on="1"/>
        <pt x="271" y="534" on="0"/>
        <pt x="251" y="554" on="0"/>
        <pt x="251" y="577" on="1"/>
        <pt x="244" y="578" on="0"/>
        <pt x="235" y="578" on="0"/>
        <pt x="220" y="578" on="1"/>
        <pt x="204" y="578" on="0"/>
        <pt x="159" y="575" on="0"/>
        <pt x="118" y="567" on="0"/>
        <pt x="89" y="556" on="0"/>
        <pt x="89" y="548" on="1"/>
        <pt x="89" y="546" on="0"/>
        <pt x="91" y="531" on="0"/>
        <pt x="91" y="528" on="1"/>
        <pt x="283" y="528" on="1"/>
        <pt x="297" y="528" on="0"/>
        <pt x="313" y="521" on="0"/>
        <pt x="313" y="501" on="1"/>
        <pt x="319" y="499" on="0"/>
        <pt x="322" y="494" on="0"/>
        <pt x="324" y="483" on="1"/>
      </contour>
    </TTGlyph>
    <TTGlyph name="five" xMin="18" yMin="-11" xMax="347" yMax="594">
      <contour>
        <pt x="89" y="332" on="1"/>
        <pt x="109" y="355" on="0"/>
        <pt x="156" y="371" on="0"/>
        <pt x="177" y="371" on="1"/>
        <pt x="205" y="371" on="0"/>
        <pt x="265" y="333" on="0"/>
        <pt x="315" y="275" on="0"/>
        <pt x="347" y="204" on="0"/>
        <pt x="347" y="171" on="1"/>
        <pt x="347" y="141" on="0"/>
        <pt x="321" y="77" on="0"/>
        <pt x="277" y="24" on="0"/>
        <pt x="221" y="-11" on="0"/>
        <pt x="191" y="-11" on="1"/>
        <pt x="155" y="-11" on="0"/>
        <pt x="97" y="19" on="0"/>
        <pt x="55" y="64" on="0"/>
        <pt x="32" y="117" on="0"/>
        <pt x="32" y="139" on="1"/>
        <pt x="32" y="152" on="0"/>
        <pt x="49" y="172" on="0"/>
        <pt x="66" y="172" on="1"/>
        <pt x="83" y="172" on="0"/>
        <pt x="107" y="150" on="0"/>
        <pt x="107" y="131" on="1"/>
        <pt x="107" y="114" on="0"/>
        <pt x="89" y="100" on="0"/>
        <pt x="79" y="98" on="1"/>
        <pt x="95" y="74" on="0"/>
        <pt x="155" y="48" on="0"/>
        <pt x="183" y="48" on="1"/>
        <pt x="203" y="48" on="0"/>
        <pt x="229" y="73" on="0"/>
        <pt x="246" y="97" on="1"/>
        <pt x="258" y="115" on="0"/>
        <pt x="280" y="154" on="0"/>
        <pt x="280" y="177" on="1"/>
        <pt x="280" y="204" on="0"/>
        <pt x="254" y="254" on="0"/>
        <pt x="243" y="270" on="1"/>
        <pt x="218" y="308" on="0"/>
        <pt x="194" y="332" on="0"/>
        <pt x="179" y="332" on="1"/>
        <pt x="176" y="332" on="0"/>
        <pt x="155" y="330" on="0"/>
        <pt x="128" y="318" on="0"/>
        <pt x="101" y="293" on="0"/>
        <pt x="92" y="270" on="1"/>
        <pt x="50" y="270" on="1"/>
        <pt x="18" y="594" on="1"/>
        <pt x="58" y="576" on="0"/>
        <pt x="126" y="565" on="0"/>
        <pt x="149" y="565" on="1"/>
        <pt x="168" y="565" on="0"/>
        <pt x="234" y="574" on="0"/>
        <pt x="275" y="594" on="1"/>
        <pt x="275" y="590" on="0"/>
        <pt x="278" y="563" on="0"/>
        <pt x="278" y="561" on="1"/>
        <pt x="278" y="555" on="0"/>
        <pt x="252" y="537" on="0"/>
        <pt x="208" y="519" on="0"/>
        <pt x="153" y="506" on="0"/>
        <pt x="123" y="506" on="1"/>
        <pt x="119" y="506" on="0"/>
        <pt x="89" y="507" on="0"/>
        <pt x="70" y="512" on="1"/>
      </contour>
    </TTGlyph>
    <TTGlyph name="fl" xMin="-24" yMin="0" xMax="379" yMax="617">
      <contour>
        <pt x="365" y="72" on="1"/>
        <pt x="367" y="61" on="0"/>
        <pt x="368" y="55" on="0"/>
        <pt x="370" y="53" on="1"/>
        <pt x="377" y="47" on="0"/>
        <pt x="379" y="22" on="0"/>
        <pt x="379" y="16" on="1"/>
        <pt x="379" y="8" on="0"/>
        <pt x="371" y="1" on="0"/>
        <pt x="369" y="1" on="1"/>
        <pt x="367" y="1" on="0"/>
        <pt x="365" y="2" on="0"/>
        <pt x="363" y="6" on="1"/>
        <pt x="361" y="8" on="0"/>
        <pt x="352" y="14" on="0"/>
        <pt x="347" y="14" on="1"/>
        <pt x="335" y="14" on="0"/>
        <pt x="331" y="0" on="1"/>
        <pt x="323" y="2" on="0"/>
        <pt x="313" y="14" on="0"/>
        <pt x="313" y="42" on="1"/>
        <pt x="313" y="48" on="0"/>
        <pt x="316" y="52" on="1"/>
        <pt x="318" y="54" on="0"/>
        <pt x="318" y="69" on="0"/>
        <pt x="318" y="72" on="1"/>
        <pt x="277" y="481" on="1"/>
        <pt x="93" y="481" on="1"/>
        <pt x="134" y="72" on="1"/>
        <pt x="136" y="61" on="0"/>
        <pt x="137" y="55" on="0"/>
        <pt x="139" y="53" on="1"/>
        <pt x="146" y="47" on="0"/>
        <pt x="148" y="22" on="0"/>
        <pt x="148" y="16" on="1"/>
        <pt x="148" y="8" on="0"/>
        <pt x="140" y="1" on="0"/>
        <pt x="138" y="1" on="1"/>
        <pt x="136" y="1" on="0"/>
        <pt x="134" y="2" on="0"/>
        <pt x="132" y="6" on="1"/>
        <pt x="130" y="8" on="0"/>
        <pt x="121" y="14" on="0"/>
        <pt x="116" y="14" on="1"/>
        <pt x="104" y="14" on="0"/>
        <pt x="100" y="0" on="1"/>
        <pt x="92" y="2" on="0"/>
        <pt x="82" y="14" on="0"/>
        <pt x="82" y="42" on="1"/>
        <pt x="82" y="48" on="0"/>
        <pt x="85" y="52" on="1"/>
        <pt x="87" y="54" on="0"/>
        <pt x="87" y="69" on="0"/>
        <pt x="87" y="72" on="1"/>
        <pt x="46" y="481" on="1"/>
        <pt x="6" y="481" on="1"/>
        <pt x="-11" y="481" on="0"/>
        <pt x="-24" y="488" on="0"/>
        <pt x="-24" y="510" on="1"/>
        <pt x="-24" y="524" on="0"/>
        <pt x="-11" y="528" on="0"/>
        <pt x="4" y="528" on="1"/>
        <pt x="41" y="528" on="1"/>
        <pt x="41" y="532" on="0"/>
        <pt x="39" y="548" on="0"/>
        <pt x="39" y="550" on="1"/>
        <pt x="39" y="565" on="0"/>
        <pt x="90" y="590" on="0"/>
        <pt x="159" y="608" on="0"/>
        <pt x="232" y="617" on="0"/>
        <pt x="254" y="617" on="1"/>
        <pt x="262" y="617" on="0"/>
        <pt x="282" y="615" on="0"/>
        <pt x="292" y="610" on="1"/>
        <pt x="297" y="611" on="0"/>
        <pt x="303" y="611" on="0"/>
        <pt x="311" y="611" on="1"/>
        <pt x="311" y="610" on="0"/>
        <pt x="312" y="593" on="0"/>
        <pt x="314" y="588" on="1"/>
        <pt x="317" y="582" on="0"/>
        <pt x="316" y="554" on="0"/>
        <pt x="317" y="547" on="1"/>
      </contour>
      <contour>
        <pt x="272" y="528" on="1"/>
        <pt x="271" y="532" on="0"/>
        <pt x="270" y="547" on="0"/>
        <pt x="270" y="552" on="1"/>
        <pt x="262" y="557" on="0"/>
        <pt x="257" y="573" on="0"/>
        <pt x="256" y="578" on="1"/>
        <pt x="213" y="578" on="1"/>
        <pt x="204" y="578" on="0"/>
        <pt x="163" y="575" on="0"/>
        <pt x="121" y="568" on="0"/>
        <pt x="89" y="556" on="0"/>
        <pt x="89" y="548" on="1"/>
        <pt x="89" y="546" on="0"/>
        <pt x="91" y="531" on="0"/>
        <pt x="91" y="528" on="1"/>
      </contour>
    </TTGlyph>
</ttFont>
